<svg width="166" height="76" viewBox="0 0 166 76" fill="none" xmlns="http://www.w3.org/2000/svg">
<path d="M125.2 0C119.656 5.56396 113.069 9.97873 105.815 12.9911C98.5613 16.0034 90.7843 17.554 82.93 17.554C75.0757 17.554 67.2987 16.0034 60.045 12.9911C52.7913 9.97873 46.2037 5.56396 40.66 0L0 40.65C10.8795 51.554 23.8021 60.2059 38.0287 66.1106C52.2552 72.0153 67.5064 75.057 82.9096 75.0616C98.3129 75.0663 113.566 72.0338 127.796 66.1377C142.026 60.2415 154.954 51.5974 165.84 40.7L125.2 0ZM95.68 41.31L84.63 52.37C84.2158 52.7828 83.6548 53.0146 83.07 53.0146C82.4852 53.0146 81.9242 52.7828 81.51 52.37L70.45 41.31C70.0366 40.8941 69.8045 40.3314 69.8045 39.745C69.8045 39.1586 70.0366 38.5959 70.45 38.18C70.6544 37.9744 70.8975 37.8113 71.1652 37.6999C71.433 37.5886 71.72 37.5312 72.01 37.5312C72.2999 37.5312 72.587 37.5886 72.8548 37.6999C73.1225 37.8113 73.3655 37.9744 73.57 38.18L83.06 47.69L92.54 38.22C92.9564 37.8036 93.5211 37.5697 94.11 37.5697C94.6989 37.5697 95.2636 37.8036 95.68 38.22C96.0964 38.6364 96.3303 39.2011 96.3303 39.79C96.3303 40.3789 96.0964 40.9436 95.68 41.36V41.31Z" fill="black"/>
</svg>
