<svg width="76" height="166" viewBox="0 0 76 166" fill="none" xmlns="http://www.w3.org/2000/svg">
<path d="M75.0116 40.63L34.3216 0C12.3598 21.96 0.0150146 51.741 1.36872e-05 82.7984C-0.0149872 113.856 12.3011 143.649 34.2417 165.63L74.9017 124.98C63.7446 113.781 57.4869 98.6119 57.5019 82.8035C57.5169 66.995 63.8034 51.8383 74.9816 40.66L75.0116 40.63ZM36.8516 94.9C36.6472 95.1056 36.4041 95.2688 36.1364 95.3801C35.8687 95.4914 35.5816 95.5487 35.2916 95.5487C35.0017 95.5487 34.7146 95.4914 34.4469 95.3801C34.1792 95.2688 33.9361 95.1056 33.7316 94.9L22.6817 83.85C22.4757 83.6447 22.3124 83.4008 22.2009 83.1322C22.0894 82.8637 22.0321 82.5758 22.0321 82.285C22.0321 81.9942 22.0894 81.7063 22.2009 81.4378C22.3124 81.1692 22.4757 80.9253 22.6817 80.72L33.7316 69.66C34.148 69.2436 34.7128 69.0097 35.3017 69.0097C35.8905 69.0097 36.4553 69.2436 36.8717 69.66C37.288 70.0764 37.522 70.6411 37.522 71.23C37.522 71.8189 37.288 72.3836 36.8717 72.8L27.3717 82.29L36.8717 91.77C37.0763 91.9766 37.2381 92.2216 37.3478 92.4908C37.4576 92.7601 37.5131 93.0484 37.5112 93.3391C37.5094 93.6299 37.4502 93.9175 37.337 94.1853C37.2238 94.4531 37.0589 94.696 36.8516 94.9Z" fill="black"/>
</svg>
