<svg width="76" height="166" viewBox="0 0 76 166" fill="none" xmlns="http://www.w3.org/2000/svg">
<path d="M40.66 0L0 40.66C5.55365 46.1921 9.96285 52.7643 12.9757 60.001C15.9885 67.2377 17.5459 74.9971 17.5589 82.836C17.5719 90.6748 16.0403 98.4394 13.0515 105.686C10.0626 112.933 5.67525 119.519 0.139984 125.07L40.78 165.76C51.6585 154.869 60.2849 141.943 66.1664 127.717C72.048 113.492 75.0695 98.2481 75.0583 82.8551C75.0472 67.4622 72.0036 52.2222 66.1015 38.0057C60.1993 23.7892 51.5542 10.8747 40.66 0ZM41.32 95.49C41.1147 95.6959 40.8708 95.8593 40.6022 95.9707C40.3337 96.0822 40.0458 96.1396 39.755 96.1396C39.4642 96.1396 39.1763 96.0822 38.9078 95.9707C38.6392 95.8593 38.3953 95.6959 38.19 95.49C37.7766 95.0741 37.5445 94.5114 37.5445 93.925C37.5445 93.3385 37.7766 92.7759 38.19 92.36L47.7 82.88L38.15 73.38C37.7336 72.9636 37.4997 72.3989 37.4997 71.81C37.4997 71.2211 37.7336 70.6564 38.15 70.24C38.5664 69.8236 39.1311 69.5897 39.72 69.5897C40.3089 69.5897 40.8736 69.8236 41.29 70.24L52.35 81.3C52.7634 81.7159 52.9955 82.2785 52.9955 82.865C52.9955 83.4514 52.7634 84.0141 52.35 84.43L41.32 95.49Z" fill="black"/>
</svg>
