<svg width="166" height="76" viewBox="0 0 166 76" fill="none" xmlns="http://www.w3.org/2000/svg">
<path d="M82.83 8.3675e-05C67.4461 -0.0176846 52.2101 3.00223 37.9961 8.88656C23.7821 14.7709 10.8698 23.4038 0 34.2901L40.69 74.9201C51.8764 63.7708 67.0262 57.5102 82.82 57.5102C98.6138 57.5102 113.764 63.7708 124.95 74.9201L165.61 34.2601C154.746 23.3825 141.841 14.7568 127.635 8.87771C113.43 2.99858 98.2038 -0.0183179 82.83 8.3675e-05ZM94.95 37.7001C94.5323 38.1141 93.9681 38.3464 93.38 38.3464C92.7919 38.3464 92.2276 38.1141 91.81 37.7001L82.33 28.1601L72.84 37.6701C72.4241 38.0835 71.8614 38.3155 71.275 38.3155C70.6886 38.3155 70.1259 38.0835 69.71 37.6701C69.5041 37.4648 69.3407 37.2209 69.2292 36.9523C69.1178 36.6838 69.0604 36.3959 69.0604 36.1051C69.0604 35.8143 69.1178 35.5264 69.2292 35.2579C69.3407 34.9893 69.5041 34.7454 69.71 34.5401L80.77 23.4801C81.1842 23.0673 81.7452 22.8355 82.33 22.8355C82.9148 22.8355 83.4758 23.0673 83.89 23.4801L94.89 34.5401C95.1032 34.7426 95.274 34.9854 95.3926 35.2545C95.5112 35.5236 95.5751 35.8135 95.5807 36.1075C95.5863 36.4015 95.5334 36.6937 95.4251 36.9671C95.3168 37.2405 95.1553 37.4896 94.95 37.7001Z" fill="black"/>
</svg>
