<svg width="233" height="179" viewBox="0 0 233 179" fill="none" xmlns="http://www.w3.org/2000/svg">
<path fill-rule="evenodd" clip-rule="evenodd" d="M33.5629 8.04941C18.5419 20.6784 19.5569 16.4594 19.1919 67.7494L18.8839 110.999H11.8959C5.81088 110.999 4.59188 111.316 2.45488 113.454C-1.87212 117.78 -0.958118 119.734 10.8379 131.384L21.6759 142.089L19.3499 155.794C16.5499 172.285 16.4919 174.253 18.7499 176.192C22.4379 179.36 23.8929 179.031 38.1959 171.795L52.3449 164.636L66.5019 171.931C80.5969 179.194 80.6729 179.219 83.7589 177.624C85.4639 176.742 87.1389 175.136 87.4819 174.055C87.9949 172.44 86.1349 159.588 83.3869 145.749L82.8409 142.999H92.9969C102.809 142.999 103.245 142.904 105.827 140.207C107.297 138.671 109.267 135.971 110.204 134.207C113.898 127.25 119.916 127.67 124.578 135.211C128.979 142.327 130.279 142.952 140.75 142.977C147.475 142.993 149.998 143.34 149.993 144.249C149.99 144.937 149.093 150.674 148 156.999C145.554 171.156 145.514 174.271 147.75 176.192C151.477 179.393 152.903 179.067 167.125 171.759L181.16 164.547L195.037 171.736C207.461 178.172 209.219 178.819 211.819 177.912C216.92 176.134 217.203 173.782 214.314 157.24L211.717 142.378L221.884 132.513C227.475 127.088 232.312 121.602 232.633 120.324C234.232 113.954 230.549 110.999 221.011 110.999H215.116L214.808 67.7494C214.443 16.4594 215.458 20.6784 200.437 8.04941C192.317 1.22141 190.572 0.157412 188.933 1.03541C185.335 2.96041 186.804 5.61841 195.522 12.9604C200.209 16.9074 204.821 21.3224 205.772 22.7724C207.341 25.1664 207.5 29.3224 207.5 67.9544V110.499L203.786 110.807L200.072 111.115L193.012 97.0244C187.693 86.4054 185.343 82.7004 183.476 81.9904C178.391 80.0564 176.514 82.0004 169.017 96.9654L161.987 110.999H148.128C135.622 110.999 134.013 111.201 131.635 113.072C129.776 114.534 129 116.08 129 118.322C128.999 120.993 130.231 122.654 136.734 128.749L144.469 135.999H138.76C133.322 135.999 132.973 135.845 131.412 132.749C124.432 118.917 109.568 118.917 102.588 132.749C101.027 135.844 100.676 135.999 95.2489 135.999H89.5499L96.7009 128.749C104.313 121.031 104.829 120.068 103.679 115.714C102.626 111.724 99.6799 110.999 84.5189 110.999H71.1679L64.3339 97.2494C56.9339 82.3604 55.0469 80.3894 49.9049 82.1824C47.5429 83.0054 45.9059 85.4984 40.2789 96.8374C33.5029 110.493 33.4979 110.499 29.9999 110.499H26.4999V67.9544C26.4999 29.3224 26.6589 25.1664 28.2279 22.7724C29.1789 21.3224 33.7909 16.9074 38.4779 12.9604C47.1959 5.61841 48.6649 2.96041 45.0669 1.03541C43.4279 0.157412 41.6829 1.22141 33.5629 8.04941ZM45.4209 102.181C40.7079 111.638 37.8799 116.188 36.2549 116.929C34.9629 117.517 28.0769 117.999 20.9529 117.999C13.8289 117.999 7.99988 118.3 7.99988 118.669C7.99988 119.037 12.3149 123.388 17.5889 128.338C22.8629 133.287 27.5729 138.376 28.0559 139.646C28.6449 141.196 28.1059 146.597 26.4139 156.091C25.0289 163.866 24.0309 170.354 24.1979 170.507C24.3639 170.661 34.7519 159.05 47.2819 144.706L70.0639 118.625L67.6029 116.562C66.2499 115.427 62.2389 108.65 58.6899 101.502L52.2369 88.5044L45.4209 102.181ZM174.675 101.669C171.04 108.913 167.051 115.551 165.81 116.419C164.021 117.672 160.654 118.006 149.527 118.031L135.5 118.063L146.25 128.315C158.724 140.212 158.384 139.078 155 157.499C153.9 163.486 153 169.003 153 169.759C153 170.515 163.349 159.306 175.997 144.851L198.994 118.569L196.519 116.534C195.158 115.415 191.173 108.649 187.664 101.499L181.284 88.4994L174.675 101.669Z" fill="white"/>
</svg>
