<svg id="Слой_1" data-name="Слой 1" xmlns="http://www.w3.org/2000/svg" viewBox="0 0 203.7 204.5"><path d="M140.2,93.9a35.6,35.6,0,1,0-53.5,30.74v10a12.06,12.06,0,0,0,12.1,12h11.5a12.06,12.06,0,0,0,12-12.1v-9.72A35.58,35.58,0,0,0,140.2,93.9ZM114,137.3l-17.7,3.3a1,1,0,0,1-1.2-.9,1.15,1.15,0,0,1,.8-1.3l17.7-3.2a1,1,0,0,1,1.2.9A1.16,1.16,0,0,1,114,137.3Zm-.1-5.8-17.7,3.2a1.08,1.08,0,1,1-.5-2.1c.1.2.2.2.2.1l17.7-3.3a1.06,1.06,0,1,1,.3,2.1Z" transform="translate(-0.5 0.15)"/><rect x="151.3" y="95.27" width="52.4" height="8.15" rx="3.58"/><rect y="100.93" width="52.4" height="8.15" rx="3.58"/><rect x="78.65" y="21.97" width="52.4" height="8.15" rx="3.58" transform="translate(78.3 131.05) rotate(-90)"/><rect x="78.65" y="174.07" width="52.4" height="8.15" rx="3.58" transform="translate(-73.8 283.15) rotate(-90)"/></svg>