<svg id="Layer_1" data-name="Layer 1" xmlns="http://www.w3.org/2000/svg" viewBox="0 0 38.97 34.98"><path class="cls-1" d="M10.23,31.13a15.65,15.65,0,0,1-3-3.18H5.5A5.5,5.5,0,0,1,0,22.45V12.53A5.5,5.5,0,0,1,5.5,7H7.19A14.39,14.39,0,0,1,10.1,3.87,17.25,17.25,0,0,1,21.48,0,1.5,1.5,0,0,1,23,1.51v32a1.5,1.5,0,0,1-1.5,1.5A17.35,17.35,0,0,1,10.23,31.13ZM3,12.53v9.92A2.49,2.49,0,0,0,5.5,25H8.05a1.45,1.45,0,0,1,.76.21,1.51,1.51,0,0,1,.55.57,9.1,9.1,0,0,0,.63.9,13.73,13.73,0,0,0,2.14,2.17A14.23,14.23,0,0,0,20,31.92V3.06a14,14,0,0,0-8,3.11,12.33,12.33,0,0,0-2,2.16,6.52,6.52,0,0,0-.57.87,1.39,1.39,0,0,1-.55.6,1.47,1.47,0,0,1-.79.22H5.5a2.57,2.57,0,0,0-1.77.74A2.55,2.55,0,0,0,3,12.53ZM30,34.1A1.53,1.53,0,0,1,29.54,33,1.5,1.5,0,0,1,30,32,20.5,20.5,0,0,0,30,3a1.44,1.44,0,0,1-.37-.48,1.38,1.38,0,0,1-.14-.59,1.52,1.52,0,0,1,.1-.6,1.47,1.47,0,0,1,.34-.51,1.29,1.29,0,0,1,.5-.33A1.42,1.42,0,0,1,31,.38a1.75,1.75,0,0,1,.6.14,1.58,1.58,0,0,1,.48.37,23.49,23.49,0,0,1,0,33.21,1.52,1.52,0,0,1-2.12,0Zm-3.66-5.66A1.58,1.58,0,0,1,26,28a1.5,1.5,0,0,1,.33-1.64A12.47,12.47,0,0,0,29,22.27,12.48,12.48,0,0,0,26.32,8.66a1.49,1.49,0,0,1-.46-1.06A1.62,1.62,0,0,1,26,7a1.56,1.56,0,0,1,.33-.5,1.58,1.58,0,0,1,1.07-.44,1.63,1.63,0,0,1,.58.13,1.46,1.46,0,0,1,.49.33,15.5,15.5,0,0,1,0,21.9,1.63,1.63,0,0,1-.49.33,1.6,1.6,0,0,1-.57.11,1.66,1.66,0,0,1-.58-.11A1.58,1.58,0,0,1,26.32,28.44Z" transform="translate(0 0)"/></svg>