<svg width="547" height="399" viewBox="0 0 547 399" fill="none" xmlns="http://www.w3.org/2000/svg">
<path fill-rule="evenodd" clip-rule="evenodd" d="M0.0423889 193.986L274.086 0.59375L546.926 205.26L265.884 398.514L0.0423889 193.986ZM257.404 71.3652C238.07 73.3652 215.27 82.0312 198.47 93.7656C189.27 100.166 181.27 106.965 182.204 107.631C182.47 108.031 188.737 110.166 196.07 112.564C245.137 128.699 294.337 154.299 335.937 185.631C352.604 198.031 362.604 206.699 381.137 224.166C389.004 231.766 396.07 237.898 396.737 237.898C400.204 237.898 403.67 206.299 401.937 189.098C399.004 156.832 386.204 130.166 363.004 107.631C346.737 91.7656 330.204 81.8984 309.67 76.0312C299.537 73.0977 276.604 69.6309 270.47 70.0312L269.086 70.1641L268.806 70.1914C266.341 70.4297 261.872 70.8574 257.404 71.3652ZM143.004 201.896C142.87 177.764 146.47 162.164 156.737 141.896C159.004 137.496 161.137 133.896 161.537 133.896C161.937 133.896 169.004 135.896 177.137 138.43C246.47 159.496 309.404 197.098 363.137 249.23L383.67 269.23L377.537 277.631C363.537 296.564 345.137 311.098 323.137 320.43C305.137 328.164 294.204 330.297 272.07 330.297C256.07 330.297 251.537 329.764 240.07 326.697C194.337 314.564 158.604 278.963 146.604 233.23C143.537 222.029 143.004 217.098 143.004 201.896Z" fill="white"/>
</svg>
