<svg id="Layer_1" data-name="Layer 1" xmlns="http://www.w3.org/2000/svg" viewBox="0 0 35 39.73"><path d="M14.61,20l1.58,2.32h2.92L20.46,20,19,17.51H16.11Zm1.21,18.67V33.4L12.89,35l-1.49-.85V32.34l4.34-2.47V26.42l-3.15,2V24.79l-3,1.74v5l-1.65,1-1.39-.92V28.27L2,30.85,0,30v-2.1L4.8,25.3l-3-1.5V21.88L3.5,21l4.31,2.53,3-1.72-.08-.06L7.67,20l3-1.85-3-1.72L3.35,18.91,1.74,18.1V16.19l2.91-1.64L0,12V9.93L1.79,9l4.58,2.65V8.29l1.39-.93,1.68,1V13.4l3.09,1.74V11.57l3.23,1.74V9.86L11.39,7.39V5.56l1.5-.87,2.93,1.65V1.1L17.5,0l1.68,1.1V6.34l3-1.69,1.53,1V7.31l-4.5,2.55v3.45l3.08-1.88v3.76l3.17-1.73V8.06L27,7.35l1.6.71v3.45L33.35,9,35,10v1.95l-4.61,2.62,2.89,1.62V18l-1.5.82-4.42-2.61L24.3,18.18l3,1.84-3.05,1.76,3.15,1.65L31.78,21l1.43,1v1.79l-2.78,1.56,4.42,2.62V30L33,30.85l-4.34-2.47v3.27l-1.56.87-1.53-.87v-5l-3.22-1.82V28.3l-3.08-1.88v3.45l4.36,2.47v1.95l-1.5.75-2.92-1.65v5.26l-1.68,1.08Z" transform="translate(0 0)"/></svg>