<svg width="172" height="256" viewBox="0 0 172 256" fill="none" xmlns="http://www.w3.org/2000/svg">
<path fill-rule="evenodd" clip-rule="evenodd" d="M145.5 1.83748C142.69 3.55148 136.226 11.6495 137.101 12.3585C140.882 15.4185 162.273 29.9995 162.983 29.9995C164.658 29.9995 169.981 19.6595 169.991 16.3865C169.998 13.9335 168.936 12.2775 164.982 8.57948C160.16 4.06848 153.145 0.0634817 150 0.0254817C149.175 0.0154817 147.15 0.830482 145.5 1.83748ZM120.007 8.77448C120.011 9.17348 121.549 10.5445 123.425 11.8225C126.83 14.1405 126.834 14.1525 125.36 17.6795C123.771 21.4825 123.354 29.3695 124.542 33.1615C126.15 38.2975 131.007 43.8245 136.176 46.3995C144.528 50.5615 154.022 49.5535 160.563 43.8105L164.071 40.7305L167.732 43.3355C169.745 44.7675 171.588 45.7445 171.827 45.5065C172.065 45.2675 169.935 42.3875 167.092 39.1065C160.986 32.0575 137.639 15.0185 129.838 11.9175C126.902 10.7505 123.488 9.40248 122.25 8.92248C121.012 8.44148 120.003 8.37548 120.007 8.77448ZM99.4999 44.5345C94.5499 45.8625 85.1869 48.1185 78.6929 49.5485C72.1989 50.9795 65.4019 52.7695 63.5879 53.5275C58.7389 55.5535 54.6259 60.8085 48.4989 72.8085C45.4959 78.6885 41.0059 87.2925 38.5199 91.9275C36.0339 96.5625 33.9999 101.558 33.9999 103.029C33.9999 106.359 37.7479 112.059 41.0299 113.72C44.3569 115.403 51.0869 115.327 53.5849 113.577C54.7009 112.795 60.0659 104.092 65.5079 94.2365L75.4009 76.3165L81.4149 74.7055C84.7219 73.8195 87.6059 73.2725 87.8239 73.4905C88.8089 74.4745 60.1569 128.438 53.6029 137.945C30.4079 171.586 5.55989 214.656 2.22389 226.999C0.468885 233.492 -0.524114 246.897 0.666886 248.016C1.12489 248.447 12.8619 249.122 26.7499 249.517L51.9999 250.235V245.14C51.9999 239.353 50.3959 237.676 43.6889 236.45C40.3429 235.838 39.8089 236.013 39.3219 237.876C39.0169 239.044 38.0949 239.999 37.2749 239.999C36.1929 239.999 35.9509 239.329 36.3949 237.56C36.7319 236.219 36.5249 234.824 35.9359 234.46C35.3439 234.094 34.6199 234.737 34.3159 235.898C34.0139 237.054 33.1889 237.999 32.4829 237.999C26.9539 237.999 42.9519 208.02 70.2509 167.224L83.1489 147.949L87.1859 151.146C91.0269 154.189 108.58 173.514 110.326 176.623C111.033 177.881 101.599 192.052 88.6269 209.214C87.9149 210.156 85.2219 211.832 82.6439 212.937C80.0669 214.042 77.6969 215.626 77.3779 216.457C76.9949 217.454 82.4769 224.429 93.4839 236.951L110.17 255.933L112.972 253.862C117.977 250.161 118.592 247.799 115.843 242.836C113.955 239.427 112.878 238.499 110.809 238.499C107.237 238.499 106.386 237.398 108.914 236.045C111.818 234.491 111.538 232.826 108.5 233.588C106.609 234.063 106 233.824 106 232.607C106 231.723 106.675 230.999 107.5 230.999C108.325 230.999 109 230.121 109 229.049C109 227.976 109.671 226.723 110.491 226.264C111.312 225.805 114.576 222.07 117.745 217.964C120.914 213.858 127.295 205.774 131.924 199.999C146.657 181.619 147.663 179.257 144.098 171.408C142.109 167.029 127.842 149.732 117.275 138.891L110.835 132.283L114.918 124.162C118.67 116.7 119.183 116.113 121.25 116.918C122.488 117.4 128.712 119.433 135.083 121.435C144.911 124.524 147.109 124.909 149.583 123.971C159.443 120.235 161.661 108.625 153.669 102.58C151.926 101.262 146 98.7185 140.5 96.9275C135 95.1365 130.38 93.5875 130.233 93.4845C130.086 93.3825 132.293 88.1685 135.138 81.8985C141.504 67.8705 142.054 62.1795 137.753 54.8405C130.407 42.3065 119.134 39.2685 99.4999 44.5345ZM109.763 87.4625L94.1449 118.716L98.7409 122.108C101.268 123.973 104.172 126.124 105.195 126.889C106.217 127.653 107.178 128.103 107.329 127.889C107.481 127.674 113.769 113.856 121.304 97.1815C131.128 75.4435 134.839 66.2065 134.421 64.5415C133.804 62.0825 129.558 57.6605 126.94 56.7505C125.731 56.3305 121.871 63.2315 109.763 87.4625ZM39.9509 94.7925C35.1949 102.822 36.9579 109.51 44.4869 111.995C49.5769 113.674 52.6619 111.747 56.6969 104.367L60.0499 98.2365L55.7749 96.5155C53.4239 95.5685 49.3949 93.9605 46.8229 92.9405L42.1459 91.0865L39.9509 94.7925ZM138.528 109.069C136.433 113.535 135.134 117.488 135.62 117.919C136.104 118.348 138.476 119.463 140.891 120.397C146.412 122.533 150.173 121.771 153.473 117.849C156.356 114.423 156.713 110.462 154.434 107.208C152.802 104.879 146.094 100.999 143.698 100.999C142.937 100.999 140.611 104.631 138.528 109.069Z" fill="white"/>
</svg>
