<svg width="513" height="330" viewBox="0 0 513 330" fill="none" xmlns="http://www.w3.org/2000/svg">
<path fill-rule="evenodd" clip-rule="evenodd" d="M44.5001 1.00315C28.9941 3.40115 15.3291 12.8431 6.9821 26.9291C-0.387897 39.3671 0.000103034 31.6901 0.000103034 164.999C0.000103034 298.308 -0.387897 290.631 6.9821 303.069C13.4681 314.015 22.5921 321.815 33.8951 326.078C41.1081 328.798 49.1391 329.954 61.0021 329.979L70.5041 329.999L80.8851 293.249C86.5951 273.037 92.0881 254.571 93.0921 252.215C96.4121 244.424 83.2721 244.999 258 244.999C430.272 244.999 419.71 244.6 422.417 251.213C423.156 253.02 427.724 271.487 432.566 292.249L441.371 329.999L450.936 329.979C472.511 329.934 485.347 325.416 496.993 313.771C502.068 308.696 508.439 298.042 510.014 291.999C510.659 289.524 511.595 286.718 512.094 285.763C513.15 283.739 513.362 42.3031 512.307 43.3591C511.926 43.7401 511.008 41.6781 510.267 38.7751C507.482 27.8591 497.017 14.0501 487.12 8.23115C484.71 6.81515 479.76 4.49615 476.12 3.07815L469.5 0.499147L259.5 0.365145C144 0.291145 47.2501 0.578145 44.5001 1.00315ZM52.0001 56.4991V69.9991H256H460V56.4991V42.9991H256H52.0001V56.4991ZM0.484103 164.999C0.484103 231.824 0.604103 259.161 0.750103 225.749C0.896103 192.336 0.896103 137.661 0.750103 104.249C0.604103 70.8361 0.484103 98.1741 0.484103 164.999ZM40.0001 157.499V216.999H67.5931H95.1851L90.4621 211.749C69.3031 188.229 61.3771 156.844 69.1251 127.263C71.2591 119.115 76.4991 106.916 79.9411 102.083C81.0731 100.492 82.0001 98.9221 82.0001 98.5951C82.0001 98.2671 72.5501 97.9991 61.0001 97.9991H40.0001V157.499ZM150.5 98.6971C130.788 101.311 114.121 115.357 107.423 134.999C106.107 138.859 105.548 143.331 105.548 149.999C105.548 164.67 110.263 176.045 120.652 186.433C141.014 206.795 172.554 206.651 193.103 186.102C205.099 174.107 210.027 159.673 207.904 142.76C204.535 115.934 177.426 95.1251 150.5 98.6971ZM232 98.6382C232 98.9902 233.341 101.457 234.98 104.121C246.771 123.283 250.421 150.033 244.424 173.333C241.113 186.2 231.768 202.91 222.62 212.322L218.075 216.999H256.202H294.33L289.574 212.311C280.47 203.335 270.961 186.488 267.576 173.333C261.579 150.033 265.229 123.283 277.02 104.121C278.659 101.457 280 98.9902 280 98.6382C280 98.2872 269.2 97.9991 256 97.9991C242.8 97.9991 232 98.2872 232 98.6382ZM346 99.0831C336.677 100.699 326.621 106.172 319.037 113.755C308.578 124.214 303.842 135.511 303.842 149.999C303.842 164.487 308.578 175.784 319.037 186.243C339.628 206.834 371.222 206.731 391.755 186.006C399.293 178.396 404.55 168.067 406.163 157.691C411.493 123.408 380.399 93.1171 346 99.0831ZM430 98.5951C430 98.9221 430.927 100.492 432.059 102.083C435.514 106.934 440.744 119.126 442.898 127.351C450.638 156.901 442.714 188.209 421.538 211.749L416.815 216.999H444.407H472V157.499V97.9991H451C439.45 97.9991 430 98.2671 430 98.5951ZM149.344 114.04C136.014 116.678 124.889 127.465 121.382 141.153C114.851 166.648 138.114 191.249 163.747 185.954C183.553 181.862 196.485 163.216 192.968 143.822C191.573 136.131 189.069 131.114 183.736 125.329C174.576 115.391 162.519 111.434 149.344 114.04ZM346.5 114.351C338.752 116.359 333.755 119.392 328.224 125.445C321.576 132.718 318.786 139.978 318.786 149.999C318.786 160.023 321.576 167.279 328.229 174.559C341.474 189.051 362.436 190.684 378.448 178.471C385.872 172.809 392 159.933 392 149.999C392 140.065 385.872 127.189 378.448 121.527C369.417 114.639 356.546 111.748 346.5 114.351ZM146.5 126.966C142.109 129.077 138.404 131.765 139.073 132.354C139.308 132.561 141.377 133.899 143.671 135.327C148.632 138.416 149.786 141.151 147.56 144.548C145.519 147.662 142.782 147.647 137.4 144.493C135.049 143.115 132.925 142.328 132.68 142.743C131.521 144.713 130.945 150.189 131.555 153.442L132.233 157.053L136.544 154.526C141.72 151.493 145.074 151.318 147.464 153.959C150.329 157.125 148.751 160.586 142.992 163.762C140.262 165.267 138.022 166.806 138.014 167.181C137.993 168.203 143.403 171.852 147.442 173.539L151 175.026V169.467C151 164.898 151.437 163.471 153.455 161.454C156.391 158.517 157.099 158.449 160.025 160.818C161.741 162.208 162.416 164.085 162.886 168.775L163.5 174.914L167.5 173.098C169.7 172.099 172.4 170.261 173.5 169.013C175.443 166.809 175.447 166.713 173.629 165.622C165.1 160.502 163.674 158.346 165.972 154.051C167.488 151.218 171.704 151.416 177.374 154.584L182 157.17V151.166C182 141.941 181.6 141.457 176.455 144.473C171.293 147.498 168.895 147.646 166.575 145.081C163.79 142.005 164.977 138.848 170.241 135.33L174.982 132.162L171.914 129.58C170.227 128.161 168.431 126.999 167.923 126.999C167.415 126.999 167 128.992 167 131.428C167 136.42 165.126 138.999 161.5 138.999C157.63 138.999 156 136.459 156 130.428C156 125.167 155.915 125 153.25 125.021C151.738 125.033 148.7 125.908 146.5 126.966ZM344.5 126.88C342.3 127.89 339.68 129.639 338.677 130.767C336.906 132.759 336.913 132.837 338.932 133.478C342.493 134.608 347 139.052 347 141.433C347 144.043 344.132 146.999 341.599 146.999C340.641 146.999 337.916 145.862 335.545 144.473C330.452 141.488 330 141.986 330 150.581C330 156.683 330.693 157.093 335.774 153.995C342.017 150.189 347.478 151.999 346.822 157.656C346.521 160.254 345.133 161.563 338.371 165.622C336.553 166.713 336.557 166.808 338.498 168.974C340.573 171.29 343.887 173.248 347.75 174.44C349.925 175.111 350 174.915 350 168.589C350 162.673 350.245 161.884 352.557 160.37C354.98 158.782 355.256 158.799 357.807 160.699C360.143 162.438 360.539 163.517 360.798 168.845L361.095 174.986L364.606 173.519C368.605 171.848 374.007 168.198 373.986 167.181C373.978 166.806 371.738 165.267 369.008 163.762C363.249 160.586 361.671 157.125 364.536 153.959C366.926 151.318 370.28 151.493 375.456 154.526L379.767 157.053L380.411 153.622C380.964 150.675 380.265 141.999 379.474 141.999C379.326 141.999 377.246 143.119 374.852 144.487C369.276 147.675 366.484 147.667 364.381 144.458C362.13 141.022 363.623 137.901 368.95 134.907C371.198 133.643 372.88 132.14 372.689 131.565C372.497 130.99 369.901 129.243 366.92 127.683L361.5 124.845L361 130.268C360.416 136.605 358.792 138.999 355.078 138.999C351.097 138.999 350 137.228 350 130.799C350 127.609 349.663 125.009 349.25 125.021C348.837 125.033 346.7 125.869 344.5 126.88ZM108.101 271.749C102.095 292.185 92.0001 328.051 92.0001 328.953C92.0001 329.677 142.504 329.999 256 329.999C393.297 329.999 420 329.778 420 328.644C420 326.935 405.993 266.797 405.354 265.763C405.094 265.343 338.553 264.999 257.483 264.999H110.085L108.101 271.749ZM144.615 287.087C141.517 289.524 139 293.989 139 297.048C139 303.401 144.855 308.999 151.5 308.999C158.145 308.999 164 303.401 164 297.048C164 290.902 157.876 284.999 151.5 284.999C148.724 284.999 146.357 285.717 144.615 287.087ZM358.756 286.754C355.762 288.61 353 293.526 353 296.999C353 300.562 355.816 305.459 358.92 307.293C360.509 308.231 363.697 308.999 366.004 308.999C369.428 308.999 370.815 308.384 373.541 305.658C379.403 299.796 379.342 293.944 373.36 288.303C370.531 285.634 369.054 285.004 365.679 285.026C363.38 285.04 360.265 285.818 358.756 286.754Z" fill="white"/>
</svg>
