<svg width="271" height="330" viewBox="0 0 271 330" fill="none" xmlns="http://www.w3.org/2000/svg">
<path d="M113.048 0.262048C111.463 0.416741 109.297 0.726129 108.214 0.919496C104.115 1.73164 101.64 2.31174 101.446 2.50511C101.253 2.77582 98.4298 3.62664 96.7282 3.9747C96.1094 4.09072 95.6453 4.32276 95.6453 4.51612C95.6453 4.70949 95.4133 4.86419 95.1039 4.86419C94.7945 4.86419 93.4022 5.36694 92.0487 6.02439C90.6564 6.64316 89.3415 7.18459 89.1482 7.18459C88.9161 7.18459 88.6841 7.30061 88.6067 7.45531C88.5681 7.64867 87.8333 8.07408 86.9825 8.46081C85.2035 9.27296 79.5572 12.9856 78.3583 14.1071C77.8942 14.5712 77.3528 14.9193 77.1981 14.9193C76.734 14.9193 68.9606 22.886 68.9606 23.3501C68.9606 23.5821 68.8059 23.8142 68.6512 23.8915C68.2645 24.0462 65.3253 27.9909 64.9386 28.8417C64.8226 29.1511 64.1651 30.2726 63.5464 31.3555C62.8889 32.3997 62.2701 33.5599 62.1541 33.8693C61.9221 34.4494 61.0713 36.5377 60.4525 37.93C60.2591 38.3554 59.8337 39.5543 59.4856 40.6371C59.0989 41.6813 58.6735 42.9188 58.5188 43.3443C58.1708 44.1951 57.9387 45.2006 57.2039 49.1453C56.8945 50.6149 56.5851 52.1231 56.4691 52.4325C56.3531 52.7419 56.0437 55.0236 55.8117 57.4987C55.1542 63.5705 55.3089 63.9959 60.1431 68.7914C62.2315 70.9184 63.9331 72.7747 63.9331 72.9294C63.9331 73.1228 64.1651 73.5095 64.4358 73.7802C65.132 74.515 67.027 78.4597 67.027 79.1558C67.027 79.4652 67.259 79.968 67.5297 80.2387C67.8778 80.5868 67.9938 82.8685 67.9938 88.9789C67.9938 96.7909 68.0325 97.2937 68.7673 97.8351C69.1927 98.1832 69.8115 98.4539 70.1208 98.4539C70.4302 98.4926 72.1705 98.6473 73.9882 98.8406C77.8555 99.1887 81.1428 98.7633 83.1925 97.6417C85.2421 96.4815 85.5902 96.1335 85.5902 95.244C85.5902 94.5865 84.1206 92.1888 83.2698 91.4927C82.767 91.0673 79.9052 86.1557 78.861 83.9513C78.2809 82.6751 77.6622 81.3602 77.5075 81.0508C77.3528 80.7415 76.9274 79.4266 76.5406 78.1503C76.1926 76.8741 75.6898 75.2112 75.4191 74.4764C75.1097 73.5869 74.955 70.0289 74.955 63.9185C74.955 56.2225 74.839 54.6369 74.3749 54.3275C74.0269 54.0955 72.5573 54.0568 70.7009 54.2115C64.3198 54.7916 63.6624 54.2502 64.7839 49.4547C65.0546 48.3331 65.4027 47.405 65.5574 47.405C65.7507 47.405 65.8668 47.0956 65.8668 46.7088C65.8668 45.8967 68.0711 40.0183 68.6126 39.4769C68.8059 39.2835 68.9606 38.8195 68.9606 38.4714C68.9606 38.0847 69.0767 37.7366 69.27 37.6593C69.4247 37.5819 69.9275 36.7698 70.4302 35.8029C71.4357 33.8306 72.1319 32.593 72.4799 32.3223C72.5959 32.2063 73.0213 31.5489 73.4081 30.8527C73.8335 30.1953 74.2976 29.6152 74.4523 29.6152C74.607 29.6152 74.7616 29.3831 74.7616 29.1124C74.7616 28.8417 75.4578 27.8749 76.3086 26.9854C77.1594 26.1346 77.8555 25.2451 77.8555 25.0904C77.8942 24.9357 78.5903 24.1622 79.4411 23.4274C80.2919 22.6926 81.8002 21.3391 82.8057 20.4109C83.8112 19.5214 84.7394 18.7866 84.8941 18.7866C85.0488 18.7866 85.5902 18.4386 86.093 18.0132C87.0211 17.201 92.8608 13.7591 93.3249 13.7591C93.4409 13.7591 94.4077 13.3723 95.4906 12.8696C96.5348 12.3668 98.4298 11.6707 99.706 11.2453C100.982 10.8586 102.374 10.4332 102.8 10.2398C103.844 9.85306 105.236 9.54367 109.761 8.80888C114.905 7.99673 123.103 7.99673 127.358 8.80888C129.175 9.19561 131.264 9.58234 131.998 9.73704C132.733 9.85306 133.545 10.1238 133.739 10.2785C133.971 10.4718 134.783 10.7039 135.595 10.8586C136.368 11.0133 137.026 11.284 137.026 11.4773C137.026 11.6707 137.335 11.8254 137.722 11.8254C138.921 11.8254 147.854 16.6983 147.854 17.317C147.854 17.5104 148.086 17.6264 148.357 17.6264C148.667 17.6264 149.324 18.0132 149.827 18.4386C150.33 18.9026 151.528 19.9082 152.495 20.6816C154.7 22.4993 156.749 24.549 156.749 25.013C156.749 25.3611 152.766 27.3721 151.026 27.8749C149.711 28.2616 147.854 29.9632 147.854 30.8141C147.854 31.2008 148.009 31.5489 148.202 31.5489C148.396 31.5489 148.667 31.8582 148.821 32.2063C148.937 32.593 149.672 33.6372 150.484 34.488C152.573 36.8084 153.385 37.7753 154.197 39.0902C154.622 39.7089 155.241 40.5211 155.55 40.9078C155.898 41.2559 156.595 42.3774 157.136 43.4216C157.677 44.4271 158.18 45.3553 158.335 45.4713C158.567 45.7033 159.611 47.9851 160.114 49.532C161.119 52.4712 161.932 57.3054 162.512 63.8412C162.898 67.8632 163.324 69.4875 164.252 70.4543C164.909 71.0731 166.495 71.1504 167.501 70.6477C167.849 70.4543 169.318 69.7195 170.788 69.0234C172.219 68.3273 173.379 67.6312 173.379 67.4378C173.379 67.2831 173.572 67.1284 173.804 67.1284C174.036 67.1284 175.158 66.2002 176.318 65.04C177.478 63.8798 178.406 62.7583 178.406 62.5263C178.406 62.2942 178.561 62.1009 178.793 62.1009C178.987 62.1009 179.257 61.6755 179.412 61.134C179.528 60.5926 179.799 60.1672 179.953 60.1672C180.108 60.1672 180.34 59.8578 180.456 59.4711C180.572 59.123 180.998 57.8468 181.423 56.6866C182.777 52.9739 183.202 49.0679 182.66 45.8193C181.694 39.9797 179.992 36.6924 175.583 31.9743C169.163 25.1677 161.313 17.5877 157.91 14.9193C156.943 14.1845 155.744 13.179 155.202 12.7149C154.661 12.2121 154.12 11.8254 153.926 11.8254C153.771 11.8254 152.689 11.1293 151.528 10.2785C150.368 9.42765 149.285 8.73153 149.053 8.73153C148.86 8.73153 148.628 8.61551 148.551 8.42214C148.396 8.07408 141.976 4.86419 141.357 4.86419C141.087 4.86419 140.893 4.67082 140.893 4.47745C140.893 4.24541 140.506 4.09072 140.004 4.09072C139.501 4.09072 138.96 3.93602 138.727 3.74266C138.534 3.54929 137.335 3.12388 136.059 2.73715C134.783 2.38909 133.236 1.92501 132.578 1.69296C128.015 0.223374 119.623 -0.3954 113.048 0.262048Z" fill="white"/>
<path d="M212.826 2.89227C210.08 3.279 205.864 4.98063 205.864 5.71543C205.864 5.90879 205.671 6.02481 205.478 6.02481C204.859 6.02481 201.997 8.77063 201.997 9.3894C201.997 9.66012 201.842 9.89216 201.649 9.89216C201.34 9.89216 199.522 13.3341 198.71 15.4998C197.704 18.0909 197.511 23.1958 197.82 37.2729C198.014 45.317 198.284 52.2009 198.478 52.6263C199.135 54.0959 199.87 61.5212 199.87 66.7421C199.87 74.8248 198.826 79.3883 195.075 87.239C193.992 89.5207 191.401 94.0068 190.666 94.819C190.395 95.0897 189.583 96.1339 188.848 97.1394C186.992 99.6145 180.263 106.576 179.683 106.576C179.451 106.576 179.18 106.692 179.102 106.846C179.064 107.04 178.29 107.465 177.44 107.891C175.235 108.896 163.208 109.244 122.253 109.438C103.999 109.554 88.8774 109.747 88.6067 109.902C88.3359 110.056 86.8277 110.327 85.2034 110.482C81.8001 110.83 78.2809 111.41 76.1151 112.029C73.0599 112.879 70.7009 113.692 70.3141 114.001C70.1208 114.156 69.734 114.31 69.4246 114.31C68.7672 114.31 62.3474 117.404 61.69 118.062C61.4192 118.332 60.9165 118.564 60.6071 118.564C60.2977 118.564 60.0657 118.719 60.0657 118.951C60.0657 119.145 59.795 119.338 59.4856 119.338C59.1762 119.338 58.9055 119.454 58.9055 119.647C58.9055 120.189 56.3143 121.349 55.3862 121.194C54.342 121.078 53.9553 119.763 54.574 118.41C55.0381 117.366 56.1983 112.415 56.1983 111.487C56.1983 111.139 56.353 110.52 56.5851 110.134C56.7784 109.786 57.1265 108.587 57.3585 107.543C58.2093 103.753 58.4801 102.476 59.0988 99.8079C60.2977 94.5869 60.4911 93.5814 60.8778 90.6423C61.1872 88.5539 61.1872 86.8523 60.8778 85.0346C60.259 80.9739 59.9883 79.891 59.6789 79.891C59.5242 79.891 59.2535 79.427 59.0988 78.8082C58.5187 76.4104 54.6127 72.3497 51.5575 70.9188C48.3863 69.4879 46.5686 69.1012 42.856 69.0625C36.4362 69.0625 33.1876 70.6094 28.7402 75.8303C27.1546 77.6867 24.4861 83.681 24.4861 85.3053C24.4861 85.7307 24.3314 86.3882 24.1381 86.7749C23.9447 87.123 23.2486 89.8688 22.5524 92.8466C21.8563 95.8245 21.1602 98.6863 21.0055 99.2278C20.8121 99.7692 20.3867 101.393 20.0773 102.902C19.4586 105.57 19.1492 106.769 18.337 109.863C18.105 110.714 17.4089 113.653 16.7514 116.437C15.3979 122.122 14.9338 124.056 14.431 125.719C14.2377 126.338 13.9669 127.653 13.8509 128.62C13.6962 129.586 13.5029 130.631 13.3482 130.94C13.0775 131.675 12.1493 135.426 11.8786 136.934C11.7626 137.553 11.5305 138.443 11.3372 138.868C11.1825 139.293 10.7957 140.686 10.5637 141.962C10.293 143.238 9.94491 144.901 9.75154 145.636C7.7792 153.603 7.54716 156.348 8.43665 160.641C9.48083 165.862 11.7626 169.536 15.7846 172.514C16.6354 173.133 17.4089 173.79 17.5249 173.906C17.7183 174.177 19.5359 175.028 21.9337 175.956C24.3701 176.961 29.7457 176.768 33.3037 175.569C34.9279 175.028 36.6682 174.332 37.1323 174.022C37.5964 173.713 38.2539 173.481 38.5632 173.481C38.8726 173.481 39.182 173.365 39.2594 173.171C39.3367 173.017 40.1489 172.514 41.1157 172.011C42.0825 171.547 44.0935 170.464 45.5631 169.613C47.0714 168.763 49.0437 167.68 50.0106 167.254C50.9774 166.79 51.8282 166.326 51.9442 166.171C52.0603 166.055 53.3752 165.321 54.8448 164.547C62.1154 160.835 64.8998 159.365 65.0932 159.172C65.2866 158.978 67.8004 157.586 70.7009 156.116C71.3196 155.768 71.9384 155.42 72.0544 155.304C72.1704 155.188 73.7174 154.337 75.4964 153.409C77.7007 152.288 79.2477 151.708 80.2532 151.708C81.8001 151.708 82.883 152.326 82.883 153.216C82.883 153.525 83.0377 153.757 83.1924 153.757C83.3857 153.757 83.8498 155.459 84.1979 157.509C84.5846 159.597 85.0487 161.917 85.2034 162.652C85.3968 163.387 85.7448 165.05 85.9769 166.326C86.2089 167.602 86.557 169.343 86.7503 170.193C86.9437 171.044 87.3691 172.939 87.6785 174.448C87.9879 175.917 88.4133 177.851 88.6453 178.702C88.8387 179.552 89.3028 181.563 89.6508 183.149C90.6177 187.558 90.9271 188.911 91.5845 191.851C92.474 195.641 92.7834 197.226 93.3248 200.552C94.0596 205.077 95.2198 207.552 96.9601 208.48C97.8883 208.983 98.7778 209.099 101.059 208.944C104.501 208.674 109.452 207.939 110.534 207.513C110.96 207.32 112.352 207.088 113.628 206.972C114.905 206.895 117.689 206.585 119.816 206.314C125.037 205.657 146.423 205.657 151.528 206.314C157.6 207.088 159.804 207.436 163.517 208.093C170.324 209.292 174.114 210.104 175.003 210.607C175.39 210.839 176.937 211.033 178.445 211.033C182.158 211.11 182.506 210.723 182.351 206.856C182.312 205.232 182.119 203.723 181.926 203.491C181.732 203.259 181.462 202.022 181.307 200.745C181.152 199.469 180.881 198.232 180.727 198.038C180.572 197.806 180.34 196.878 180.224 195.911C180.108 194.944 179.721 192.856 179.373 191.271C179.025 189.685 178.561 187.597 178.368 186.63C178.213 185.663 177.788 183.574 177.44 181.989C177.091 180.403 176.666 178.199 176.473 177.077C176.241 175.956 175.893 174.602 175.699 174.061C175.467 173.481 175.312 172.553 175.312 171.934C175.312 171.315 175.158 170.696 174.926 170.58C174.732 170.464 174.539 169.884 174.539 169.304C174.539 168.724 174.191 166.868 173.727 165.166C173.301 163.464 172.683 161.028 172.373 159.752C172.064 158.475 171.6 156.735 171.368 155.884C171.136 155.034 170.865 152.868 170.788 151.127C170.633 148.382 170.71 147.763 171.329 147.105C172.876 145.326 175.893 144.901 182.08 145.597C185.213 145.907 191.13 145.094 194.456 143.818C195.925 143.277 197.24 142.697 197.356 142.542C197.472 142.387 197.936 142.155 198.439 142.001C198.903 141.846 199.29 141.536 199.29 141.343C199.29 141.15 199.522 140.995 199.831 140.995C200.566 140.995 207.45 134.227 208.417 132.564C208.804 131.907 209.229 131.327 209.384 131.327C209.538 131.327 209.732 131.017 209.887 130.631C210.08 130.012 210.621 129.084 211.395 128.078C211.549 127.846 212.903 125.912 214.373 123.785C215.842 121.658 217.196 119.725 217.35 119.531C217.505 119.299 218.433 118.1 219.4 116.824C220.328 115.548 221.411 114.156 221.798 113.769C222.185 113.344 222.494 112.879 222.494 112.763C222.494 112.609 222.842 112.067 223.306 111.565C224.892 109.708 225.433 109.051 226.748 107.349C229.069 104.371 229.223 104.178 230.538 102.708C231.196 101.896 231.776 101.045 231.776 100.813C231.776 100.581 231.93 100.388 232.085 100.388C232.549 100.388 235.14 95.7471 235.488 94.3936C235.643 93.7361 235.875 93.04 236.03 92.8466C236.223 92.6146 236.61 90.7583 236.919 88.7086C237.383 85.7694 237.461 84.1451 237.151 81.3606C236.803 77.7253 236.3 66.7808 235.643 46.0518C234.986 26.6764 234.057 15.8865 232.936 14.765C232.704 14.533 232.549 14.1462 232.549 13.8755C232.549 13.3341 229.649 8.49991 228.875 7.76512C224.93 3.8591 219.091 2.1188 212.826 2.89227Z" fill="white"/>
<path d="M114.943 27.835C114.789 27.9897 113.59 28.2604 112.236 28.4925C108.756 29.0339 107.518 29.4206 102.838 31.5477C97.927 33.7521 91.1204 39.4757 88.3359 43.7298C87.7945 44.5806 87.2531 45.3541 87.1371 45.4701C86.7503 45.8182 83.6565 52.354 83.6565 52.818C83.6565 53.0114 83.5018 53.5142 83.3084 53.9009C81.22 58.039 81.1814 71.0332 83.2697 76.2155C83.4244 76.6409 83.8885 77.8398 84.2752 78.9226C84.6233 79.9668 85.0487 80.9336 85.2034 81.0496C85.3194 81.1657 85.6675 81.8231 85.9769 82.5579C86.5183 83.9502 89.1481 87.6241 91.1204 89.8672C93.0541 92.0329 96.8054 95.3588 97.2695 95.3588C97.4242 95.3588 97.7723 95.5909 98.043 95.8229C99.2419 96.9444 103.728 99.2262 106.474 100.116C114.363 102.707 120.783 102.9 129.136 100.812C130.761 100.386 135.518 98.4914 135.866 98.066C135.982 97.9499 136.716 97.5245 137.529 97.1378C138.302 96.7124 138.959 96.2483 138.959 96.0549C138.959 95.9002 139.153 95.7455 139.385 95.7455C139.965 95.7455 142.904 93.3865 145.147 91.0661C150.213 85.9225 153.501 79.6961 154.893 72.5415C155.512 69.2156 155.705 61.7903 155.202 59.3925C153.887 53.1661 152.959 50.5363 150.252 45.7408C149.633 44.5806 149.401 44.2712 148.357 42.995C148.086 42.6856 147.854 42.2989 147.854 42.1829C147.854 42.0668 146.307 40.4426 144.412 38.5476C141.241 35.415 135.711 31.5477 134.435 31.5477C134.164 31.5477 133.932 31.3543 133.932 31.1609C133.932 30.9289 133.661 30.7742 133.313 30.7742C132.965 30.7742 132.153 30.5422 131.495 30.2714C129.368 29.3433 127.628 28.8792 124.844 28.4151C121.44 27.8737 115.253 27.5256 114.943 27.835Z" fill="white"/>
<path d="M124.65 212.966C121.788 213.121 117.612 213.507 115.369 213.894C113.126 214.242 110.38 214.667 109.22 214.861C106.087 215.364 98.2363 217.181 97.5015 217.607C97.1147 217.8 96.3799 217.955 95.8772 217.955C95.3357 217.955 94.833 218.109 94.717 218.303C94.601 218.496 93.7115 218.767 92.7446 218.883C91.8165 219.038 90.927 219.308 90.811 219.54C90.6563 219.734 90.2309 219.888 89.8054 219.888C89.4187 219.888 88.7613 220.043 88.3745 220.236C88.0265 220.468 86.6729 220.971 85.3967 221.397C84.0818 221.822 82.5348 222.363 81.9161 222.634C81.2586 222.866 80.4078 223.214 79.9824 223.369C73.7947 225.805 69.2699 229.17 67.1815 232.844C66.2533 234.507 66.0986 235.319 65.9439 238.568C65.7893 242.01 65.8666 242.474 66.7948 244.369C67.9163 246.65 71.4356 250.44 72.4024 250.44C72.6345 250.44 72.8278 250.556 72.8278 250.75C72.8278 250.904 73.4853 251.369 74.2974 251.794C75.0709 252.219 75.8057 252.645 75.9217 252.799C76.1151 252.993 78.5128 254.153 83.3857 256.396C84.6232 256.938 85.8221 257.402 86.0928 257.402C86.3635 257.402 86.7502 257.556 86.9823 257.711C87.1757 257.866 88.3745 258.33 89.6508 258.716C90.927 259.103 92.3192 259.567 92.7446 259.761C93.8275 260.225 98.1202 261.269 103.186 262.274C118.346 265.33 145.457 265.832 160.616 263.396C162.628 263.048 165.335 262.623 166.611 262.429C167.887 262.197 169.434 261.849 170.053 261.656C170.672 261.424 171.677 261.269 172.257 261.269C172.837 261.269 173.456 261.114 173.572 260.882C173.688 260.689 174.114 260.495 174.5 260.495C175.351 260.495 178.87 259.451 180.611 258.716C181.268 258.407 182.08 258.175 182.39 258.175C182.738 258.175 183.124 257.982 183.24 257.788C183.356 257.556 183.898 257.402 184.439 257.402C184.942 257.402 185.367 257.247 185.367 257.015C185.367 256.821 185.986 256.551 186.721 256.396C187.456 256.28 188.075 256.009 188.075 255.816C188.075 255.623 188.345 255.468 188.655 255.468C189.196 255.468 192.251 253.96 194.456 252.645C198.362 250.247 199.445 249.512 200.605 248.275C201.378 247.463 202.461 245.877 203.041 244.717C204.008 242.822 204.124 242.126 204.124 239.07C204.124 235.628 203.196 231.877 202.345 231.877C202.152 231.877 201.997 231.684 201.997 231.452C201.997 230.601 197.704 226.966 195.307 225.767C190.898 223.601 189.583 223.021 188.461 222.789C187.804 222.634 187.224 222.363 187.108 222.17C186.953 221.977 186.489 221.822 185.986 221.822C185.522 221.822 184.981 221.667 184.787 221.513C184.555 221.319 183.356 220.855 182.08 220.507C180.804 220.12 179.45 219.656 179.102 219.463C178.754 219.27 177.749 218.999 176.859 218.883C176.009 218.728 175.196 218.457 175.08 218.303C174.964 218.109 174.384 217.955 173.765 217.955C173.147 217.955 172.567 217.8 172.451 217.607C172.335 217.452 171.484 217.181 170.594 217.027C169.666 216.872 168.429 216.601 167.771 216.408C166.031 215.905 162.86 215.248 160.346 214.822C146.81 212.695 138.07 212.231 124.65 212.966ZM144.374 226.502C154.274 228.087 159.224 232.651 155.434 236.711C154.931 237.253 154.351 237.678 154.081 237.678C153.849 237.678 153.655 237.833 153.655 238.026C153.655 238.22 153.075 238.529 152.418 238.645C151.722 238.8 150.987 239.07 150.755 239.225C150.561 239.38 149.943 239.612 149.401 239.728C148.86 239.844 147.313 240.231 145.921 240.579C144.528 240.927 141.937 241.391 140.12 241.584C136.562 242.01 127.473 241.739 125.617 241.159C124.998 240.965 123.49 240.54 122.33 240.192C121.17 239.844 119.855 239.418 119.429 239.225C119.004 239.032 117.96 238.568 117.109 238.22C113.126 236.441 112.081 233.579 114.479 231.142C116.567 229.054 120.899 227.198 125.23 226.502C130.297 225.689 139.23 225.689 144.374 226.502Z" fill="white"/>
<path d="M42.6627 249.357C41.0771 249.551 39.6075 249.86 39.4141 250.092C39.1821 250.285 38.5633 250.44 37.9832 250.44C37.4031 250.44 36.823 250.595 36.707 250.788C36.5523 250.981 35.7788 251.252 34.928 251.407C34.0772 251.562 33.381 251.832 33.381 252.026C33.381 252.219 33.149 252.374 32.8396 252.374C32.2208 252.374 30.0165 253.495 29.2043 254.23C28.9336 254.462 28.3148 254.887 27.8894 255.12C25.6077 256.318 20.6188 261.578 20.6188 262.738C20.6188 262.97 20.5028 263.202 20.3481 263.28C19.9614 263.434 17.5249 268.346 17.5249 268.926C17.5249 269.197 17.3702 269.39 17.1382 269.39C16.9448 269.39 16.7515 269.622 16.7515 269.931C16.7515 270.241 16.5194 270.976 16.21 271.594C15.6686 272.6 14.7791 274.65 13.3869 277.898C12.8455 279.213 12.5361 279.871 11.1825 283.003C10.8344 283.777 10.5637 284.511 10.5637 284.627C10.5637 284.743 66.4468 284.859 134.744 284.859C252.814 284.859 258.886 284.821 258.731 284.163C257.842 281.031 257.068 278.749 256.643 278.092C256.372 277.666 256.14 277.047 256.14 276.661C256.14 276.274 255.985 275.964 255.753 275.964C255.56 275.964 255.366 275.694 255.366 275.346C255.366 274.998 255.134 274.263 254.825 273.721C254.516 273.141 253.974 271.981 253.626 271.13C253.278 270.279 252.853 269.274 252.659 268.926C252.427 268.539 252.273 267.959 252.273 267.65C252.273 267.34 252.118 267.07 251.886 267.07C251.693 267.07 251.499 266.876 251.499 266.644C251.499 266.025 250.262 263.473 249.681 262.893C249.411 262.622 249.179 262.119 249.179 261.81C249.179 261.501 249.024 261.269 248.869 261.269C248.715 261.269 248.251 260.688 247.825 259.992C246.936 258.445 242.682 254.307 241.947 254.307C241.676 254.307 241.444 254.153 241.444 253.921C241.444 253.727 241.019 253.457 240.477 253.302C239.936 253.186 239.51 252.915 239.51 252.722C239.51 252.528 239.124 252.374 238.621 252.374C238.118 252.374 237.577 252.219 237.383 252.026C236.765 251.446 231.892 250.401 226.168 249.628C222.687 249.164 213.677 249.435 213.058 250.053C212.864 250.247 212.207 250.44 211.627 250.44C211.047 250.44 210.08 250.711 209.5 251.02C208.881 251.33 208.069 251.6 207.721 251.6C207.334 251.6 207.025 251.755 207.025 251.948C207.025 252.142 206.638 252.374 206.174 252.528C204.782 252.876 200.76 255.661 198.362 257.943C195.345 260.766 192.522 262.158 184.401 264.788C181.655 265.677 179.025 266.528 178.6 266.722C178.174 266.876 176.975 267.224 175.893 267.456C174.848 267.688 173.263 268.075 172.412 268.268C171.561 268.501 169.744 268.887 168.351 269.158C166.959 269.429 165.567 269.738 165.257 269.893C164.948 270.009 163.904 270.202 162.937 270.279C161.97 270.357 159.727 270.666 157.909 270.898C156.092 271.13 153.23 271.517 151.528 271.749C147.081 272.329 122.794 271.942 115.755 271.169C102.8 269.738 97.1148 268.733 89.0708 266.335C88.5293 266.18 87.2918 265.793 86.2863 265.523C85.2421 265.213 84.43 264.827 84.43 264.672C84.43 264.517 84.1206 264.362 83.7725 264.362C83.3858 264.362 82.5736 264.092 81.9549 263.782C81.3748 263.473 80.6013 263.202 80.3306 263.202C80.0212 263.202 79.7891 263.048 79.7891 262.893C79.7891 262.738 78.9383 262.274 77.8555 261.849C76.8113 261.423 75.9218 260.959 75.9218 260.805C75.9218 260.65 75.6898 260.495 75.3804 260.495C75.071 260.495 74.5682 260.263 74.2975 259.992C74.0268 259.76 73.1373 259.18 72.3639 258.755C71.5517 258.329 70.8943 257.865 70.8943 257.711C70.8943 257.517 70.7009 257.401 70.4689 257.401C70.2368 257.401 69.8114 257.169 69.5407 256.898C68.2645 255.777 67.8004 255.468 67.4523 255.468C67.259 255.468 67.0269 255.352 66.9496 255.158C66.7175 254.617 63.701 252.49 62.1927 251.832C57.9387 249.976 56.7011 249.667 51.8669 249.28C46.9167 248.854 46.646 248.854 42.6627 249.357Z" fill="white"/>
<path d="M15.5912 292.44C14.0056 292.749 12.2653 293.174 11.7239 293.445C9.01675 294.644 8.01124 295.147 7.6245 295.495C7.39246 295.688 6.65767 296.307 6.00022 296.848C5.3041 297.39 4.76267 297.97 4.76267 298.125C4.76267 298.279 4.33726 298.898 3.79584 299.478C3.25441 300.058 2.829 300.716 2.829 300.986C2.829 301.257 2.67431 301.489 2.48094 301.489C2.28757 301.489 2.05553 301.799 1.93951 302.147C1.82349 302.533 1.35941 303.81 0.895329 304.97C0.199207 306.633 0.0445137 307.948 0.00584028 311.041C-0.0328331 313.671 0.121861 315.18 0.431248 315.489C0.701962 315.76 0.895329 316.262 0.895329 316.649C0.895329 317.964 3.02237 321.29 4.95604 323.069C7.00573 324.925 10.641 327.4 11.3372 327.4C11.5305 327.4 12.0333 327.555 12.42 327.787C12.7681 327.98 14.7404 328.406 16.7901 328.754C20.0773 329.257 33.6517 329.334 135.053 329.334C236.3 329.334 249.991 329.257 253.123 328.754C255.096 328.406 257.068 327.98 257.493 327.826C257.919 327.632 259.079 327.168 260.085 326.743C261.129 326.356 261.941 325.931 261.941 325.737C261.941 325.583 262.134 325.467 262.366 325.467C263.062 325.467 267.162 321.135 267.781 319.743C268.09 319.047 268.438 318.505 268.593 318.505C268.709 318.505 268.941 317.771 269.096 316.881C269.25 315.953 269.56 315.025 269.753 314.754C270.565 313.749 269.56 303.5 268.554 302.649C268.245 302.379 267.394 301.025 267.123 300.329C266.272 298.357 259.93 293.754 258.074 293.754C257.648 293.754 257.3 293.6 257.3 293.445C257.3 293.29 255.521 292.865 253.355 292.478C249.643 291.859 241.599 291.821 133.932 291.859C35.6627 291.898 18.0663 291.975 15.5912 292.44ZM232.859 304.158C233.207 304.351 234.019 304.738 234.637 305.008C236.455 305.898 237.577 308.064 237.577 310.771C237.577 312.356 237.345 313.478 236.919 314.174C236.068 315.45 234.831 316.533 234.212 316.572C233.941 316.572 233.709 316.726 233.709 316.958C233.709 317.5 228.836 317.423 227.792 316.842C225.24 315.45 224.041 313.401 224.041 310.539C224.041 307.793 225.511 305.356 227.715 304.39C229.069 303.771 231.892 303.655 232.859 304.158ZM254.632 304.467C256.295 305.279 256.643 305.666 257.648 307.522C259.427 310.809 258.112 314.947 254.709 316.842C253.278 317.655 249.565 317.461 248.018 316.533C246.356 315.489 245.891 314.87 245.157 312.782C244.654 311.312 244.654 310.809 245.079 309.03C245.775 306.401 246.317 305.589 247.98 304.622C249.72 303.616 252.814 303.539 254.632 304.467Z" fill="white"/>
</svg>
