<svg id="Layer_1" data-name="Layer 1" xmlns="http://www.w3.org/2000/svg" viewBox="0 0 35 34.95"><path d="M17.47,15.73a1.74,1.74,0,1,0,1.24.51A1.73,1.73,0,0,0,17.47,15.73ZM18.35,0c7.86,0,8,6.24,3.93,8.3a5.88,5.88,0,0,0-2.83,4.32,5.34,5.34,0,0,1,2.13,1.59C28.05,10.71,35,12.09,35,18.35c0,7.86-6.24,8-8.3,3.89a6,6,0,0,0-4.35-2.83,5.62,5.62,0,0,1-1.59,2.15C24.24,28,22.86,35,16.6,35c-7.86,0-8-6.26-3.9-8.32a5.93,5.93,0,0,0,2.83-4.28,5.41,5.41,0,0,1-2.16-1.61C6.92,24.2,0,22.84,0,16.6c0-7.86,6.22-8.06,8.28-3.91a5.92,5.92,0,0,0,4.34,2.81,5.1,5.1,0,0,1,1.6-2.13C10.75,6.92,12.13,0,18.35,0Z" transform="translate(0 0)"/></svg>