<svg width="2002" height="1889" viewBox="0 0 2002 1889" fill="none" xmlns="http://www.w3.org/2000/svg">
<path d="M912.505 1244.33C740.039 1244.33 604.531 1106.79 604.531 931.748C604.531 756.702 752.359 619.165 924.825 619.165V469.132C666.126 469.132 456.702 681.679 456.702 944.248C456.702 1206.82 666.126 1419.38 924.825 1419.38L912.505 1244.33ZM912.505 306.583C875.548 306.583 838.592 269.076 838.592 231.566V81.5168C838.592 44.0069 875.548 6.5 912.505 6.5V306.583ZM912.505 1869.5C875.548 1869.5 838.592 1831.99 838.592 1794.48V1644.43C838.592 1606.92 875.548 1569.41 912.505 1569.41V1869.5ZM432.064 519.133C407.426 519.133 395.107 506.635 382.788 494.132L271.917 381.599C247.279 356.593 247.279 306.576 271.917 269.066C296.555 244.06 345.831 244.06 382.788 269.066L493.659 381.599C518.297 406.606 518.297 456.622 493.659 494.132C469.021 506.635 444.383 519.133 432.064 519.133ZM222.641 1006.76H74.8126C37.8556 1006.76 0.898682 969.258 0.898682 931.748C0.898682 894.238 37.8556 856.731 74.8126 856.731H222.641C259.598 856.731 296.555 894.238 296.555 931.748C296.555 969.258 271.917 1006.76 222.641 1006.76ZM321.193 1619.43C284.236 1619.43 247.279 1581.92 247.279 1544.41C247.279 1519.41 259.598 1506.9 271.917 1494.4L382.788 1381.86C407.426 1356.86 456.702 1356.86 493.659 1381.86C518.297 1406.87 518.297 1456.89 493.659 1494.4L382.788 1606.93C358.15 1606.93 333.512 1619.43 321.193 1619.43Z" fill="white"/>
<path d="M1965.04 1356.86L1817.21 1269.34C1854.17 1231.83 1891.13 1206.82 1928.09 1181.81C1965.04 1169.31 1977.36 1131.8 1965.04 1094.29C1952.72 1069.28 1928.09 1044.28 1903.45 1044.28C1891.13 1044.28 1891.13 1044.28 1878.81 1044.28C1804.9 1081.79 1743.3 1119.3 1694.02 1181.81L1262.86 931.748L1694.02 681.682C1743.3 744.199 1804.9 794.212 1878.81 819.218C1891.13 819.218 1891.13 819.218 1903.45 819.218C1928.09 819.218 1952.72 806.715 1965.04 769.205C1977.36 731.695 1965.04 694.185 1928.09 681.682C1878.81 656.675 1841.85 631.669 1817.21 594.159L1965.04 544.146C2002 519.139 2002 481.629 1989.68 456.622C1977.36 431.616 1952.72 419.112 1928.09 419.112C1915.77 419.112 1903.45 419.112 1891.13 431.616L1743.3 519.139C1730.98 469.126 1730.98 419.112 1730.98 369.099C1730.98 331.589 1718.66 294.079 1681.71 294.079H1669.39C1632.43 294.079 1607.79 319.086 1607.79 344.093C1595.47 419.112 1607.79 506.636 1632.43 581.656L1201.26 831.722V381.603C1275.18 369.099 1349.09 331.589 1410.69 281.576C1435.33 256.569 1447.64 219.06 1423.01 194.053C1410.69 181.55 1386.05 169.046 1373.73 169.046C1361.41 169.046 1349.09 169.046 1336.77 181.55C1299.82 206.556 1250.54 231.563 1213.58 244.066V81.5231C1213.58 44.0131 1176.63 -18.5034 1078.07 6.50322V1882C1164.31 1907.01 1213.58 1856.99 1213.58 1819.48V1644.44C1262.86 1656.94 1299.82 1681.95 1336.77 1706.95C1349.09 1719.46 1361.41 1719.46 1373.73 1719.46C1398.37 1719.46 1410.69 1706.95 1423.01 1694.45C1447.64 1669.44 1447.64 1631.93 1423.01 1606.93C1361.41 1556.91 1287.5 1531.91 1213.58 1506.9V1069.28L1644.75 1319.35C1620.11 1394.37 1607.79 1469.39 1620.11 1556.91C1620.11 1594.42 1644.75 1606.93 1681.71 1606.93C1718.66 1606.93 1743.3 1581.92 1743.3 1544.41V1531.91C1743.3 1481.89 1743.3 1431.88 1755.62 1381.87L1903.45 1469.39C1915.77 1469.39 1928.09 1481.89 1940.41 1481.89C1977.36 1481.89 2002 1456.89 2002 1419.38C2002 1381.87 1989.68 1356.86 1965.04 1356.86Z" fill="white"/>
</svg>
