<svg width="606" height="408" viewBox="0 0 606 408" fill="none" xmlns="http://www.w3.org/2000/svg">
<path d="M42.6667 30.6667V61.3333H21.3333H0V104.667V148H302.667H605.333V104.667V61.3333H582.667H560V30.6667V-7.7188e-06H301.333H42.6667V30.6667ZM546.4 41.6L546 60.6667L301.733 61.0667L57.3333 61.3333V42V22.6667H302H546.8L546.4 41.6ZM109.333 108V133.333H66.6667H24V108V82.6667H66.6667H109.333V108ZM478.667 108V133.333L301.733 133.067L124.667 132.667L124.267 107.6L124 82.6667H301.333H478.667V108ZM577.067 107.6L576.667 132.667H534H491.333L490.933 107.6L490.667 82.6667H534H577.333L577.067 107.6Z" fill="white"/>
<path d="M33.3333 94.6673C33.3333 97.2007 34.2666 97.334 66.6666 97.334C99.0666 97.334 99.9999 97.2007 99.9999 94.6673C99.9999 92.134 99.0666 92.0007 66.6666 92.0007C34.2666 92.0007 33.3333 92.134 33.3333 94.6673Z" fill="white"/>
<path d="M33.3333 107.333V110.666H66.6666H99.9999V107.333V103.999H66.6666H33.3333V107.333Z" fill="white"/>
<path d="M33.3333 119.999C33.3333 122.533 34.2666 122.666 66.6666 122.666C99.0666 122.666 99.9999 122.533 99.9999 119.999C99.9999 117.466 99.0666 117.333 66.6666 117.333C34.2666 117.333 33.3333 117.466 33.3333 119.999Z" fill="white"/>
<path d="M133.333 107.333V122.666H301.333H469.333V107.333V91.9993H301.333H133.333V107.333ZM462.667 107.333V111.999H301.333H140V107.333V102.666H301.333H462.667V107.333Z" fill="white"/>
<path d="M500 94.6673C500 97.334 500.8 97.334 534.133 97.334C565.867 97.334 568.133 97.2007 567.733 94.934C567.333 92.8007 564.533 92.6673 533.6 92.2673C500.667 92.0007 500 92.0007 500 94.6673Z" fill="white"/>
<path d="M500.4 106C500 107.2 500.267 108.8 500.933 109.467C501.6 110.134 515.467 110.534 534.8 110.4C566.267 110 567.333 109.867 567.333 107.334C567.333 104.8 566.267 104.667 534.267 104.267C505.2 104 501.2 104.267 500.4 106Z" fill="white"/>
<path d="M500 119.999C500 122.666 500.8 122.666 534.133 122.666C565.867 122.666 568.133 122.533 567.733 120.266C567.333 118.133 564.533 117.999 533.6 117.599C500.667 117.333 500 117.333 500 119.999Z" fill="white"/>
<path d="M0 284.667V408H302.667H605.333V284.667V161.333H302.667H0V284.667ZM139.333 185.333C155.6 190.4 166.267 196.933 178.8 209.333C188.4 218.8 191.2 222.8 196.4 233.333C210 261.2 210 288.133 196.4 316C191.333 326.533 188.4 330.533 178.8 340.133C169.2 349.733 165.2 352.667 154.667 357.733C126.8 371.333 99.8667 371.333 72 357.733C61.4667 352.533 57.4667 349.733 48 340.133C35.4667 327.467 29.0667 316.933 23.8667 300C19.3333 285.467 19.4667 262.267 24.2667 247.733C29.3333 232.267 36.5333 220.533 47.8667 209.2C61.8667 195.2 78.9333 186.133 98 182.667C108.267 180.8 128.667 182.133 139.333 185.333ZM518 185.333C534.267 190.4 544.933 196.8 557.333 209.333C576.4 228.4 584.667 248 584.667 274.667C584.667 301.2 576.533 320.8 557.333 340.133C547.733 349.867 544 352.533 533.333 357.733C505.333 371.333 478.533 371.333 450.667 357.733C440.133 352.533 436.133 349.6 426.533 340C416.8 330.4 414 326.533 408.933 316C401.067 299.6 399.333 291.867 399.333 274C399.467 248 407.733 228.133 426.667 209.333C441.333 194.533 457.067 186.267 477.067 182.667C487.067 180.8 507.467 182.133 518 185.333ZM392 264V341.333L301.733 341.067L211.333 340.667L210.933 265.333C210.8 223.867 210.933 189.2 211.333 188.267C211.733 187.067 231.2 186.667 302 186.667H392V264Z" fill="white"/>
<path d="M92.8 198C72.2666 203.733 51.2 221.2 42.2666 240C35.8666 253.6 34.2666 262.133 34.9333 278.8C35.8666 300.4 42.6666 315.733 58.1333 331.2C88.8 361.6 138.533 361.333 169.333 330.666C184.533 315.333 192.4 296.666 192.4 275.333C192.4 238.266 168.667 207.333 132.933 197.866C124.267 195.6 101.467 195.6 92.8 198ZM129.467 251.333C138 257.333 141.6 265.2 141.067 276.266C140.667 283.6 139.867 286.266 136.667 290.8C125.467 306.666 101.2 306.666 90 290.933C86.9333 286.4 86 283.466 85.6 276.8C85.0666 269.333 85.4666 267.333 88.6666 261.466C94.5333 250.8 102.533 246.4 114.933 246.933C122.267 247.333 124.933 248.133 129.467 251.333Z" fill="white"/>
<path d="M106.4 262.132C102.267 264.266 98.6667 270.266 98.6667 274.932C98.6667 283.199 107.867 290.399 116.4 288.799C128.933 286.399 131.867 269.332 121.067 262.666C115.867 259.599 111.333 259.332 106.4 262.132Z" fill="white"/>
<path d="M471.867 197.867C446.133 205.067 425.333 224.667 416.8 249.734C402.267 292.667 428.133 340.134 472.133 351.467C483.2 354.4 500.933 354.267 511.867 351.467C539.867 344 561.467 322.4 568.667 294.667C571.2 284.667 571.467 266 569.2 256.667C562.267 228.267 539.867 205.467 511.6 197.867C503.067 195.6 480.133 195.6 471.867 197.867ZM499.467 248.667C516.8 253.734 524.667 272.934 515.6 288.267C501.467 312.4 464.933 302.534 464.933 274.667C464.933 261.734 471.867 252.534 484.667 248.534C491.6 246.4 491.733 246.4 499.467 248.667Z" fill="white"/>
<path d="M485.733 260.534C474.133 265.734 473.333 281.334 484.4 288C490 291.467 494.533 291.334 500.133 287.6C506.533 283.334 509.067 275.734 506.267 269.067C502.8 260.8 493.733 257.067 485.733 260.534Z" fill="white"/>
<path d="M222.667 248.666V298.666H301.333H380V248.666V198.666H301.333H222.667V248.666ZM365.333 249.999V290.666H301.333H237.333V249.999V209.333H301.333H365.333V249.999Z" fill="white"/>
<path d="M249.333 249.999V278.666H301.333H353.333V249.999V221.333H301.333H249.333V249.999ZM283.067 244.133C288.933 251.333 283.867 262.666 274.8 262.666C269.467 262.533 266.533 260.799 264.267 256.399C261.733 251.733 262.4 247.999 266.667 243.733C270.267 240.266 271.467 239.733 275.733 240.399C278.4 240.933 281.733 242.533 283.067 244.133ZM336.133 243.866C341.067 248.933 341.333 254.799 336.667 259.333C329.733 266.399 317.333 261.466 317.333 251.733C317.467 241.066 328.667 236.399 336.133 243.866Z" fill="white"/>
<path d="M222.667 320V329.467L237.067 329.067L251.333 328.667L251.733 319.6L252.133 310.667H237.333H222.667V320Z" fill="white"/>
<path d="M264 320.001V329.334H280.667H297.333V320.001V310.667H280.667H264V320.001Z" fill="white"/>
<path d="M309.067 320.001L309.6 329.334H323.467H337.333V320.001V310.667H323.067H308.667L309.067 320.001Z" fill="white"/>
<path d="M349.333 320.001V329.334H364.667H380V320.001V310.667H364.667H349.333V320.001Z" fill="white"/>
</svg>
