<svg width="279" height="311" viewBox="0 0 279 311" fill="none" xmlns="http://www.w3.org/2000/svg">
<path fill-rule="evenodd" clip-rule="evenodd" d="M107.945 1.83956C99.026 4.76756 92.438 8.87456 86.141 15.4326C79.701 22.1386 75.745 29.0426 73.581 37.3516C71.788 44.2356 68.766 72.1896 69.182 78.0376L69.5 82.5006L75.5 83.2616C78.8 83.6796 87.8 83.9046 95.5 83.7616L109.5 83.5006L110.098 75.4676C111.218 60.4346 114.168 52.7396 117.525 56.0966C118.757 57.3286 118.752 58.1746 117.488 62.3726C116.685 65.0416 115.731 70.7906 115.367 75.1486L114.707 83.0716L119.103 82.3966C128.562 80.9456 130.969 78.3686 134.008 66.4356C135.12 62.0716 137.166 56.1686 138.555 53.3186C141.153 47.9876 146.953 42.0006 149.52 42.0006C152.616 42.0006 160 60.9736 160 68.9266C160 73.7846 162.518 78.6996 165.902 80.4496C169.438 82.2786 186.883 84.2526 195.554 83.8056L201.48 83.5006L202.316 78.0006C203.433 70.6546 201.535 54.8966 198.363 45.1746C193.528 30.3596 185.507 19.9536 175.33 15.2936C170.16 12.9276 168.947 12.7676 159.904 13.2656L150.09 13.8066L147.54 10.4636C146.071 8.53756 142.143 5.71855 138.271 3.81055C132.373 0.904555 130.451 0.470555 122.526 0.258555C115.953 0.081555 111.99 0.511556 107.945 1.83956ZM145.546 52.3516C142.97 55.7296 138 69.1316 138 72.7006C138 75.9686 132.912 83.0046 129.207 84.8606C123.562 87.6876 120.63 88.1946 106 88.8736L92.5 89.5006V107.501C92.5 125.266 92.537 125.573 95.314 131.001C99.22 138.636 107.019 146.27 114.395 149.68C120.235 152.379 121.152 152.501 135.521 152.501C150.47 152.501 150.574 152.485 157.193 149.227C165.465 145.154 172.956 137.259 176.149 129.248C178.225 124.04 178.443 121.861 178.47 106.001L178.5 88.5006L172.209 87.8066C161.036 86.5746 155.849 81.1206 154.575 69.2686C153.949 63.4476 151.302 54.1506 149.203 50.3996C148.42 49.0006 147.883 49.2866 145.546 52.3516ZM238.669 56.8706C237.007 61.0226 235.524 62.0006 230.887 62.0006C226.464 62.0006 226.026 64.6876 229.948 67.7576C233.087 70.2136 233.172 70.4716 232.525 75.6486C231.93 80.4106 232.057 80.9966 233.678 80.9686C234.68 80.9516 236.374 80.2766 237.441 79.4686C239.934 77.5826 242.348 77.6116 246.14 79.5726C250.749 81.9566 252.008 80.9806 250.868 75.9066C249.974 71.9296 250.105 71.4866 253.091 68.4066C257.017 64.3566 256.448 62.2386 251.319 61.8146C248.019 61.5416 247.222 60.9476 245.188 57.2506C243.902 54.9126 242.258 53.0006 241.534 53.0006C240.81 53.0006 239.52 54.7416 238.669 56.8706ZM73 95.2776C73 102.667 74.496 105.349 79.544 107.016C85.454 108.966 86 108.207 86 98.0316V89.0006H79.5H73V95.2776ZM184 97.3006C184 108.147 185.491 109.76 192.46 106.453C194.255 105.601 196.235 103.78 196.861 102.406C198.357 99.1216 198.32 91.7206 196.8 90.2006C196.14 89.5406 192.99 89.0006 189.8 89.0006H184V97.3006ZM29.145 105.886C26.831 111.264 25.716 112.001 19.887 112.001C14.154 112.001 13.828 114.226 18.877 118.888C23.55 123.202 23.374 122.628 21.865 128.623C20.254 135.021 21.588 135.913 27.546 132.421L32.292 129.64L37.412 132.32C40.228 133.795 42.898 135.001 43.345 135.001C43.793 135.001 43.844 132.054 43.458 128.451L42.756 121.901L46.912 118.344C51.916 114.061 51.143 112.001 44.533 112.001C39.779 112.001 37.952 110.523 35.525 104.714C34.671 102.672 33.36 101.001 32.61 101.001C31.86 101.001 30.301 103.199 29.145 105.886ZM225.01 123.317C219.967 124.923 213.632 131.67 212.13 137.037C211.442 139.496 211.018 143.981 211.189 147.004L211.5 152.501L227.5 153.001C243.079 153.488 243.508 153.559 243.815 155.716C244.233 158.656 242.661 158.96 225.5 159.258L211.5 159.501L211.189 164.998C210.737 172.991 212.679 178.734 217.441 183.488C222.323 188.363 227.242 190.001 237 190.001C246.758 190.001 251.677 188.363 256.559 183.488C261.321 178.734 263.263 172.991 262.811 164.998C262.511 159.697 262.393 159.491 259.5 159.227C253.601 158.688 252 157.999 252 156.001C252 154.003 253.601 153.314 259.5 152.775C262.393 152.511 262.511 152.305 262.811 147.004C262.982 143.981 262.558 139.496 261.87 137.037C260.283 131.369 253.961 124.897 248.384 123.231C243.39 121.739 229.809 121.788 225.01 123.317ZM198.389 151.981C195.698 153.068 194.719 155.607 196.039 158.073C196.791 159.479 198.143 160.001 201.035 160.001C204.976 160.001 205 159.977 205 156.108C205 151.285 203.079 150.086 198.389 151.981ZM270.25 151.664C269.549 151.946 269 153.887 269 156.084C269 159.981 269.02 160.001 272.965 160.001C275.906 160.001 277.206 159.485 278 158.001C279.256 155.655 277.762 152.001 275.547 152.001C274.786 152.001 273.564 151.812 272.832 151.58C272.099 151.349 270.938 151.386 270.25 151.664ZM119.414 157.918C119.186 158.147 119 162.689 119 168.011V177.687L124.002 184.81C129.402 192.499 131.316 194.001 135.712 194.001C139.714 194.001 141.823 192.223 147.25 184.272L152 177.312V167.704V158.096L135.914 157.799C127.067 157.635 119.642 157.689 119.414 157.918ZM44.31 177.02C40.351 185.805 40.827 185.494 29.761 186.528C26.054 186.875 22.73 187.628 22.375 188.203C22.02 188.778 24.774 192.076 28.496 195.533C34.068 200.708 35.163 202.232 34.699 204.16C32.736 212.312 31.714 219.048 32.345 219.68C32.749 220.084 36.79 218.443 41.325 216.035L49.57 211.656L56.593 215.829C60.456 218.123 64.153 220.001 64.808 220.001C66.363 220.001 66.266 216.897 64.48 209.501C63.683 206.201 63.024 203.084 63.016 202.573C63.007 202.063 66.037 198.824 69.75 195.375C74.248 191.196 76.166 188.77 75.5 188.105C74.95 187.555 71.35 186.805 67.5 186.437C63.65 186.07 59.595 185.206 58.49 184.519C57.384 183.831 55.403 180.621 54.087 177.385C51.48 170.972 50.246 169.001 48.84 169.001C48.336 169.001 46.298 172.61 44.31 177.02ZM97.894 184.875L86.289 187.501L77.541 195.59L68.793 203.679L71.083 213.933C74.573 229.567 72.252 231.172 58.025 222.961L49.05 217.781L41.026 222.486C36.612 225.074 32.742 227.61 32.425 228.122C31.302 229.939 23 274.454 23 278.658C23 283.831 25.277 285.495 31.256 284.694C36.866 283.941 40.756 279.935 41.542 274.101C42.943 263.702 46.718 257.716 54.319 253.838C60.419 250.726 70.432 251.521 76.207 255.576C83.027 260.364 85.309 265.567 86.042 277.999C86.985 293.99 85.567 293.001 107.56 293.001H126.05L127.217 290.251C127.87 288.712 128.645 279.571 128.976 269.501C129.532 252.586 129.727 251.2 132.2 246.501C138.256 234.995 148.57 228.556 161 228.522C170.27 228.496 177.655 231.733 183.981 238.596C191.4 246.644 192.319 249.94 193.017 271.001C193.355 281.176 193.987 290.289 194.423 291.251C195.127 292.808 196.916 293.001 210.628 293.001C225.886 293.001 226.054 292.977 227.126 290.625C227.979 288.752 227.852 287.704 226.527 285.682C225.411 283.98 224.932 281.491 225.102 278.283C225.32 274.187 224.95 273.042 222.679 270.771L220 268.092V232.618C220 201.702 219.798 196.942 218.429 195.572C217.564 194.708 216.614 194.001 216.318 194.001C216.021 194.001 203.016 191.301 187.418 188.001C171.82 184.701 158.24 182.001 157.24 182.001C156.134 182.001 153.491 184.709 150.488 188.917C143.166 199.181 137.569 201.674 129.681 198.184C126.265 196.673 124.158 194.62 120.382 189.121C114.645 180.766 115.415 180.911 97.894 184.875ZM225 230.301C225 256.423 225.312 265.913 226.2 266.801C227.834 268.435 246.166 268.435 247.8 266.801C248.688 265.913 249 256.423 249 230.301V195.001H237H225V230.301ZM149.5 236.384C143.328 239.302 139.771 243.002 136.891 249.501C134.617 254.632 134.387 256.859 133.659 280.767L133.285 293.032L160.892 292.767C187.873 292.507 188.492 292.456 188.163 290.501C187.978 289.401 187.528 280.176 187.163 270.001C186.524 252.16 186.401 251.333 183.728 246.785C176.84 235.068 161.893 230.526 149.5 236.384ZM55.96 259.304C50.957 261.949 47 268.303 47 273.69C47 281.12 41.35 288.282 34.471 289.573C30.765 290.268 30.004 291.405 32.582 292.394C33.452 292.728 44.884 293.001 57.987 293.001H81.811L81.32 282.751C80.747 270.806 79.796 267.101 76.211 262.84C71.105 256.771 63.319 255.412 55.96 259.304ZM231 279.001V284.001H237H243V279.001V274.001H237H231V279.001ZM0.555969 285.911C0.246969 286.411 0.267969 287.536 0.603969 288.411C1.09697 289.696 2.88597 290.001 9.93997 290.001C14.74 290.001 18.951 289.717 19.298 289.37C19.645 289.022 19.48 287.897 18.93 286.87C18.075 285.272 16.709 285.001 9.52397 285.001C4.90097 285.001 0.864969 285.41 0.555969 285.911ZM231.612 294.598C226.779 306.35 211.873 309.301 202.072 300.447C195.686 294.677 190.668 296.275 196.023 302.374C205.466 313.13 222 313.848 231.915 303.932C237.773 298.074 239.997 289.998 235.75 290.005C234.019 290.008 233.064 291.067 231.612 294.598ZM89 300.433C89 303.686 100.105 309.006 106.876 308.995C111.888 308.988 117.628 307.261 122.168 304.395C129.499 299.767 125.092 296.873 117 301.001C114.466 302.294 111.106 303.001 107.5 303.001C103.894 303.001 100.534 302.294 98 301.001C93.374 298.641 89 298.365 89 300.433Z" fill="white"/>
</svg>
