<svg width="106" height="106" viewBox="0 0 106 106" fill="none" xmlns="http://www.w3.org/2000/svg">
<path d="M72.5496 48.8545C72.5496 58.9364 64.3613 67.0736 54.3306 67.0736C44.2999 67.0736 36.1116 58.8852 36.1116 48.8545C36.1116 38.8238 44.2999 30.6355 54.3306 30.6355C64.3613 30.5843 72.5496 38.7726 72.5496 48.8545Z" fill="#434343"/>
<path d="M51.3623 57.6055H57.1965C60.6254 57.6055 63.389 60.369 63.389 63.7467C63.389 63.7467 63.389 63.7467 63.389 63.7979V69.6321C63.389 73.0609 60.6254 75.8245 57.2477 75.8245C57.2477 75.8245 57.2477 75.8245 57.1965 75.8245H51.3623C47.9335 75.8245 45.1699 73.0609 45.1699 69.6833C45.1699 69.6833 45.1699 69.6833 45.1699 69.6321V63.7979C45.1699 60.369 47.9335 57.6055 51.3623 57.6055Z" fill="#434343"/>
<path d="M49.8783 68.7108L58.9366 67.022C59.2437 66.9708 59.4996 67.1755 59.5507 67.4826C59.6019 67.7897 59.3972 68.0455 59.0901 68.0967L50.0318 69.7344C49.7247 69.7856 49.4177 69.632 49.3665 69.325C49.3153 69.0179 49.4689 68.7108 49.7759 68.6597C49.8271 68.762 49.8783 68.762 49.8783 68.7108Z" fill="#7B7B7B"/>
<path d="M49.8783 71.6284L58.9366 69.9907C59.2436 69.9396 59.4995 70.1443 59.5507 70.4513C59.6019 70.7072 59.3972 70.9631 59.1413 71.0655L50.083 72.7543C49.7759 72.8055 49.52 72.6008 49.4688 72.2937C49.4177 71.9867 49.6224 71.6796 49.8783 71.6284Z" fill="#7B7B7B"/>
<path d="M54.6377 80.8916V103.154" stroke="#434343" stroke-width="5" stroke-miterlimit="34.76" stroke-linecap="round"/>
<path d="M80.7892 51.5156H103" stroke="#434343" stroke-width="5" stroke-miterlimit="34.76" stroke-linecap="round"/>
<path d="M74.1362 74.2383L81.5057 82.836" stroke="#434343" stroke-width="5" stroke-miterlimit="34.76" stroke-linecap="round"/>
<path d="M54.5864 25.262V3" stroke="#434343" stroke-width="5" stroke-miterlimit="34.76" stroke-linecap="round"/>
<path d="M25.262 54.6377H3" stroke="#434343" stroke-width="5" stroke-miterlimit="34.76" stroke-linecap="round"/>
<path d="M31.915 31.9147L24.5455 23.3682" stroke="#434343" stroke-width="5" stroke-miterlimit="34.76" stroke-linecap="round"/>
<path d="M26.0297 54.6377H3.7677" stroke="#434343" stroke-width="5" stroke-miterlimit="34.76" stroke-linecap="round"/>
<path d="M55.4053 80.8408V103.103" stroke="#434343" stroke-width="5" stroke-miterlimit="34.76" stroke-linecap="round"/>
<path d="M32.6827 74.187L24.085 81.5565" stroke="#434343" stroke-width="5" stroke-miterlimit="34.76" stroke-linecap="round"/>
<path d="M74.1873 32.0174L82.785 24.6479" stroke="#434343" stroke-width="5" stroke-miterlimit="34.76" stroke-linecap="round"/>
</svg>
