<?xml version="1.0" encoding="utf-8"?>
<!-- Generator: Adobe Illustrator 24.0.3, SVG Export Plug-In . SVG Version: 6.00 Build 0)  -->
<!DOCTYPE svg PUBLIC "-//W3C//DTD SVG 1.1//EN" "http://www.w3.org/Graphics/SVG/1.1/DTD/svg11.dtd" [
	<!ENTITY ns_extend "http://ns.adobe.com/Extensibility/1.0/">
	<!ENTITY ns_ai "http://ns.adobe.com/AdobeIllustrator/10.0/">
	<!ENTITY ns_graphs "http://ns.adobe.com/Graphs/1.0/">
	<!ENTITY ns_vars "http://ns.adobe.com/Variables/1.0/">
	<!ENTITY ns_imrep "http://ns.adobe.com/ImageReplacement/1.0/">
	<!ENTITY ns_sfw "http://ns.adobe.com/SaveForWeb/1.0/">
	<!ENTITY ns_custom "http://ns.adobe.com/GenericCustomNamespace/1.0/">
	<!ENTITY ns_adobe_xpath "http://ns.adobe.com/XPath/1.0/">
]>
<svg version="1.1" id="Слой_1" xmlns:x="&ns_extend;" xmlns:i="&ns_ai;" xmlns:graph="&ns_graphs;"
	 xmlns="http://www.w3.org/2000/svg" xmlns:xlink="http://www.w3.org/1999/xlink" x="0px" y="0px" viewBox="0 0 204.2 204.3"
	 style="enable-background:new 0 0 204.2 204.3;" xml:space="preserve">
<style type="text/css">
	.st0{fill:#44AA00;}
	.st1{fill:#FFFFFF;}
	.st2{fill:#44AA00;stroke:#44AA00;stroke-width:8.69;stroke-linecap:round;stroke-miterlimit:34.76;}
</style>
<metadata>
	<sfw  xmlns="&ns_sfw;">
		<slices></slices>
		<sliceSourceBounds  bottomLeftOrigin="true" height="204.3" width="204.2" x="0" y="0"></sliceSourceBounds>
	</sfw>
</metadata>
<g>
	<path class="st0" d="M140.2,93.9c0,19.7-16,35.6-35.6,35.6s-35.6-16-35.6-35.6s16-35.6,35.6-35.6C124.2,58.2,140.2,74.2,140.2,93.9
		L140.2,93.9z"/>
	<path class="st0" d="M98.8,111h11.4c6.7,0,12.1,5.4,12.1,12c0,0,0,0,0,0.1v11.4c0,6.7-5.4,12.1-12,12.1c0,0,0,0-0.1,0H98.8
		c-6.7,0-12.1-5.4-12.1-12c0,0,0,0,0-0.1v-11.4C86.7,116.4,92.1,111,98.8,111C98.8,111,98.8,111,98.8,111z"/>
	<path class="st1" d="M95.9,132.7l17.7-3.3c0.6-0.1,1.1,0.3,1.2,0.9s-0.3,1.1-0.9,1.2l-17.7,3.2c-0.6,0.1-1.2-0.2-1.3-0.8
		c-0.1-0.6,0.2-1.2,0.8-1.3C95.8,132.8,95.9,132.8,95.9,132.7z"/>
	<path class="st1" d="M95.9,138.4l17.7-3.2c0.6-0.1,1.1,0.3,1.2,0.9c0.1,0.5-0.3,1-0.8,1.2l-17.7,3.3c-0.6,0.1-1.1-0.3-1.2-0.9
		S95.4,138.5,95.9,138.4z"/>
</g>
<g>
	<path class="st2" d="M156.4,99.2h43.5"/>
	<path class="st2" d="M143.4,61l16.8-14.4"/>
	<g>
		<path class="st2" d="M105.2,156.5V200"/>
		<path class="st2" d="M156.3,99.1h43.4"/>
		<path class="st2" d="M143.3,143.5l14.4,16.8"/>
	</g>
	<g>
		<path class="st2" d="M105.1,47.8V4.3"/>
		<path class="st2" d="M47.8,105.2H4.3"/>
		<path class="st2" d="M60.8,60.8L46.4,44.1"/>
	</g>
	<g>
		<path class="st2" d="M49.3,105.2H5.8"/>
		<path class="st2" d="M106.7,156.4v43.5"/>
		<path class="st2" d="M62.3,143.4l-16.8,14.4"/>
	</g>
</g>
</svg>
