<svg width="513" height="430" viewBox="0 0 513 430" fill="none" xmlns="http://www.w3.org/2000/svg">
<path fill-rule="evenodd" clip-rule="evenodd" d="M240 2.28472C210.055 12.5717 195.926 46.9487 210.352 74.4217C216.064 85.2977 225.507 93.9907 236.438 98.4327C239.522 99.6867 242.235 100.901 242.465 101.132C243.254 101.921 235.106 130.74 230.45 143.63C216.461 182.356 197.695 208.119 175.5 219.063C159.489 226.958 144.37 226.779 127.33 218.492C104.874 207.572 85.5269 185.702 68.6879 152.199C61.8709 138.637 61.5999 137.842 63.4439 136.791C68.4719 133.926 74.2879 127.195 77.6979 120.297C83.8159 107.918 83.4519 93.6017 76.7239 81.9997C68.2459 67.3797 50.4079 58.9337 34.2499 61.8887C12.8879 65.7957 -0.764089 82.8697 0.156911 104.529C0.450911 111.466 1.03291 113.686 4.26591 120.226C9.94991 131.723 20.8509 140.378 32.2119 142.412C35.3919 142.981 36.0139 143.536 36.5559 146.288C36.9039 148.055 45.8089 194.275 56.3439 249L75.4999 348.5H256H436.5L455.656 249C466.191 194.275 475.096 148.055 475.444 146.288C475.985 143.541 476.614 142.977 479.788 142.392C491.358 140.26 502.196 131.598 507.59 120.172C509.581 115.952 511.614 111.719 512.106 110.764C513.266 108.51 513.275 92.7117 512.116 93.4287C511.629 93.7287 510.748 92.0677 510.158 89.7377C507.887 80.7677 499.168 70.5197 489.784 65.7877C466.814 54.2047 439.605 65.9137 431.504 90.8667C430.215 94.8377 429.875 98.3987 430.198 104.556C430.569 111.614 431.191 114.003 434.302 120.297C437.712 127.195 443.528 133.926 448.556 136.791C450.4 137.842 450.129 138.638 443.31 152.199C426.401 185.83 407.733 207.09 385.5 218.038C372.863 224.26 363.801 225.935 352.25 224.183C318.543 219.071 290.11 180.309 273.008 116.156C270.867 108.123 269.304 101.363 269.535 101.132C269.765 100.901 272.478 99.6867 275.562 98.4327C282.92 95.4427 288.078 91.7897 293.834 85.4907C315.295 62.0097 310.542 25.6377 283.712 8.02972C274.988 2.30472 266.885 -0.00628193 255.645 0.0257181C248.841 0.0447181 244.836 0.622717 240 2.28472ZM0.354911 102.5C0.351911 107.45 0.520911 109.601 0.730911 107.28C0.939911 104.959 0.942911 100.909 0.735911 98.2797C0.529911 95.6507 0.357911 97.5497 0.354911 102.5ZM85.4099 369.127C78.6829 370.652 70.9469 375.95 66.8319 381.849C56.0169 397.353 61.6969 418.758 78.8729 427.22L83.4999 429.5H256H428.5L433.127 427.22C439.524 424.069 444.801 418.651 447.889 412.067C449.991 407.584 450.493 405.039 450.468 399C450.416 386.545 444.625 377.402 433.236 371.795L426.543 368.5L258.021 368.35C157.5 368.26 87.8499 368.574 85.4099 369.127Z" fill="white"/>
</svg>
