<svg width="512" height="352" viewBox="0 0 512 352" fill="none" xmlns="http://www.w3.org/2000/svg">
<path fill-rule="evenodd" clip-rule="evenodd" d="M241.942 3.2873C238.335 4.5173 232.724 7.0933 229.472 9.0113C221.664 13.6183 207.554 27.6333 201.286 37.0083C189.797 54.1913 181.115 76.6053 178.213 96.5793C176.271 109.938 175.826 109.103 186.158 111.462C197.948 114.154 206.001 114.98 231.841 116.148C271.875 117.959 312.429 115.631 330.837 110.466L337.08 108.714L336.471 104.107C333.078 78.4453 325.217 56.5703 312.542 37.5203C305.271 26.5923 289.261 11.2383 280.787 7.0663C267.488 0.5203 253.93 -0.798699 241.942 3.2873ZM2.25007 118.123C-0.0769254 120.5 0.822075 129.714 4.43507 140.512C7.96707 151.068 16.7801 169.744 19.1601 171.717C20.1671 172.551 21.8661 172.238 26.0001 170.454C30.3271 168.587 33.3131 168.074 40.0001 168.05C50.4531 168.013 55.5031 170.119 65.0001 178.476C72.4121 184.999 74.4671 186.006 80.3151 185.985C83.9861 185.971 85.6051 185.094 93.5001 178.835C107.464 167.764 114.576 165.499 126.113 168.446C133.272 170.275 137.011 172.486 145.489 179.905C152.448 185.995 157.411 187.702 162.213 185.66C164.021 184.891 168.875 181.562 173 178.262C184.024 169.444 187.374 168 196.811 168C208.402 168 210.603 168.988 225.807 181.012C231.261 185.326 232.722 186 236.622 186C242.133 186 243.436 185.327 252.251 177.925C262.919 168.968 266.236 167.68 277.307 168.191C287.887 168.679 291.748 170.171 298.789 176.496C306.928 183.807 310.832 186 315.705 186C321.159 186 322.756 185.163 331.24 177.862C341.524 169.012 342.814 168.503 355 168.502C367.359 168.5 369.906 169.464 379.025 177.601C386.625 184.382 389.777 186 395.39 186C399.482 186 400.705 185.336 409.185 178.511C419.906 169.881 424.479 168 434.74 168C443.987 168 449.351 170.383 460.359 179.383C468.588 186.111 470.64 186.997 476.148 186.197C483.52 185.127 495.9 168.722 505.759 146.961C510.214 137.127 510.519 135.909 510.846 126.646L511.194 116.791L507.347 117.389C498.904 118.701 442.001 125.114 418 127.458C349.943 134.105 322.044 135.487 256 135.478C194.513 135.47 171.051 134.456 116.5 129.447C74.5561 125.596 19.8171 119.591 7.00007 117.435C4.77207 117.061 3.04607 117.311 2.25007 118.123ZM34.1431 186.89C31.9521 188.278 33.6711 191.516 39.3031 196.613C50.4191 206.672 62.4021 213.022 77.5561 216.882C132.7 230.929 226.555 236.712 321.5 231.912C356.251 230.156 388.622 226.351 419.48 220.395C436.633 217.084 444.054 214.792 452.406 210.228C460.212 205.961 462.469 203.445 459.835 201.945C458.92 201.423 455.545 198.951 452.335 196.452C438.847 185.948 438.938 186 434.072 186C428.979 186 427.742 186.684 418.099 194.827C409.189 202.353 405.235 203.953 395.5 203.972C391.1 203.981 385.814 203.521 383.752 202.948C381.69 202.375 375.844 198.556 370.752 194.455C357.187 183.529 352.833 183.315 341.5 193.018C330.873 202.116 326.459 204 315.772 204C305.499 204 302.584 202.996 295.143 196.893C284.184 187.907 280.981 186 276.841 186C271.839 186 268.582 187.704 261.321 194.124C252.71 201.735 246.672 204.221 236.945 204.157C227.2 204.093 222.732 202.285 213.917 194.841C204.253 186.679 203.024 186 197.917 186C192.774 186 189.052 188.082 180.563 195.707C172.506 202.945 170.933 203.5 158.5 203.5C145.661 203.5 143.484 202.642 133.087 193.478C125.954 187.192 123.574 185.998 118.185 186.004C113.88 186.008 110.447 187.941 103.335 194.367C95.6071 201.348 88.6741 204.168 79.1381 204.21C69.8831 204.25 65.0921 202.438 57.1671 195.9C45.6571 186.404 44.9571 185.999 40.1011 186.015C37.5711 186.024 34.8891 186.418 34.1431 186.89ZM228.5 274.664C221.225 275.596 210.031 278.414 204.616 280.678C183.447 289.529 167.307 308.109 161.106 330.768C158.995 338.485 157.284 352 158.419 352C158.792 352 162.112 348.945 165.798 345.212C178.249 332.6 187.486 328.948 213 326.548C232.997 324.667 240.274 323.115 245.983 319.51C250.265 316.808 255.973 309.763 256.04 307.1C256.063 306.173 256.758 306.761 257.693 308.5C264.159 320.529 271.202 323.75 296 326.016C316.906 327.927 322.046 328.967 330.84 333.067C337.433 336.14 340.757 338.531 346.703 344.477C350.841 348.615 354.604 352 355.066 352C357.647 352 352.43 328.564 347.566 318.309C336.953 295.936 321.408 283.292 296.895 277.093C286.68 274.51 270.452 274.198 266.002 276.499C263.043 278.029 258.826 283.005 257.631 286.376C257.081 287.928 256.575 287.497 254.695 283.876C253.04 280.688 251.213 278.915 247.962 277.343C243.535 275.203 234.262 273.927 228.5 274.664Z" fill="white"/>
</svg>
