<svg id="Layer_1" data-name="Layer 1" xmlns="http://www.w3.org/2000/svg" viewBox="0 0 597.07 320"><defs><style>.cls-1{fill:#fff;}.cls-2{fill:#a9abae;}.cls-3{fill:#a8cf46;}.cls-4{fill:#a8cf47;}.cls-5{fill:#a8ce47;}.cls-6{fill:#a8cf45;}</style></defs><path class="cls-1" d="M190.8,469.79h-81v-48.5h64.71V405.05H109.83V388.82h81Zm-16.27-16.2v-16H126.08v16Z" transform="translate(0.7 -223.57)"/><path class="cls-1" d="M417.55,427.07c0-6.44,0-12.87,0-19.31,0-12.29,9.68-20.4,17.85-22.37a26.25,26.25,0,0,1,5.92-.77c9.43-.08,18.87-.11,28.3,0,8,.08,14.42,3.46,19.48,9.51a20.16,20.16,0,0,1,4.79,13.13c.07,12.55.12,25.1,0,37.65a25.44,25.44,0,0,1-20.14,24.49,25.06,25.06,0,0,1-4.89.44c-9.59,0-19.19-.09-28.78.05-13,.18-21.09-10.46-22.2-19.69a56.75,56.75,0,0,1-.31-6c0-5.71,0-11.43,0-17.14Zm14.53.16v16.66c0,6.94,5,10.5,10.45,10.38,8.23-.18,16.46,0,24.7-.06A11.11,11.11,0,0,0,478.58,443c.08-11.07,0-22.14,0-33.21a7.93,7.93,0,0,0-2.5-5.77,12.36,12.36,0,0,0-9-3.54q-11-.06-21.94,0a17.11,17.11,0,0,0-8.26,2.1,8.58,8.58,0,0,0-4.82,8.18C432.13,416.28,432.08,421.75,432.08,427.23Z" transform="translate(0.7 -223.57)"/><path class="cls-1" d="M252.77,426.11l21.17,19,16.88,15.13a7.76,7.76,0,0,1,2.81,7.14,5.86,5.86,0,0,1-7.1,5.18,11.35,11.35,0,0,1-5.38-2.72Q262.57,453.93,244,438l-3.62-3.1c-1.72,1.07-3.47,2.1-5.14,3.24a1.86,1.86,0,0,0-.45,1.34c0,8.63-.06,17.27,0,25.9a4.5,4.5,0,0,1-2.63,4.43c-4.45,2.32-8.32,1.26-11.8-2a3.73,3.73,0,0,1-.68-1.72,4.72,4.72,0,0,1,0-1.19q0-51.33,0-102.64c0-3.1.82-5.54,3.17-7.48a7.7,7.7,0,0,1,7.66-1.42c2.76.89,3.79,3.13,4.14,5.77a24.79,24.79,0,0,1,.18,3.23q0,27.51,0,55v1.69l1.16-.85L274,389.36a12.58,12.58,0,0,1,6.8-2.67c5.18-.38,8.4,3.62,6.89,8.6a9.4,9.4,0,0,1-3.17,4.55l-30.77,25.42C253.46,425.51,253.17,425.77,252.77,426.11Z" transform="translate(0.7 -223.57)"/><path class="cls-1" d="M596.34,387.28q0,8.34,0,16.67,0,32.91,0,65.83H579.94V403.87H530.23v65.9H513.91V387.32c.27,0,.57-.07.87-.07h80.84Z" transform="translate(0.7 -223.57)"/><path class="cls-1" d="M16.27,397H5.73c-3.58,0-5.08-1.21-5.74-4.73a13.59,13.59,0,0,1,.38-6.64c.82-2.63,2.07-3.57,4.81-3.58,3.2,0,6.4,0,9.6,0h1.49v-1.3c0-6.24,0-12.47,0-18.71a4.32,4.32,0,0,1,3-4.52c2.89-1.07,5.8-1.52,8.65.18a4.67,4.67,0,0,1,2.45,4.35c0,6.19,0,12.39,0,18.58v1.42h1.5c10.2,0,20.39,0,30.59,0A4.64,4.64,0,0,1,66,383.53c2.89,2.89,3.76,6.4,2.37,9.72A5.46,5.46,0,0,1,62.69,397H30.35v49.35a7.85,7.85,0,0,0,7.49,7.79c5.87.1,11.75.06,17.62,0,2.42,0,4-1.52,5.42-3.33,1.2-1.59,2.33-3.24,3.58-4.8a28.83,28.83,0,0,1,3-3.28c2.62-2.41,7.77-1,8.76,2.37a17.69,17.69,0,0,1,.42,4.61c0,1.75-.27,3.51-.26,5.26a10.76,10.76,0,0,1-4.19,8.77c-4.66,3.81-9.85,6.25-16.09,6.1-5.67-.14-11.35-.05-17,0a23.9,23.9,0,0,1-19.15-9,15.41,15.41,0,0,1-3.64-10.27q0-26,0-51.92Z" transform="translate(0.7 -223.57)"/><path class="cls-1" d="M350.8,455.32V400.19H333.26c-3.64,0-5.27-1.3-5.94-4.88a9.37,9.37,0,0,1,1.24-7,4.4,4.4,0,0,1,3.9-2.18h30.7a8.6,8.6,0,0,1,1.42.17c2.65.48,3.31,1.26,3.31,3.93v65.1h16.63a6.62,6.62,0,0,1,6.75,5.79,9,9,0,0,1-1.91,7.07,4,4,0,0,1-3.4,1.68q-25.24,0-50.49,0c-4.16,0-7.08-4.18-6-8.5a14.38,14.38,0,0,1,1.52-3.49,4.89,4.89,0,0,1,4.57-2.54c4.6,0,9.2,0,13.79,0Z" transform="translate(0.7 -223.57)"/><path class="cls-2" d="M450.87,274.9l18.11-15,4.17,5.28c2.67,3.39,5.32,6.8,8,10.16a1.19,1.19,0,0,1-.08,1.9,155.29,155.29,0,0,1-15.9,14.2c-.93.73-1.25.11-1.69-.44l-9.91-12.63C452.7,277.23,451.81,276.11,450.87,274.9Z" transform="translate(0.7 -223.57)"/><path class="cls-3" d="M363.86,357.24c0,2.63,0,5.27,0,7.91,0,1.71-.55,2.37-2.2,2.75a1.12,1.12,0,0,1-.23.06c-5.19,0-10.39.14-15.56-.09-2.52-.12-3.09-1.15-3.09-3.64,0-4.83,0-9.66,0-14.5a3.92,3.92,0,0,1,3.55-4.21,10.37,10.37,0,0,1,1.67-.15c3.68,0,7.35,0,11,0a7.73,7.73,0,0,1,2.34.36c1.86.6,2.48,1.52,2.49,3.47C363.87,351.88,363.86,354.56,363.86,357.24Z" transform="translate(0.7 -223.57)"/><path class="cls-2" d="M438.93,308.61l-10.67-18.39,16.44-10.58,12.61,17.15Z" transform="translate(0.7 -223.57)"/><path class="cls-1" d="M413.52,319.91c-3-6.19-6-12.31-9-18.41L423,292.94l10,18.53A110.44,110.44,0,0,1,413.52,319.91Z" transform="translate(0.7 -223.57)"/><path class="cls-1" d="M148,517.21q-1.71,6.76-3.41,13.52c-.31,1.2-.61,2.4-1,3.59a2.95,2.95,0,0,1-5.76.07c-.94-3.38-1.77-6.78-2.64-10.18-.58-2.27-1.14-4.54-1.95-6.8v1.15c0,4.92,0,9.83,0,14.75a6.6,6.6,0,0,1-.21,1.77,2,2,0,0,1-2.13,1.58,2.06,2.06,0,0,1-2.16-1.55,6.14,6.14,0,0,1-.22-1.77c0-6.35,0-12.7,0-19.05,0-2.48.76-3.24,3.2-3.28,4.39-.07,4.4-.07,5.53,4.12,1,3.77,2,7.55,3,11.33.11.4.23.8.45,1.55.24-.78.38-1.21.5-1.65,1.13-4.24,2.23-8.48,3.38-12.71.62-2.3,1.07-2.62,3.43-2.64.72,0,1.44,0,2.16,0,1.88.09,2.68.89,2.73,2.76s0,3.6,0,5.4v14.14c0,2.24-.8,3.34-2.38,3.34s-2.35-1.11-2.36-3.35V517.26Z" transform="translate(0.7 -223.57)"/><path class="cls-1" d="M407.72,321.72a104.63,104.63,0,0,1-18.45,4.68L382,307.27,392,304.79c2.25-.55,4.49-1.12,6.75-1.61a1.24,1.24,0,0,1,1.09.41C402.5,309.57,405.08,315.57,407.72,321.72Z" transform="translate(0.7 -223.57)"/><path class="cls-2" d="M442.93,314.4l19.7-12.35c.56.78,1.08,1.47,1.57,2.19,2.17,3.16,4.32,6.34,6.51,9.49.45.64.52,1-.17,1.56a168.06,168.06,0,0,1-18.67,12.14,2.46,2.46,0,0,1-.44.11Z" transform="translate(0.7 -223.57)"/><path class="cls-3" d="M500.32,253.92l-8.92-9.46c-1.94-2.07-3.9-4.12-5.8-6.23a1.3,1.3,0,0,1-.25-1.16c2.6-4.45,5.25-8.87,7.89-13.29,0-.06.12-.09.29-.21.26.24.56.47.83.74,4.36,4.34,8.7,8.71,13.07,13a1.36,1.36,0,0,1,.37,1.86C505.33,244,502.89,248.86,500.32,253.92Z" transform="translate(0.7 -223.57)"/><path class="cls-1" d="M417.73,519.48v5.13q0,4.3,0,8.63a7.7,7.7,0,0,1-.14,1.66,2.22,2.22,0,0,1-2.26,1.77,2.2,2.2,0,0,1-2.23-1.8,8.86,8.86,0,0,1-.15-1.78q0-9.11,0-18.22a12.18,12.18,0,0,1,.13-1.91,2.67,2.67,0,0,1,2-2.26,2.62,2.62,0,0,1,2.85.71,8.94,8.94,0,0,1,1.08,1.43l9.68,14.69.65.91v-4.8c0-3.32,0-6.63,0-9.95a5.65,5.65,0,0,1,.23-1.64,2,2,0,0,1,2.2-1.48,2.08,2.08,0,0,1,2.09,1.65,7.52,7.52,0,0,1,.18,1.9q0,9.28,0,18.57,0,.66-.06,1.32a2.52,2.52,0,0,1-1.57,2.46,3,3,0,0,1-3.26-.55,14,14,0,0,1-2-2.51c-2.87-4.32-5.69-8.68-8.52-13l-.66-1Z" transform="translate(0.7 -223.57)"/><path class="cls-1" d="M480.48,525.57c0,2.56,0,5.11,0,7.66a6.61,6.61,0,0,1-.19,1.66,2.47,2.47,0,0,1-4.78-.14,7.87,7.87,0,0,1-.11-1.68q0-9.23,0-18.46c0-2.9.71-3.62,3.62-3.59,3.68,0,7.37-.07,11,.24a6.24,6.24,0,0,1,5.83,5.72c.37,3.71-1.09,6.07-4.56,7.34-.48.18-1,.31-1.11.08.79,1,1.66,2,2.35,3.12,1.24,2,2.41,3.94,3.52,6a1.93,1.93,0,0,1-.52,2.68,2.6,2.6,0,0,1-3.12,0,6.44,6.44,0,0,1-1.32-1.53c-1.19-1.89-2.37-3.79-3.48-5.73C486.05,526.19,483.8,524.93,480.48,525.57Zm.06-10.66v6.87c1.72,0,3.39,0,5.06,0a11.87,11.87,0,0,0,2.14-.23,3.19,3.19,0,0,0,2.85-2.2,3.29,3.29,0,0,0-3.2-4.39C485.14,514.79,482.86,514.91,480.54,514.91Z" transform="translate(0.7 -223.57)"/><path class="cls-1" d="M401.81,523.69a43.18,43.18,0,0,1-.84,4.81c-1.65,5.76-7,8.88-13.36,8.1-8.14-1-11-7.29-10.65-14.06a15.65,15.65,0,0,1,.47-3.19c1.58-6.19,6.87-9.58,13.5-8.7C397.94,511.57,401.66,516.08,401.81,523.69Zm-20-.11a38.44,38.44,0,0,0,1.6,5.47,6,6,0,0,0,5.68,3.54,6.22,6.22,0,0,0,6.06-3.35,11.75,11.75,0,0,0,0-11.26c-1.24-2.44-3.5-3.42-6.18-3.34a6,6,0,0,0-5.71,3.68A44.07,44.07,0,0,0,381.78,523.58Z" transform="translate(0.7 -223.57)"/><path class="cls-1" d="M117.74,523.69a42.39,42.39,0,0,1-.84,4.81c-1.65,5.76-7,8.88-13.36,8.1-8.29-1-11-7.5-10.64-14.18a16.37,16.37,0,0,1,.69-3.87c1.75-5.65,7-8.72,13.27-7.9C113.86,511.55,117.59,516.09,117.74,523.69Zm-20-.12a35.33,35.33,0,0,0,1.33,5.08,6.13,6.13,0,0,0,5.92,3.94,6.26,6.26,0,0,0,6.21-3.68,11.92,11.92,0,0,0,0-10.64,6.3,6.3,0,0,0-6.37-3.63,6.07,6.07,0,0,0-5.8,3.91A37.58,37.58,0,0,0,97.77,523.57Z" transform="translate(0.7 -223.57)"/><path class="cls-1" d="M286.1,523.63a45.64,45.64,0,0,1-.8,4.7c-1.78,6.34-7.13,8.94-13.35,8.24-6.57-.73-10.42-5-10.69-11.82a20.05,20.05,0,0,1,.56-5.68c1.55-6,6.84-9.26,13.33-8.43C282.17,511.53,285.92,516,286.1,523.63Zm-5.16-.1a34.1,34.1,0,0,0-1.09-4.7,6.81,6.81,0,0,0-12.64.13,12.92,12.92,0,0,0-.16,8.8,6.8,6.8,0,0,0,13,.08A34.39,34.39,0,0,0,280.94,523.53Z" transform="translate(0.7 -223.57)"/><path class="cls-1" d="M531.3,523.67a40.79,40.79,0,0,1-.79,4.7c-1.63,5.84-7,9.07-13.38,8.22-6.58-.87-10.35-5-10.66-12a18.85,18.85,0,0,1,.55-5.45c1.55-6.06,6.85-9.34,13.39-8.49C527.43,511.55,531.14,516.05,531.3,523.67Zm-19.94-.22.19.08c.13,1,.18,2.07.39,3.08.7,3.4,3,5.63,6,6a6.62,6.62,0,0,0,7-4.06,12.22,12.22,0,0,0-.13-10.11,6.33,6.33,0,0,0-6.3-3.76,6.06,6.06,0,0,0-5.93,3.89A38.67,38.67,0,0,0,511.36,523.45Z" transform="translate(0.7 -223.57)"/><path class="cls-1" d="M379,308.6l4.74,13.53c.54,1.53,1.08,3.06,1.67,4.75-1.48.2-2.84.46-4.22.56-3.34.25-6.69.44-10,.59-.37,0-1-.24-1.11-.52-2.3-6.28-4.54-12.57-6.83-18.95l2.54-.23c.48,0,1,.07,1.43.05,3.47-.17,6.94-.33,10.4-.54A1.26,1.26,0,0,1,379,308.6Z" transform="translate(0.7 -223.57)"/><path class="cls-1" d="M208.26,536.9c.78.27,1.37.45,1.94.68a2.54,2.54,0,0,1,1.8,2.31,2.5,2.5,0,0,1-1.49,2.65,19.7,19.7,0,0,1-4.5,1,7.71,7.71,0,0,1-2.71-.36c-.33-.08-.57-.53-.85-.81.32-.3.61-.79,1-.84a23.78,23.78,0,0,1,2.39,0,6,6,0,0,0,2.1-.31,1.66,1.66,0,0,0,.78-1.27,1.52,1.52,0,0,0-1-1c-.53-.18-1.19,0-1.77-.06a6.66,6.66,0,0,1-1.36-.57,11,11,0,0,1,.92-1.21c.17-.17.49-.19.82-.31-.14-.12-.21-.24-.3-.25-6-.63-8.89-5.59-9.59-10a16,16,0,0,1,.93-8.93c3.07-7.25,13-9.4,18.82-4.08a7.19,7.19,0,0,1,2.43,4.16,2.36,2.36,0,0,1-1.36,2.66,2.25,2.25,0,0,1-2.71-1,14.69,14.69,0,0,1-1.06-1.74c-2.17-4.18-8.67-3.93-10.87.44a13.85,13.85,0,0,0-1,8.07,10.68,10.68,0,0,0,.81,2.87c1.12,2.58,3.27,3.78,6.27,3.63a6.06,6.06,0,0,0,5.49-4.3c.3-.94.63-1.84,1.68-2.16,1.79-.55,3.28,1,2.82,3a9.06,9.06,0,0,1-6.07,6.85A33.73,33.73,0,0,1,208.26,536.9Z" transform="translate(0.7 -223.57)"/><path class="cls-3" d="M496.66,290.62,488,280.21c4.78-6,9.51-11.9,14.3-17.91,1.19,1.52,2.37,3,3.53,4.52s2.32,3,3.42,4.48a1.27,1.27,0,0,1,.16,1.11A123.43,123.43,0,0,1,496.66,290.62Z" transform="translate(0.7 -223.57)"/><path class="cls-1" d="M575.72,514.92v6.2h5c1.88,0,3.75,0,5.63,0,1.44,0,2.23.8,2.19,2s-.79,1.83-2.2,1.84c-3.12,0-6.23,0-9.35,0h-1.27v7.18h5.15c2.27,0,4.55,0,6.83,0,1.49,0,2.26.82,2.24,2.09s-.82,1.94-2.25,1.94q-7.2,0-14.39,0c-1.8,0-2.62-.8-2.78-2.61-.09-1,0-2,0-3,0-5.32,0-10.63,0-16,0-2.88.76-3.65,3.6-3.65h12.58c.32,0,.65,0,1,0a1.93,1.93,0,0,1,1.94,1.89,1.84,1.84,0,0,1-2,2c-3.51.06-7,0-10.55,0Z" transform="translate(0.7 -223.57)"/><path class="cls-1" d="M311.14,525v7.18h10.68a13.26,13.26,0,0,1,1.67,0,2,2,0,0,1,1.95,2,2,2,0,0,1-2.12,2c-4.92,0-9.83,0-14.75,0a2.28,2.28,0,0,1-2.54-2.56q-.06-10,0-20a2.34,2.34,0,0,1,2.65-2.59c4.71,0,9.43,0,14.14,0,1.43,0,2.22.78,2.19,2s-.77,1.88-2.16,1.89c-3.43,0-6.87,0-10.31,0h-1.37v6.14c.29,0,.63.06,1,.06h9a7.66,7.66,0,0,1,1.07,0,1.9,1.9,0,0,1,1.82,2,1.83,1.83,0,0,1-2,1.79c-2.92,0-5.84,0-8.76,0Z" transform="translate(0.7 -223.57)"/><path class="cls-1" d="M53.18,520.55c0,2.36.09,4.72,0,7.08-.22,5.21-2.93,8.29-8.09,8.84a21.33,21.33,0,0,1-6.76-.4c-3.92-.84-6.07-3.81-6.21-8.32-.14-4.79-.08-9.59-.06-14.39,0-1.75,1-2.78,2.46-2.8a2.52,2.52,0,0,1,2.59,2.82c0,4.2,0,8.39,0,12.59a16.46,16.46,0,0,0,.23,2.62,4.34,4.34,0,0,0,4.24,4c4.2.48,6.39-1.4,6.51-5.77.09-3.51,0-7,0-10.55,0-1,0-2,0-3a2.53,2.53,0,1,1,5.05,0c0,2.44,0,4.88,0,7.31Z" transform="translate(0.7 -223.57)"/><path class="cls-1" d="M245.07,530.21c-3.2,0-6.35,0-9.51,0a1.33,1.33,0,0,0-.95.73c-.62,1.37-1.09,2.82-1.71,4.2a2.13,2.13,0,0,1-2.89,1.34,2.29,2.29,0,0,1-1.48-3.08c.92-2.59,1.94-5.14,2.94-7.7,1.6-4.08,3.2-8.16,4.83-12.23.88-2.21,2.1-3.08,4-2.94s2.78,1.37,3.41,2.94c2,5,4,10,6,15,.68,1.7,1.37,3.4,1.93,5.14a2.29,2.29,0,0,1-1.58,2.92,2.25,2.25,0,0,1-2.94-1.35C246.4,533.59,245.78,532,245.07,530.21Zm-1.34-3.88c-1.27-3.47-2.49-6.8-3.79-10.37-1.29,3.58-2.49,6.94-3.72,10.37Z" transform="translate(0.7 -223.57)"/><path class="cls-1" d="M22.76,534.14a2.59,2.59,0,0,1-1.88,2.44,2.12,2.12,0,0,1-2.64-1.1c-.71-1.46-1.31-3-1.88-4.51a1,1,0,0,0-1.13-.77q-4.31,0-8.63,0a1,1,0,0,0-1.11.77c-.52,1.42-1,2.84-1.66,4.22a2.12,2.12,0,0,1-2.9,1.32,2.25,2.25,0,0,1-1.48-3c.87-2.52,1.87-5,2.85-7.48,1.68-4.3,3.35-8.61,5.09-12.89.93-2.28,2.85-3.15,4.9-2.37a4.54,4.54,0,0,1,2.45,2.94l5.13,12.75c.76,1.88,1.54,3.76,2.28,5.65C22.42,532.84,22.59,533.58,22.76,534.14Zm-15.6-7.82h7.5c-1.26-3.44-2.48-6.79-3.79-10.35C9.58,519.55,8.39,522.88,7.16,526.32Z" transform="translate(0.7 -223.57)"/><path class="cls-1" d="M186.61,533.87a2.6,2.6,0,0,1-1.84,2.72,2.15,2.15,0,0,1-2.63-1.13,46.27,46.27,0,0,1-1.78-4.3,1.21,1.21,0,0,0-1.35-1c-2.79.06-5.59,0-8.39,0a1.13,1.13,0,0,0-1.27.91c-.51,1.42-1,2.84-1.67,4.22a2.08,2.08,0,0,1-2.63,1.27,2.35,2.35,0,0,1-1.78-2.61,6.37,6.37,0,0,1,.46-1.6q3.65-9.36,7.34-18.69a4.31,4.31,0,0,1,2.45-2.91c2.07-.73,3.91.14,4.89,2.43,1.07,2.49,2,5,3.05,7.53q2.29,5.65,4.57,11.3C186.3,532.74,186.48,533.48,186.61,533.87ZM174.78,516c-1.3,3.63-2.48,7-3.7,10.35h7.49C177.31,522.87,176.1,519.56,174.78,516Z" transform="translate(0.7 -223.57)"/><path class="cls-1" d="M344,523.35a36.6,36.6,0,0,1,1-5.05A12,12,0,0,1,363.52,513a7.93,7.93,0,0,1,2.93,4.13c.55,2-.57,3.55-2.36,3.27a2.7,2.7,0,0,1-1.46-.89,16.87,16.87,0,0,1-1.21-1.92,6.15,6.15,0,0,0-10.8.46,12.71,12.71,0,0,0-.12,11.34A5.61,5.61,0,0,0,356,532.6a5.81,5.81,0,0,0,5.61-3.18c.3-.56.51-1.17.77-1.75.64-1.44,1.53-1.91,2.83-1.51a2.25,2.25,0,0,1,1.45,2.69,8.51,8.51,0,0,1-4.24,6.22,11.78,11.78,0,0,1-17.66-7.1C344.35,526.55,344.25,525.07,344,523.35Z" transform="translate(0.7 -223.57)"/><path class="cls-1" d="M411.56,328.69,418.64,341c-1.89.41-3.67.91-5.48,1.16-4.39.6-8.79,1.09-13.18,1.59a1.19,1.19,0,0,1-1-.43c-2-3.39-4-6.81-6-10.4Z" transform="translate(0.7 -223.57)"/><path class="cls-2" d="M464.78,342.05c-2-3.23-4-6.29-6-9.46,1.22-.75,2.41-1.4,3.51-2.16,4.42-3,8.83-6.05,13.2-9.13.75-.54,1.13-.62,1.69.21,1.85,2.75,3.77,5.44,5.73,8.26A152.52,152.52,0,0,1,464.78,342.05Z" transform="translate(0.7 -223.57)"/><path class="cls-1" d="M431.91,356.18c-4.46.87-8.74,1.82-13.06,2.49-3.39.53-6.84.68-10.25,1-.7.07-1-.2-1.34-.81-1.08-2-2.27-3.85-3.4-5.77-.4-.68-.75-1.38-1.18-2.19a126.79,126.79,0,0,0,23.74-4.21C428.21,349.8,430,352.87,431.91,356.18Z" transform="translate(0.7 -223.57)"/><path class="cls-1" d="M360.43,313.16c2,4.6,4,9.19,6.12,14-2-.38-3.83-.89-5.71-1.06-3.69-.34-6.12-2.43-8.07-5.34-4.13-6.12-6.73-12.91-8.8-19.94a.65.65,0,0,1,0-.25l5.32,3.93c2.42,1,4.8,2,7.27,2.88a2.77,2.77,0,0,1,2,1.69C359.12,310.44,359.81,311.79,360.43,313.16Z" transform="translate(0.7 -223.57)"/><path class="cls-2" d="M488.47,325.13l-6.84-8.42,15.24-14.61,2,2.45,4.14,4.95c.42.5.69.93.08,1.53-4.78,4.64-9.53,9.3-14.3,14C488.78,325,488.69,325,488.47,325.13Z" transform="translate(0.7 -223.57)"/><path class="cls-1" d="M436.91,354.49l-5.66-9,19.67-8.28,5.82,9.16A134.41,134.41,0,0,1,436.91,354.49Z" transform="translate(0.7 -223.57)"/><path class="cls-3" d="M399.78,275.55l-9.54-9.14L401.39,255l9.39,10Z" transform="translate(0.7 -223.57)"/><path class="cls-1" d="M452.21,515.22h-4.95a9.26,9.26,0,0,1-1.67-.14,2,2,0,0,1-.24-3.84,4.52,4.52,0,0,1,1.41-.22c5.35,0,10.71,0,16.06,0a4.74,4.74,0,0,1,1.07.09,1.94,1.94,0,0,1,1.63,2.07,1.84,1.84,0,0,1-1.75,1.94c-1.27.11-2.55.09-3.83.11h-2.61v1.31c0,5.39,0,10.79,0,16.18a11.61,11.61,0,0,1-.09,1.67,2.37,2.37,0,0,1-2.32,2.29,2.4,2.4,0,0,1-2.58-2.16,7.93,7.93,0,0,1-.12-1.54q0-8.16,0-16.3Z" transform="translate(0.7 -223.57)"/><path class="cls-1" d="M76.44,515.22v4.32c0,4.51,0,9,0,13.54a8.35,8.35,0,0,1-.17,1.66,2.33,2.33,0,0,1-2.51,1.93,2.39,2.39,0,0,1-2.33-2.17,15.25,15.25,0,0,1-.09-2q0-7.9,0-15.82v-1.43H66.69a11,11,0,0,1-1.91-.13,1.8,1.8,0,0,1-1.59-1.82,1.84,1.84,0,0,1,1.29-2,3.6,3.6,0,0,1,1.17-.2H82.08a3.88,3.88,0,0,1,.83.07,2,2,0,0,1,1.71,2.13,1.85,1.85,0,0,1-1.79,1.9c-1.39.11-2.79.09-4.19.11Z" transform="translate(0.7 -223.57)"/><path class="cls-1" d="M547.4,532.05h9.88c2,0,3,.71,3.05,2.08s-1,2.08-3,2.09H545.56c-2.44,0-3.26-.77-3.27-3.21q0-9.64,0-19.29c0-2.2,1.11-3.35,2.84-3.14,1.45.17,2.26,1.25,2.26,3.15,0,5.07,0,10.14,0,15.22Z" transform="translate(0.7 -223.57)"/><path class="cls-1" d="M402.38,359.75a88.72,88.72,0,0,1-17.76-2.29,6.83,6.83,0,0,1-4.92-3.5c-1.09-2-2.23-3.89-3.35-5.84l.34-.29c.49.1,1,.16,1.47.3A69.06,69.06,0,0,0,396,350.84a1.74,1.74,0,0,1,1.69,1C399.18,354.42,400.73,357,402.38,359.75Z" transform="translate(0.7 -223.57)"/><path class="cls-3" d="M378.18,255.14c2.86,3.14,5.59,6.15,8.38,9.2L378,274.48l-8.51-8.88C372.37,262.12,375.22,258.7,378.18,255.14Z" transform="translate(0.7 -223.57)"/><path class="cls-3" d="M390.94,239.47l-9.36,8.15-8.05-9.23,9.8-9.35Z" transform="translate(0.7 -223.57)"/><path class="cls-4" d="M367.64,260.75l-7.54-8.4,10.24-9.45c2.06,2.5,4.51,5.48,6.86,8.32Z" transform="translate(0.7 -223.57)"/><path class="cls-3" d="M359.47,280.17l7.63-11.53c.88.95,1.63,1.81,2.42,2.62,1.78,1.84,3.58,3.66,5.34,5.51.24.26.51.85.39,1.06-2.14,3.5-4.33,7-6.61,10.59Z" transform="translate(0.7 -223.57)"/><path class="cls-4" d="M370.67,293.6,377.81,282l9.88,8.09-5.8,9.66Z" transform="translate(0.7 -223.57)"/><path class="cls-3" d="M395,239.34l8.88-8.4,8.36,9.78-9.42,8C400.22,245.58,397.64,242.49,395,239.34Z" transform="translate(0.7 -223.57)"/><path class="cls-4" d="M351.58,286.63c-2.95-2-5.72-4-8.53-5.88a.82.82,0,0,1-.28-1.29c1-1.7,1.87-3.43,2.85-5.12,1.37-2.33,2.79-4.63,4.25-7,2.36,2.53,4.69,5,7,7.49a1.06,1.06,0,0,1,.17.92C355.25,279.32,353.44,282.91,351.58,286.63Z" transform="translate(0.7 -223.57)"/><path class="cls-4" d="M357.93,282.41l9.56,8.34-4.68,11.38L359.34,299c-1.87-1.69-3.75-3.36-5.57-5.1a1.46,1.46,0,0,1-.41-1.26C354.8,289.32,356.32,286,357.93,282.41Z" transform="translate(0.7 -223.57)"/><path class="cls-4" d="M521.93,285.43c-2.43-2.79-4.72-5.39-7-8a1.17,1.17,0,0,1,0-1c2-4.22,4-8.42,6-12.74l1.25,1.2c1.34,1.33,2.68,2.64,4,4a1.29,1.29,0,0,1,.38,1c-1.08,4.24-2.19,8.47-3.37,12.69A24.28,24.28,0,0,1,521.93,285.43Z" transform="translate(0.7 -223.57)"/><path class="cls-1" d="M394.41,344.27c-3.45-.26-6.81-.65-10.17-.73-2.87-.06-4.54-1.39-5.71-3.9-.93-2-2.22-3.83-3.36-5.77,1.39,0,2.69,0,4,0,2.83,0,5.66-.11,8.49-.11a1.54,1.54,0,0,1,1.15.49c1.88,3.11,3.69,6.24,5.52,9.38A3.31,3.31,0,0,1,394.41,344.27Z" transform="translate(0.7 -223.57)"/><path class="cls-5" d="M379,308.6a1.26,1.26,0,0,0-1.42-.76c-3.46.21-6.93.37-10.4.54-.47,0-.95,0-1.43-.05,1.12-3.64,2.23-7.29,3.37-11a6.24,6.24,0,0,1,.74.25c3.28,1.63,6.55,3.28,9.85,4.89.65.32.89.66.66,1.38C379.83,305.4,379.4,307,379,308.6Z" transform="translate(0.7 -223.57)"/><path class="cls-4" d="M516.86,230.34c1.46,1.36,2.79,2.56,4.07,3.81a1.22,1.22,0,0,1,.34.93q-1.07,6.72-2.2,13.43s0,.05-.16.18c-1.43-1.24-2.88-2.48-4.29-3.74-2.4-2.13-2.4-2.14-1.29-5.16S515.64,233.61,516.86,230.34Z" transform="translate(0.7 -223.57)"/><path class="cls-5" d="M360.43,313.16c-.62-1.37-1.31-2.72-1.86-4.12a2.77,2.77,0,0,0-2-1.69c-2.47-.84-4.85-1.91-7.27-2.88.91-2.83,1.81-5.66,2.79-8.7l2.62,2.49c2.21,2.08,4.4,4.16,6.63,6.22a1.55,1.55,0,0,1,.53,1.67C361.34,308.47,360.9,310.82,360.43,313.16Z" transform="translate(0.7 -223.57)"/><path class="cls-1" d="M375.44,341.89q-5.24-2.08-10.47-4.19a1.25,1.25,0,0,1-.61-.52c-1-2-2.05-4-3.23-6.34,3.11.75,5.84,1.39,8.57,2.06a1,1,0,0,1,.52.45c1.82,2.7,3.63,5.42,5.44,8.13Z" transform="translate(0.7 -223.57)"/><path class="cls-1" d="M241.55,509.06c-.56-.2-1.49-.53-2.41-.88-.6-.23-1.17-.52-1.77-.73a1.47,1.47,0,0,0-2.15,1c-.14.4-.73.64-1.12.95-.25-.45-.69-.9-.71-1.36a3.06,3.06,0,0,1,4.18-3.11c1.1.35,2.13.89,3.2,1.3,1.39.53,1.77.32,2.41-1a1.59,1.59,0,0,1,1-.82c.21,0,.68.5.79.86C245.43,507,243.75,509.1,241.55,509.06Z" transform="translate(0.7 -223.57)"/><rect class="cls-6" x="342.66" y="121.99" width="21.27" height="22.2" rx="4.02"/></svg>