<svg width="164" height="353" viewBox="0 0 164 353" fill="none" xmlns="http://www.w3.org/2000/svg">
<path fill-rule="evenodd" clip-rule="evenodd" d="M117.97 81.0532C128.84 80.4212 133.674 85.4212 132.47 96.0532C131.137 98.7202 129.803 101.386 128.47 104.053C101.271 139.591 72.9382 174.258 43.4702 208.053C42.9702 212.886 45.1372 215.053 49.9702 214.553C64.6772 198.181 79.0112 181.514 92.9702 164.553C102.777 164.206 109.943 168.372 114.47 177.053C107.378 198.189 95.0442 215.856 77.4702 230.053C76.3032 235.553 78.4702 237.72 83.9702 236.553C96.2522 226.937 106.418 215.437 114.47 202.053C117.47 196.386 120.47 190.72 123.47 185.053C134.265 183.638 141.265 188.305 144.47 199.053C145.594 201.995 145.928 204.995 145.47 208.053C138.771 226.928 127.271 242.261 110.97 254.053C109.445 259.362 111.445 261.862 116.97 261.553C133.911 248.848 146.411 232.681 154.47 213.053C158.389 214.637 161.389 217.303 163.47 221.053C164.6 232.575 163.6 243.908 160.47 255.053C151.158 284.015 137.492 310.681 119.47 335.053C103.458 353.063 84.6252 356.897 62.9702 346.553C57.5842 342.29 52.7512 337.456 48.4702 332.053C34.1402 312.067 20.8065 291.4 8.47023 270.053C-0.790965 251.41 -2.45767 232.077 3.47023 212.053C5.13693 208.72 6.80353 205.386 8.47023 202.053C39.1202 156.563 75.6202 116.229 117.97 81.0532Z" fill="#FDFDFD"/>
<path fill-rule="evenodd" clip-rule="evenodd" d="M39.9702 84.0527C44.2622 83.5877 48.2622 84.4207 51.9702 86.5527C60.5752 93.2807 66.5752 101.781 69.9702 112.053C61.2872 120.902 52.7872 129.902 44.4702 139.053C43.9042 132.321 42.9042 125.655 41.4702 119.053C38.1832 109.25 36.1832 99.2497 35.4702 89.0527C36.8362 87.1907 38.3362 85.5247 39.9702 84.0527Z" fill="#FAFAFA"/>
<path fill-rule="evenodd" clip-rule="evenodd" d="M46.5 0.500242C58.573 -0.266258 67.407 4.73374 73 15.5002C76.654 22.3001 79.82 29.3001 82.5 36.5002C84.877 27.2445 89.21 19.0778 95.5 12.0002C105.244 4.86734 115.077 4.70064 125 11.5002C128.808 17.4401 129.475 23.7734 127 30.5002C124.252 35.2522 120.752 39.4189 116.5 43.0002C104.712 51.7866 93.212 60.9533 82 70.5002C72.411 61.5743 62.245 53.4076 51.5 46.0002C44.211 39.9105 39.045 32.4105 36 23.5002C33.653 13.0041 37.153 5.33744 46.5 0.500242Z" fill="#FBFBFB"/>
</svg>
