<svg width="128" height="121" viewBox="0 0 128 121" fill="none" xmlns="http://www.w3.org/2000/svg">
<path fill-rule="evenodd" clip-rule="evenodd" d="M69.2833 86.4066C70.4813 85.2953 72.3702 84.3207 74.4854 83.2308C78.9915 80.9086 84.5245 78.057 86.5933 72.2172C88.8133 65.9672 83.4634 57.4964 79.2432 52.1175L102.303 29.307L103.703 27.9769C105.054 26.6976 106.806 26.8422 108.538 26.9847C109.246 27.0433 109.951 27.1 110.623 27.0609C111.495 27.0082 112.313 26.7914 113.013 26.1976L125.613 16.8265C131.953 11.5668 117.033 -4.53285 111.233 1.22692L99.8934 11.9867C98.743 13.1332 98.7093 14.7816 98.6751 16.4515C98.639 18.2211 98.6024 20.0121 97.2332 21.2464L95.9434 22.4066L71.3433 43.5668C66.3433 38.9281 58.3433 32.9066 51.8934 34.6175C45.9034 36.2113 42.6114 41.4984 39.929 45.805C38.6751 47.8187 37.5543 49.6175 36.3533 50.7269C34.9888 51.9867 32.3724 52.1058 29.0328 52.2562C23.1444 52.5238 15.0081 52.8929 7.52326 59.7972C-4.20672 70.6175 -1.99676 89.7972 12.5933 105.647C27.1834 121.496 46.1734 125.258 57.9134 114.438C65.4036 107.534 66.4256 99.4496 67.1658 93.5961C67.5858 90.2738 67.9149 87.6703 69.2833 86.4066ZM38.4034 81.8578C34.2134 77.3168 34.1033 70.6175 38.1434 66.8578C42.1834 63.098 48.8633 63.807 53.0333 68.348C57.2034 72.8871 57.3333 79.5882 53.2833 83.348C49.2332 87.1078 42.5933 86.3968 38.4034 81.8578ZM107 13.5004C107 14.3285 106.328 15.0004 105.5 15.0004C104.672 15.0004 104 14.3285 104 13.5004C104 12.6722 104.672 12.0004 105.5 12.0004C105.705 12.0004 105.899 12.0414 106.077 12.1136L106.171 12.1566L106.275 12.2152C106.391 12.2855 106.497 12.3714 106.59 12.4711C106.661 12.5453 106.723 12.6273 106.778 12.7152C106.846 12.8246 106.9 12.9437 106.938 13.0707C106.978 13.2074 107 13.3519 107 13.5004ZM113.5 7.00036C114.328 7.00036 115 6.32848 115 5.50036C115 4.67223 114.328 4.00036 113.5 4.00036C113.366 4.00036 113.236 4.01793 113.112 4.05114C112.938 4.09801 112.776 4.17418 112.632 4.27575C112.25 4.54723 112 4.9945 112 5.50036C112 6.32848 112.672 7.00036 113.5 7.00036ZM111 9.50036C111 10.3285 110.328 11.0004 109.5 11.0004C108.672 11.0004 108 10.3285 108 9.50036C108 8.67223 108.672 8.00036 109.5 8.00036C110.328 8.00036 111 8.67223 111 9.50036ZM111.724 22.3422C112.544 22.4652 113.308 21.9007 113.431 21.0824C113.484 20.7328 113.412 20.3929 113.248 20.1078C113.027 19.7269 112.641 19.4457 112.172 19.3754C111.353 19.2504 110.588 19.8148 110.465 20.6351C110.341 21.4535 110.905 22.2172 111.724 22.3422ZM122.535 14.3656C122.412 15.1839 121.648 15.7484 120.828 15.6234C120.009 15.5004 119.445 14.7367 119.569 13.9164C119.692 13.098 120.457 12.5336 121.276 12.6586C122.095 12.7816 122.659 13.5453 122.535 14.3656ZM117.322 18.7543C117.667 18.5277 117.917 18.1625 117.983 17.723C118.107 16.9047 117.543 16.139 116.724 16.016C115.905 15.8929 115.14 16.4574 115.017 17.2757C114.893 18.0941 115.457 18.8597 116.276 18.9828C116.656 19.0394 117.024 18.9496 117.322 18.7543Z" fill="white"/>
</svg>
