<svg width="683" height="682" viewBox="0 0 683 682" fill="none" xmlns="http://www.w3.org/2000/svg">
<path d="M27.3334 2.26676C14.4 6.93343 6.13336 15.3334 1.86669 28.2668C-0.933311 36.8001 2.23663e-05 48.2668 4.00002 56.6668C5.86669 60.4001 41.3334 100.933 99.7334 165.733C196.4 272.933 200 276.933 200 278.4C200 278.933 193.333 280.8 185.067 282.4C166.133 286.267 141.2 294.4 127.067 301.2C107.333 310.8 96.8 320.667 93.3334 332.667C92.2667 336.533 92 376.8 92.2667 478L92.6667 618L95.6 623.467C110.533 651.333 176 672 275.333 680.267C305.6 682.8 380.533 682.4 412 679.467C509.867 670.667 570 651.733 585.333 624.933L589.333 618V566.267C589.333 516.4 589.2 514.533 586.667 512C583.733 509.067 578.667 508.533 574.667 510.667C570.267 513.067 569.333 519.467 569.333 548.533V576.8L564.4 581.6C557.2 588.533 544.4 595.067 526 601.2C517.333 604.133 510 606.4 509.733 606.133C509.467 606 522.8 566 539.333 517.2L569.2 428.667V450.133C569.333 473.467 570.4 478.8 575.467 481.2C580.133 483.333 581.733 483.067 585.867 479.867L589.333 477.2V404.933C589.333 334.667 589.2 332.667 586.533 327.067C580.8 315.333 564.533 304 539.6 294.667C526.4 289.733 490.4 280 485.067 280C481.733 280 482 278.267 486.4 273.2C488.4 270.8 531.867 222.4 582.933 165.733C641.733 100.4 676.933 60.4001 678.667 56.5334C683.067 47.6001 683.6 35.7334 680.133 26.5334C670 -0.133239 637.467 -8.39991 617.2 10.5334C613.467 14.1334 575.867 65.3334 528.8 131.2C483.733 194.133 445.6 246.533 444.133 247.467C442.667 248.533 438 250 433.733 250.8C423.867 252.667 414.533 257.467 408.133 264L403.067 269.333L381.733 268.4L360.533 267.6L357.6 271.333C354 275.867 353.867 280 357.2 284.133C359.467 286.933 361.067 287.333 376.8 288.133C386.267 288.667 394.4 289.2 394.8 289.2C395.2 289.333 396 292.8 396.4 296.933C398.667 319.2 417.067 336 438.8 336C457.6 336 475.2 322.667 480.133 304.667C481.067 301.6 482.267 300 483.733 300C488.8 300 523.6 309.6 535.067 314.133C564.133 325.6 574.667 336.8 566.533 347.2C562.667 352.133 548 360.4 533.333 365.733C465.867 390.667 339.733 398.933 234.933 385.333C193.333 379.867 156.667 370.4 133.733 359.2C120.933 352.933 112 344.933 112 340C112 335.6 122 326 131.733 320.933C143.467 314.8 160.8 308.8 180.667 303.867C200.4 299.067 201.067 299.067 202.133 303.6C209.2 333.067 245.6 345.6 270 326.933C278.4 320.667 285.067 308.133 286.267 296.933C286.667 292.8 287.467 289.333 287.867 289.2C288.267 289.2 296.4 288.667 305.867 288.133C321.6 287.333 323.2 286.933 325.467 284.133C328.8 280 328.667 275.867 325.067 271.333L322.133 267.6L300.933 268.4L279.6 269.333L274.533 264C268.133 257.467 258.8 252.667 248.933 250.8C244.667 250 240 248.533 238.533 247.467C237.067 246.4 198.933 194.133 153.867 131.2C108.8 68.1334 70 14.6668 67.6 12.2668C57.6 1.86676 40.5334 -2.39991 27.3334 2.26676ZM50.5334 23.6001C52.4 25.0668 91.6 78.6667 137.467 142.8C207.333 240.4 222 260 227.2 263.6C233.467 267.867 238 269.467 248.4 271.333C255.333 272.533 263.6 280 265.467 287.067C272 311.2 240.8 326.8 225.6 306.933C222.533 302.933 222 300.8 221.333 288.8C220.8 278.8 219.867 273.733 217.6 269.333C215.867 265.6 178.8 223.467 119.2 157.333C66.6667 99.0667 22.8 49.2001 21.6 46.6668C17.8667 37.7334 22 26.6668 30.9334 22.1334C36.4 19.3334 45.6 20.0001 50.5334 23.6001ZM651.467 22.1334C660.533 26.4001 664.8 37.6001 661.067 46.6668C659.867 49.2001 616 99.0667 563.467 157.333C503.867 223.467 466.8 265.6 465.067 269.333C462.8 273.733 461.867 278.8 461.333 288.8C460.667 300.8 460.133 302.933 457.067 306.933C442 326.667 410.8 311.067 417.2 287.067C419.067 280 427.333 272.533 434.267 271.333C444.267 269.6 448.8 268 454.8 264.267C460 260.933 473.067 243.2 543.333 145.2C588.667 81.8667 626.933 28.5334 628.533 26.8001C634.4 20.2668 643.467 18.4001 651.467 22.1334ZM136.667 382.8C204.8 410.133 342 419.6 453.333 404.667C499.333 398.4 534.4 389.067 558.4 376.667L569.333 371.067V377.333C569.333 384.933 566.8 388.667 557.467 394.667C538.8 406.533 503.733 417.067 459.333 423.867C399.2 433.067 311.867 434.533 248.667 427.333C182.667 419.733 131.733 404.4 116.667 387.867C112.8 383.467 112 381.6 112 376.533V370.533L119.067 374.533C122.8 376.667 130.8 380.4 136.667 382.8ZM144.933 426.133C164.133 433.467 204.4 441.867 244.133 447.067L257.067 448.667L224 519.867C205.733 558.933 190.533 591.333 190.133 591.733C189.733 592 189.067 591.6 188.667 590.533C186.4 583.867 132 422.133 132 421.733C132 421.333 133.067 421.467 134.4 422C135.6 422.533 140.4 424.4 144.933 426.133ZM538.8 455.6C532.4 474.533 519.333 513.067 510 541.067C500.667 569.2 492.533 591.733 491.867 591.067C490.933 590.133 425.333 449.867 425.333 448.8C425.333 448.533 431.733 447.6 439.733 446.8C461.067 444.267 490.667 439.067 508.133 434.667C523.2 430.8 546.267 423.467 547.733 422C550.933 418.933 549.067 425.733 538.8 455.6ZM142.667 516.533C158.933 564.8 172 604.8 171.733 605.467C171.2 606.8 144.133 597.6 134.667 592.667C123.467 586.933 116.267 581.6 114 577.333C112.267 574 112 562.8 112 500.533C112 460.4 112.267 427.867 112.667 428.267C113.067 428.533 126.533 468.267 142.667 516.533ZM394.667 452C394.667 453.2 342.267 602 341.467 602.933C341.067 603.467 330.8 575.867 318.8 541.6C306.8 507.333 294.667 473.067 291.867 465.333L286.933 451.333H340.8C370.4 451.333 394.667 451.6 394.667 452ZM299.6 547.2C314.533 589.6 326.533 624.533 326.4 624.667C325.333 625.467 272.8 622.4 254.667 620.533C235.067 618.533 204.267 614 203.333 613.067C203.067 612.8 216.933 582.267 234.133 545.333C251.333 508.267 266.667 475.333 268.267 472C270 468 271.2 466.667 271.733 468C272.133 469.067 284.667 504.8 299.6 547.2ZM444.667 538C462.8 576.8 477.867 609.6 478.267 610.8C479.067 613.467 477.6 613.867 458.667 616.667C436.533 620 409.733 622.533 389.067 623.333C378.533 623.733 366.8 624.4 363.067 624.667C358.667 625.067 356 624.8 356 624C356 623.2 367.467 590.133 381.467 550.267C395.467 510.533 407.867 475.467 408.933 472.267C410.133 469.067 411.2 466.667 411.333 466.933C411.6 467.2 426.533 499.067 444.667 538ZM125.333 610.4C162 628.8 225.2 640.4 308 644C407.067 648.4 516.533 633.067 561.067 608.533L569.333 603.867V609.467C569.333 614.267 568.533 615.733 564.133 619.867C553.333 629.867 527.067 640.133 493.067 647.867C379.467 673.333 204.667 664.533 133.733 629.867C118.933 622.533 112 615.733 112 608.533C112 605.867 112.4 604 113.067 604.267C113.6 604.533 119.067 607.333 125.333 610.4Z" fill="white"/>
<path d="M336.267 179.6C332 181.333 330.667 187.733 330.667 205.733C330.667 221.866 330.933 224 333.467 227.2C336.933 231.6 344 232 348 228C350.4 225.6 350.667 223.6 350.667 204.8V184.133L347.2 181.466C343.733 178.8 339.867 178.133 336.267 179.6Z" fill="white"/>
<path d="M264.8 200.134C259.333 204.401 260.133 209.201 269.467 225.201C279.733 242.934 281.867 245.334 287.467 245.334C292.933 245.334 297.867 239.734 296.8 234.667C296.533 232.801 292.133 224.267 287.2 215.734C276.4 197.067 272.267 194.267 264.8 200.134Z" fill="white"/>
<path d="M404.933 200.266C400.267 205.066 385.333 232.533 385.333 236.399C385.333 243.999 396.667 248.533 401.6 242.933C405.867 238.133 421.333 209.999 421.333 206.933C421.333 202.799 415.6 197.333 411.333 197.333C409.467 197.333 406.533 198.666 404.933 200.266Z" fill="white"/>
</svg>
