<svg width="452" height="442" viewBox="0 0 452 442" fill="none" xmlns="http://www.w3.org/2000/svg">
<path d="M194.241 1.98917C187.011 2.88924 178.878 4.43221 176.167 5.33227L171.132 7.00382L170.745 99.1963L170.487 191.389L174.23 193.446C179.653 196.146 191.401 195.889 197.339 192.932C204.44 189.332 207.538 185.345 212.444 173.387C217.996 160.144 221.223 156.672 228.711 155.9C240.201 154.743 247.818 162.715 250.529 178.659C252.465 190.36 250.529 202.447 243.17 223.663C237.49 239.864 237.102 241.921 237.102 254.522C236.973 275.352 241.492 286.153 262.019 313.541C281.771 339.9 290.292 356.872 293.261 375.388C295.843 392.489 290.163 416.02 279.447 431.706C271.443 443.664 274.542 444.565 297.651 436.978C323.987 428.235 356.004 409.591 377.951 389.918C389.57 379.631 404.804 361.63 414.874 346.457C441.469 306.212 454.25 256.451 450.506 207.976C448.311 178.659 441.985 154.615 429.462 127.998C397.058 59.0791 329.538 10.6041 253.111 1.21769C238.393 -0.582446 210.25 -0.196704 194.241 1.98917Z" fill="white"/>
<path d="M111.746 30.7906C70.9502 55.6067 43.0645 85.8233 23.3121 126.583C-5.86462 186.759 -6.63922 254.264 20.9883 317.14C28.7343 334.884 29.2507 334.627 43.0645 306.211C55.9745 279.98 58.1692 272.651 58.1692 256.321C58.1692 243.463 56.2327 234.334 47.9703 209.261C40.6116 187.016 38.8042 178.401 38.8042 165.286C38.8042 127.098 63.9788 98.9385 83.3438 115.783C89.1534 120.797 90.4444 125.298 91.6063 143.942C92.51 158.214 92.8973 159.757 96.383 164.9C103.613 175.058 117.814 181.745 127.238 179.43L130.466 178.659L130.207 101.124C129.82 24.8759 129.82 23.7187 127.238 23.333C125.818 23.2044 118.846 26.5475 111.746 30.7906Z" fill="white"/>
<path d="M225.613 168.371C223.805 169.785 220.836 174.8 218.9 179.815C211.928 198.202 199.793 206.302 180.815 205.402L171.132 205.016L170.487 212.731L169.841 220.446L153.058 220.832C128.787 221.346 130.466 222.503 130.466 205.659V191.515L126.98 189.972C124.914 189.201 119.879 188.301 115.619 188.044C108.519 187.401 107.615 187.658 104.646 190.873C100.256 195.501 100.514 201.416 105.807 214.017C112.133 228.932 111.875 236.39 104 262.878C94.963 293.223 95.3503 305.952 105.937 318.039C112.908 325.882 117.297 326.783 150.476 327.811C178.362 328.583 180.686 328.84 188.303 331.926C206.119 339.255 219.158 351.47 235.424 376.029C246.398 392.487 251.562 396.473 260.599 395.445C267.7 394.545 275.446 390.559 278.286 386.187C286.677 373.457 281.384 358.799 252.595 315.725C244.203 302.866 235.812 289.494 234.133 285.765C226 268.15 225.484 247.062 232.455 226.232C240.33 202.831 243.558 181.486 240.33 173.128C237.49 165.671 231.551 163.742 225.613 168.371ZM178.878 285.637C181.977 287.051 182.751 288.723 182.106 293.094C181.589 297.723 178.362 298.238 150.993 298.238C121.17 298.238 117.556 297.595 117.556 291.68C117.556 284.737 120.396 284.094 149.443 284.094C166.485 284.094 176.684 284.608 178.878 285.637Z" fill="white"/>
<path d="M116.91 349.93C110.455 353.401 107.744 362.659 111.1 369.088C114.199 374.746 118.201 375.389 150.993 375.389H182.106L186.237 371.66C189.852 368.445 190.497 367.031 190.497 361.888C190.497 356.744 189.852 355.33 186.237 352.116L182.106 348.387H150.734C130.466 348.515 118.588 348.901 116.91 349.93ZM182.106 357.387C183.526 358.802 184.688 360.859 184.688 361.888C184.688 362.916 183.526 364.974 182.106 366.388C179.653 368.831 177.845 368.96 150.218 368.96C124.785 368.96 120.654 368.702 118.588 366.774C115.748 364.202 115.619 360.216 118.459 357.13C120.396 355.073 123.107 354.816 150.089 354.816C177.845 354.816 179.653 354.944 182.106 357.387Z" fill="white"/>
</svg>
