<svg width="763" height="755" viewBox="0 0 763 755" fill="none" xmlns="http://www.w3.org/2000/svg">
<path d="M442.667 7.59985C440.133 11.1999 428.133 27.4665 416 43.8665C394.533 72.6665 394 73.3332 392 70.3999C383.6 57.8665 368.933 47.3332 350.8 41.1999C340.533 37.5999 339.6 38.1332 347.867 42.6665C364.933 52.1332 379.467 66.2665 385.467 79.5999C389.333 87.9999 393.333 106.667 393.333 116.267C393.333 119.2 393.867 121.2 394.533 120.8C395.2 120.267 400 114.133 405.2 106.933C410.267 99.8665 415.733 92.5332 417.2 90.7999C419.733 87.4665 419.733 88.5332 418.933 198.267L418.267 309.067L430.8 311.2C437.733 312.4 474.533 318.533 512.667 324.8C550.8 330.933 616.267 341.733 658 348.667C699.867 355.467 737.067 361.467 740.667 361.867L747.333 362.533L742 361.2C739.067 360.4 716.267 354.933 691.333 349.2C644.267 338.133 611.867 330.533 558.667 318.133C541.467 314.133 517.067 308.4 504.533 305.467C491.867 302.533 474 297.733 464.8 294.667L448 289.2L447.733 145.067L447.333 0.933184L442.667 7.59985Z" fill="white"/>
<path d="M262.267 38.7987C244.267 41.1987 211.733 49.5987 212.267 51.732C212.4 52.2653 210.8 56.132 208.8 60.2653C206.4 65.1987 204.933 71.1987 204.4 77.332C203.6 86.132 203.733 86.6654 206.4 86.6654C209.467 86.6654 210.267 84.6654 213.333 69.0654C215.2 59.5987 221.333 49.9987 226.933 48.132C233.333 45.8653 233.6 46.2653 230 51.732C226.8 56.6653 221.333 74.7987 221.333 80.932C221.333 85.4654 226.133 84.932 229.2 79.9987C230.533 77.732 232.267 71.732 233.2 66.532C235.6 51.5987 240.4 45.0653 249.867 43.1987L255.067 42.2653L251.067 48.132C243.333 59.4653 238.933 76.132 242.533 80.532C247.2 85.9987 251.6 81.5987 255.467 67.8653C258.8 55.4653 262 49.8653 268.267 45.332C272.8 41.9987 275.067 41.332 281.067 41.332H288.533L280.533 48.932C265.067 63.8653 261.6 82.3987 274.933 78.532C280.8 76.932 283.2 74.2654 288 64.532C293.333 54.132 298 50.932 309.6 49.8653C317.467 49.0653 318.4 49.332 323.6 53.1987C330.133 57.9987 333.733 64.2653 335.867 74.6654C337.467 82.532 338.4 100.665 337.333 101.732C336.933 102.132 333.067 101.599 328.667 100.665C314.4 97.4654 295.333 95.9987 266.133 95.9987C231.467 95.9987 205.6 99.0654 180.4 106.132C177.467 106.932 177.333 106.665 177.333 99.732C177.333 86.3987 182.267 73.0654 191.2 62.6653C192.667 60.7987 191.733 61.4653 188.933 63.9987C181.467 70.7987 176.267 82.532 174.4 96.132C172.533 109.999 173.2 112.532 178 110.665C184 108.399 185.333 108.932 185.333 113.999C185.333 119.465 185.467 119.465 200.4 116.665C206.133 115.599 211.2 114.665 211.467 114.665C211.733 114.665 212 112.399 212 109.465C212 104.799 212.4 104.265 216.133 103.465C225.2 101.732 225.333 101.732 225.333 111.599V120.665L207.6 123.599C187.2 127.065 177.6 129.599 182.4 130.399C184.8 130.799 185.333 131.732 185.333 136.132C185.333 142.132 185.733 142.265 202.667 139.465L212.667 137.865L212.533 132.265C212.4 126.265 212.267 126.399 221.733 124.932C225.2 124.399 225.333 124.532 225.6 130.799C226.133 146.132 228.133 144.132 210 146.932C192.933 149.465 177.333 153.065 182.4 153.199C184.933 153.332 185.333 153.999 185.333 159.465C185.333 163.999 185.867 165.465 187.067 164.932C188 164.532 194.267 163.465 200.933 162.532L213.2 160.799L213.6 155.465C214 150.132 214.133 149.999 219.733 149.199C222.8 148.799 225.6 148.799 226 149.065C226.4 149.465 226.667 153.865 226.667 158.665V167.732L216.4 169.199C198.267 171.865 182 175.065 183.733 175.599C184.667 175.999 185.333 178.532 185.333 182.132C185.333 185.332 185.733 187.999 186.4 187.999C186.933 187.999 192.8 187.065 199.333 185.999C206 184.932 211.733 183.999 212.4 183.999C212.933 183.999 213.333 181.732 213.333 178.799C213.333 174.132 213.733 173.599 217.467 172.799C226.667 171.065 226.667 171.065 226.667 181.865V191.732L219.067 192.532C205.333 194.265 186 197.599 184 198.799C182.667 199.465 182.533 199.865 183.733 199.999C184.667 199.999 185.333 201.999 185.333 205.332C185.333 211.465 184.133 211.199 202 208.932L214 207.332L214.667 201.999C215.333 196.665 215.333 196.665 221.733 196.265L228 195.865V205.199V214.532L220.4 215.465C216.133 215.865 206.4 217.332 198.667 218.532L184.667 220.799L185.2 226.665C185.333 229.999 185.733 232.799 186 233.065C186.133 233.332 192.667 232.799 200.533 231.865L214.667 230.132V225.199C214.667 219.999 216.533 218.665 224.4 218.665C228 218.665 228 218.665 228 228.399V238.132L208.4 240.532C197.467 241.732 187.733 243.065 186.667 243.465C185.2 243.865 184.8 245.599 185.067 250.399L185.6 256.799L194.4 255.732C216.267 253.065 214.533 253.732 214.933 248.265C215.333 243.465 215.467 243.332 221.467 242.932L227.733 242.532L228.667 250.532C229.2 254.932 229.2 259.065 228.8 259.732C228.4 260.399 222.8 261.332 216.4 261.865C205.2 262.665 191.2 264.665 186.4 266.132C184.8 266.532 184.133 268.665 183.733 273.732L183.333 280.665L200 279.732C209.2 279.199 228.133 277.599 242 276.399C268.8 273.865 308.133 273.332 329.733 275.199L342.667 276.265V281.065C342.667 296.532 336.533 313.599 329.467 317.732C320.667 322.932 309.067 319.332 295.867 307.065C291.6 302.932 288 300.265 288 300.932C288 301.599 290.4 305.599 293.333 309.599C299.467 318.265 308.267 324.265 319.333 327.332C323.733 328.665 328.133 330.265 329.067 330.932C332.133 333.465 330.667 337.465 324.667 343.332C317.733 349.999 318 349.999 335.333 343.332C363.067 332.799 376.533 322.399 384.4 305.599L388.667 296.665L389.067 243.999C389.467 191.199 387.733 131.199 385.2 108.665C383.333 91.732 379.6 84.532 365.467 70.6654C347.733 53.1987 327.467 43.4653 300 39.332C286.133 37.1987 276.133 37.0653 262.267 38.7987ZM307.333 110.665C314 111.465 323.733 112.932 329.067 114.132L338.667 116.132V120.799C338.667 125.999 339.333 125.865 323.333 122.532C319.733 121.732 297.867 120.799 275.067 120.399L233.333 119.732V115.999C233.333 111.865 232.8 112.132 252 110.265C262.8 109.199 296.267 109.465 307.333 110.665ZM318.667 135.199C339.467 138.665 338.667 138.399 338.667 143.599C338.667 148.132 338.533 148.265 334.4 147.465C317.6 144.399 303.733 143.599 270.267 143.732L233.2 143.865L233.6 139.599C234 135.599 234.267 135.332 240.667 134.532C254.933 132.799 307.2 133.332 318.667 135.199ZM308.8 157.465C316.933 158.265 327.2 159.599 331.467 160.399C339.2 161.999 339.333 162.132 339.733 166.799L340.133 171.599L329.733 169.865C316.8 167.599 258.933 165.199 245.067 166.265L234.667 167.065V162.932C234.667 159.065 235.067 158.799 240.4 158.132C256.533 155.865 289.867 155.599 308.8 157.465ZM330 182.932L339.333 184.665L339.733 189.332L340.133 194.132L325.733 192.399C317.867 191.465 294.133 190.532 273.067 190.265L234.667 189.999V185.732V181.465L243.733 180.932C261.2 179.865 320.667 181.199 330 182.932ZM325.2 205.465C341.6 207.599 341.333 207.465 341.333 212.799C341.333 217.599 341.2 217.599 336.933 216.799C326.4 214.799 297.067 213.332 267.067 213.332H234.667V209.332C234.667 207.065 234.8 205.199 235.067 205.199C235.2 205.065 242.8 204.532 252 203.999C271.733 202.799 310.933 203.599 325.2 205.465ZM318 227.999C341.467 230.265 341.333 230.132 341.333 235.599V240.399L335.067 239.465C322.933 237.999 256.667 235.865 246.4 236.665L236 237.465V232.799V228.132L245.733 227.599C267.2 226.665 305.467 226.799 318 227.999ZM338.4 252.799C342.267 253.599 342.667 254.132 342.667 258.265V262.932L329.067 262.132C313.867 261.065 277.6 260.132 252.4 259.999H236V256.132C236 252.665 236.533 252.132 240.4 251.599C246.667 250.665 333.2 251.732 338.4 252.799ZM229.333 270.132V274.665H222.667H216V270.132C216 265.599 216.133 265.465 221.733 265.065C229.067 264.532 229.333 264.665 229.333 270.132Z" fill="white"/>
<path d="M205.2 53.4669C197.733 56.2669 185.333 78.6669 187.2 86.0003C188.933 92.9336 193.6 89.2003 195.467 79.3336C196.8 71.4669 201.733 61.2003 206.267 56.2669C210.667 51.7336 210.533 51.4669 205.2 53.4669Z" fill="white"/>
<path d="M7.46662 150.266C11.0666 155.333 19.1999 166.533 25.7333 175.333C32.1333 184.133 40.6666 195.866 44.5333 201.333C48.3999 206.799 73.0666 241.066 99.3333 277.333C125.6 313.599 150.933 348.666 155.733 355.333C160.533 361.866 165.867 369.199 167.6 371.466L170.667 375.599L111.2 456.133C78.4 500.399 47.0666 542.933 41.4666 550.533C35.8666 558.133 24.2666 573.866 15.5999 585.599C6.79995 597.333 -5.19247e-05 607.066 0.266615 607.199C0.399948 607.466 24.3999 600.133 53.3333 591.066C82.2666 581.999 140.533 563.733 182.667 550.533C224.8 537.333 262.8 525.333 267.067 523.866C271.2 522.533 274.933 521.333 275.333 521.333C275.6 521.333 279.067 525.733 282.933 531.199C286.8 536.666 302.267 558.133 317.333 578.799C332.4 599.599 352.8 627.733 362.667 641.466C427.867 731.866 444.533 754.666 445.333 754.666C445.733 754.666 446.4 690.266 446.533 611.599C446.667 533.066 447.2 468.266 447.733 467.866C448.933 466.666 486.533 454.266 501.333 450.133C514.8 446.266 529.733 442.933 583.333 431.333C605.333 426.533 627.2 421.733 632 420.666C636.8 419.599 658.933 414.799 681.333 409.866C726.8 400.133 758.133 392.533 761.333 390.533C762.933 389.466 762.8 389.333 760.667 389.866C759.2 390.266 752.267 391.466 745.333 392.533C738.4 393.733 690.667 401.599 639.333 409.999C588 418.533 518.667 429.866 485.333 435.333C452 440.933 423.333 445.599 421.733 445.999C418.933 446.666 418.933 447.066 418.267 484.933C417.733 519.199 417.2 525.999 413.733 547.599C411.6 560.933 409.067 572.799 408 573.866C407.067 575.066 405.2 575.999 403.867 575.999C400.533 575.999 398.8 571.066 375.867 495.333C372.533 483.999 367.067 470.399 362.267 460.666C357.867 451.866 352.267 439.999 350 434.133C347.333 427.599 345.333 424.266 344.667 425.333C342.8 428.399 332.667 431.999 325.6 431.999C316.8 431.999 310.933 429.599 306.133 423.999C302.933 419.999 302.533 419.866 303.2 422.799C305.733 433.599 306.4 437.999 305.867 438.666C305.467 439.066 301.067 439.733 296.267 440.266C291.333 440.666 298.4 440.799 312 440.399C335.6 439.866 336.8 439.866 339.2 442.399C342 445.599 347.6 470.799 361.333 540.933C367.067 570.133 367.067 571.066 360.4 579.733C357.733 583.199 356.667 583.866 355.2 582.533C352.667 580.399 352.8 579.733 357.467 572.133C362.667 563.866 362.533 561.466 355.6 529.999C352.933 518.266 348.267 497.199 345.333 483.333C342.267 469.333 338.933 455.999 337.867 453.599C336.267 449.733 335.6 449.199 332.4 449.866C327.867 450.666 302.267 453.199 291.333 453.866C286.933 454.133 294.8 454.133 308.933 453.866L334.533 453.333L335.867 457.733C336.667 459.999 340.933 480.933 345.333 503.999C357.867 568.666 357.067 562.133 353.733 567.866C352.267 570.533 350.267 572.666 349.6 572.666C348.8 572.666 342.667 564.933 335.867 555.466L323.467 538.266L318.4 514.133C313.467 490.399 312.8 493.599 317.333 518.933C318.667 526.133 319.467 531.999 319.333 531.999C319.067 531.999 311.867 522.266 303.2 510.266C294.667 498.399 287.333 488.399 287.2 488.133C286.933 487.866 285.067 488.266 282.8 489.066C278.8 490.399 278.8 490.399 277.467 483.866C276.667 480.133 276 475.999 276 474.399C276 472.399 275.467 471.999 273.733 472.666C272.4 473.066 257.6 478.666 240.667 484.933C223.867 491.199 194.4 502.266 175.333 509.333C156.267 516.533 140.533 522.266 140.267 521.999C140.133 521.866 144 513.999 149.067 504.533C167.6 469.733 176.133 452.799 173.733 455.466C172.4 457.066 155.733 477.999 136.667 502.133L102 546.133L89.7333 549.866C82.9333 551.999 76.9333 553.466 76.5333 553.066C76.1333 552.666 78.4 548.799 81.6 544.399C84.9333 540.133 93.2 528.799 100.267 519.333C107.333 509.733 119.6 493.199 127.6 482.533C135.467 471.733 146.533 456.799 152.133 449.199C157.733 441.599 172 422.266 183.867 406.133C195.733 390.133 205.2 376.266 204.933 375.333C204.267 373.733 190.933 355.199 138 281.999C85.6 209.466 76 195.999 76.8 195.999C77.2 195.999 99.3333 203.199 125.867 211.999C152.4 220.799 174.533 227.999 175.067 227.999C175.6 227.999 176 221.466 176 213.466C176 203.066 175.467 198.799 174.4 198.266C168.267 195.999 3.06661 141.333 2.13328 141.333C1.59995 141.333 3.99995 145.333 7.46662 150.266Z" fill="white"/>
<path d="M245.733 294.134C242.667 297.2 242.4 298.267 243.067 304.4C244.267 314.134 250.133 324.934 258.533 332.934C262.533 336.8 265.467 340.267 265.067 340.667C263.733 342.134 254.133 337.334 249.467 332.934C244.4 328.134 236.667 312.8 235.333 304.667C234.133 297.734 231.2 293.334 228 293.334C221.333 293.334 222.933 312 230.667 326.267C236.4 336.534 235.867 338 228.533 333.467C223.2 330.134 217.867 319.334 216 307.6C214.267 296.667 213.733 295.067 210.933 294C208.667 293.2 204 297.467 204 300.534C204 304.267 208.267 318 211.333 324.134C215.2 331.6 214.8 334.267 210.133 331.334C205.333 328.134 201.467 319.734 198.933 307.067C196.933 297.067 196.133 295.334 194 295.334C191.733 295.334 191.2 296.4 190.933 301.867C190.667 305.334 191.067 310 191.867 312.134C192.533 314.267 192.667 316.267 192 316.667C190.533 317.6 187.333 312.4 182.667 301.067C180.133 294.8 178.933 293.067 179.467 296C181.333 306.267 187.067 317.6 194.4 325.467C206 338 218.533 344 240 347.2C252.8 349.067 252.933 349.2 253.2 362.667C253.467 374.4 257.2 404 259.467 411.867C262 420.667 268 427.067 275.733 429.467C278.8 430.4 281.6 430.8 282 430.4C282.4 430 281.2 426.4 279.467 422.267C274.667 411.467 272 400.134 272 390.134V381.334H283.333C293.867 381.334 294.8 381.6 296 384.267C297.333 387.334 297.333 387.334 296.933 384C296.667 380.667 296.533 380.667 282.8 380.267L268.933 379.867L269.733 392.267C270.267 402.667 272.8 414.267 276.933 424.934C277.6 426.667 277.2 426.667 274.533 425.334C262.8 419.334 261.867 415.2 258 358.934L257.333 349.334H281.067H304.667L312.533 344.934C326.133 337.334 326 333.467 312.133 328.267C301.733 324.267 291.2 314.667 285.467 304.134C283.2 299.734 280.267 295.2 279.2 294C276.533 291.334 269.867 291.334 268.8 294.134C265.2 303.6 273.6 318.534 290 331.6C294 334.667 294.933 336.267 293.867 337.334C292 339.2 277.6 332.934 271.333 327.6C265.6 322.934 260.533 312.8 258.8 303.334C257.867 298.134 256.4 294.534 254.533 292.934C250.8 289.867 249.867 290 245.733 294.134Z" fill="white"/>
<path d="M338 348.266L320.667 355.066L296 355.866C269.467 356.8 269.6 356.8 303.467 359.466L312.933 360.266L312.267 382.533C311.333 415.6 314.4 423.733 328 425.066C343.067 426.533 347.867 416.533 354 371.066C357.6 343.066 357.867 341.333 356.4 341.466C355.733 341.466 347.6 344.666 338 348.266Z" fill="white"/>
<path d="M749.067 363.6C750 364 751.2 363.867 751.6 363.467C752.133 363.067 751.333 362.667 749.867 362.8C748.4 362.8 748 363.2 749.067 363.6Z" fill="white"/>
<path d="M312.133 487.466C312.133 488.933 312.533 489.333 312.933 488.266C313.333 487.333 313.2 486.133 312.8 485.733C312.4 485.2 312 486 312.133 487.466Z" fill="white"/>
</svg>
