<svg xmlns="http://www.w3.org/2000/svg" xmlns:xlink="http://www.w3.org/1999/xlink" version="1.1" x="0px" y="0px" viewBox="0 0 100 100" enable-background="new 0 0 100 100" xml:space="preserve"><g><path d="M32,27c-12.131,0-22,9.869-22,22s9.869,22,22,22s22-9.869,22-22S44.131,27,32,27z M20,62.406C16.319,59.107,14,54.32,14,49   c0-5.319,2.319-10.107,6-13.405V62.406z M30,66.889c-2.134-0.236-4.156-0.848-6-1.766V32.877c1.844-0.918,3.866-1.529,6-1.766   V66.889z M40,65.123c-1.844,0.918-3.866,1.529-6,1.766V31.111c2.134,0.237,4.156,0.848,6,1.766V65.123z M44,62.406V35.595   c3.681,3.297,6,8.086,6,13.405C50,54.32,47.681,59.107,44,62.406z M76.002,47c-5.514,0-10,4.486-10,10s4.486,10,10,10   s10-4.486,10-10S81.516,47,76.002,47z M76.002,63c-3.309,0-6-2.691-6-6s2.691-6,6-6s6,2.691,6,6S79.311,63,76.002,63z M84,13H16   C7.178,13,0,20.178,0,29v44c0,4.412,3.589,8,8,8h2v2c0,2.205,1.794,4,4,4h6c2.206,0,4-1.795,4-4v-2h52v2c0,2.205,1.795,4,4,4h6   c2.205,0,4-1.795,4-4v-2h2c4.412,0,8-3.588,8-8V29C100,20.178,92.822,13,84,13z M20,83h-6v-2h6V83z M86,83h-6v-2h6V83z M96,73   c0,2.205-1.795,4-4,4H8c-2.206,0-4-1.795-4-4V29c0-6.617,5.383-12,12-12h68c6.617,0,12,5.383,12,12V73z M60,39h30V27H60V39z M82,31   h4v4h-4V31z M64,31h14v4H64V31z"></path></g></svg>