<svg version="1.1" id="Layer_1" xmlns:x="&ns_extend;" xmlns:i="&ns_ai;" xmlns:graph="&ns_graphs;"
	 xmlns="http://www.w3.org/2000/svg" xmlns:xlink="http://www.w3.org/1999/xlink" x="0px" y="0px" viewBox="0 0 347.5 348.5"
	 style="enable-background:new 0 0 347.5 348.5;" xml:space="preserve">
<!-- <style type="text/css">
	.st0{fill-rule:evenodd;clip-rule:evenodd;fill:#999999;}
	.st1{fill-rule:evenodd;clip-rule:evenodd;fill:#7F0000;}
</style> -->
<metadata>
	<sfw  xmlns="&ns_sfw;">
		<slices></slices>
		<sliceSourceBounds  bottomLeftOrigin="true" height="348.5" width="347.5" x="53.7" y="77.1"></sliceSourceBounds>
	</sfw>
</metadata>
<g>
	<path class="st0" d="M346.7,348.5c1-12,1-23.5,0-35.4c-1.2-12-2.1-25.4-6.4-35.4c-4.4-10.1-9-19.5-20.1-24.2
		c-11.5-4.6-34.6-5.5-47.5-3.2c-12.8,2.3-21.8,6.7-29,16.9c-7.3,10.2-12.1,24.4-14.5,43.5c-7.2,4.2-14.8,5.9-23.3,4.8
		c-8.6-1.2-20.4-5.4-27.4-11.3c-7-5.9-11.8-13.5-14.5-23.3h50.7v-21.7H7v20.9h111.1c1.5,14.5,4.3,27.1,8.9,38.6
		c4.5,11.5,10.2,21.2,17.7,29.8H346.7L346.7,348.5z"/>
	<path class="st0" d="M289,129.5c30,0,54.3,24.3,54.3,54.3S319,238.2,289,238.2c-30,0-54.3-24.3-54.3-54.3S259,129.5,289,129.5"/>
	<path class="st0" d="M7,245.5c14.6-45,56.6-75.5,103.8-75.5c47.3,0,89.2,30.5,103.9,75.5H7z"/>
	<path class="st0" d="M94.7,142.4c-6.4-8.9-8.4-17.1-6.4-24.9c2.1-7.9,6.7-17.5,18.5-21.7c11.8-4.1,35.5,0.9,51.5-3.2
		c15.9-4.3,35.3-8.1,43.5-22.5c8-14.7,9.7-35.8,4.8-64.4c-0.3,21-9.5,35.4-28.2,44.3c-18.9,8.7-62.2,2-83.7,8.1
		c-21.6,6.1-37.3,16.7-44.3,28.2c-6.8,11.4-4.2,29.8,3.2,39.5C61.1,134.9,74.6,140.5,94.7,142.4L94.7,142.4z"/>
	<path class="st1" d="M339.7,342.9c1-12,1-23.5,0-35.4c-1.2-12-2.1-25.4-6.4-35.4c-4.4-10.1-9-19.5-20.1-24.2
		c-11.5-4.6-34.6-5.5-47.5-3.2c-12.8,2.3-21.8,6.7-29,16.9c-7.3,10.2-12.1,24.4-14.5,43.5c-7.2,4.2-14.9,5.9-23.4,4.8
		c-8.5-1.2-20.4-5.4-27.4-11.3c-7-5.9-11.8-13.5-14.5-23.3h50.7v-21.7H0v20.9h111.1c1.5,14.5,4.3,27.1,8.9,38.6
		c4.5,11.5,10.2,21.2,17.7,29.8H339.7L339.7,342.9z"/>
	<path class="st1" d="M282.1,124c30,0,54.3,24.3,54.3,54.3c0,30-24.3,54.3-54.3,54.3s-54.3-24.3-54.3-54.3
		C227.7,148.3,252.1,124,282.1,124"/>
	<path class="st1" d="M0,239.9c14.6-45,56.6-75.5,103.9-75.5c47.3,0,89.2,30.5,103.8,75.5H0L0,239.9L0,239.9z"/>
	<path class="st1" d="M87.7,136.9c-6.4-9-8.4-17.1-6.4-25c2-7.9,6.8-17.6,18.5-21.7c11.8-4.1,35.5,0.9,51.5-3.2
		c15.9-4.3,35.2-8.1,43.5-22.5c8-14.7,9.7-35.8,4.8-64.4c-0.2,21-9.4,35.4-28.2,44.3c-19,8.7-62.1,2-83.7,8.1
		C66.1,58.5,50.4,69,43.5,80.5c-6.8,11.4-4.3,29.8,3.2,39.5C54.2,129.4,67.5,134.9,87.7,136.9z"/>
</g>
</svg>
