<svg width="702" height="704" viewBox="0 0 702 704" fill="none" xmlns="http://www.w3.org/2000/svg">
<path d="M46 0.66637C45.3334 0.799703 40 2.13304 34.2667 3.33304C25.6 5.33304 23.3334 6.3997 20.8 9.86637C14 18.7997 4.53335 41.0664 3.20002 50.533C2.40002 57.0664 2.93335 58.133 12.9334 69.1997L15.8667 72.533L12.2667 74.6664C10.2667 75.9997 6.80002 78.933 4.80002 81.4664L0.93335 85.9997L8.13335 92.3997C14.1334 97.8664 16 98.6664 19.2 98.133C22.4 97.4664 22.9334 97.733 22.2667 99.8664C21.4667 103.2 24.2667 107.2 31.0667 112.133C36.1334 115.733 36.6667 115.866 39.6 114C42.6667 112 42.6667 112 41.8667 115.333C40.9334 119.2 44.1334 123.6 51.4667 128.133C55.0667 130.266 56.2667 130.533 59.2 129.2C61.0667 128.266 63.6 126.133 64.8 124.4C66.6667 121.466 67.0667 121.333 69.0667 123.2C70.6667 124.533 75.0667 125.333 83.4667 125.733C92.5334 126 96.6667 126.8 99.7334 128.8C104.933 132 130.667 156.666 130.667 158.4C130.667 159.066 126.667 160 121.733 160.4C75.8667 164.4 37.7334 168.133 36.4 168.666C35.0667 169.066 34.6667 194.8 34.6667 290.933C34.6667 357.866 34.2667 414.933 33.8667 417.733C33.2 421.733 32.2667 422.8 29.4667 423.466C10.6667 427.466 0.800016 438.133 3.33335 451.466C4.93335 460.266 11.3334 464.933 35.3334 474.533C47.0667 479.2 62.4 485.066 69.3334 487.6C76.2667 490.133 82.4 492.666 82.9334 493.2C84.4 494.533 80.4 499.733 76.2667 501.866C74.2667 502.8 67.8667 504.933 61.8667 506.4C40.9334 511.866 32 517.466 32 525.333C32 527.6 32.6667 530.666 33.3334 532.133C35.6 536.266 44.5334 540 57.0667 541.866C63.4667 542.8 71.8667 544.666 75.8667 546C81.8667 548 84.4 548.266 91.2 547.066C97.7334 546 99.8667 546.133 102.267 547.733C107.067 550.666 109.333 548.933 109.333 542.266C109.333 538.933 110.267 535.333 111.467 533.866C113.467 531.333 113.6 531.333 112.667 534C109.333 543.866 111.067 550.666 116.667 550.666C118.533 550.666 120 549.866 120.133 548.933C120.133 548.133 120.8 548.666 121.6 550.266C123.067 553.2 128.4 555.333 130.667 554C131.467 553.466 132 550.8 132 547.866C132 542 133.867 537.333 136.267 537.333C137.067 537.333 137.067 538.133 135.867 539.466C134.933 540.533 134.133 544.533 134.133 548.133C134 555.466 136.8 559.066 142 558.4C144.267 558 144.667 556.8 145.067 550C145.333 545.6 146.133 541.333 146.8 540.666C147.867 539.733 148.133 541.2 147.867 545.333C147.2 556.266 147.467 556.8 154.8 560C164.667 564.133 175.333 565.066 178.667 562C180.133 560.666 181.333 558.533 181.333 557.2C181.333 553.333 182.933 553.333 193.333 557.6C214.8 566.4 238.533 570 253.333 566.666C257.333 565.866 263.733 564.8 267.333 564.533C278.133 563.6 279.867 562.8 282 558.666C283.2 556.4 284.933 554.666 286 554.666C288.933 554.666 289.733 552 287.467 549.466C284.8 546.533 284.8 543.466 287.333 539.466C289.2 536.666 289.2 536.266 287.467 535.6C286.133 535.066 284.4 536.266 282.533 538.8C279.2 543.6 277.333 542.933 280.533 538.133C283.333 533.733 283.2 532 280 532C278.533 532 277.333 532.666 277.333 533.333C277.333 535.733 270.933 537.866 268.933 536.266C266.933 534.533 265.333 535.466 265.333 538.133C265.333 539.066 263.467 541.6 261.2 543.866C257.867 547.2 257.2 548.933 257.6 552.933C258 557.6 257.733 557.866 253.333 559.066C246.533 560.8 224.8 559.333 213.333 556.266C196.267 551.733 187.867 548 182.533 542.533C177.067 536.933 175.333 536.533 154.8 535.466C147.2 535.066 140.267 534.133 139.467 533.333C138.8 532.666 136.267 532 134 532C131.733 532 129.333 531.466 128.533 530.8C127.067 529.333 116.267 527.866 108.267 528C103.867 528 100.533 526.8 94.4 523.066C87.0667 518.533 85.2 518 77.4667 518H68.6667L68.2667 522.266C68 524.666 67.3334 526.666 66.6667 526.666C66 526.666 64.4 528.533 63.2 530.8C61.3334 534.666 60.8 534.8 56.2667 534C46.9334 532.266 42.6667 529.733 42.6667 526C42.6667 521.333 48 518.4 64.5334 513.866C86.8 507.866 93.3334 503.6 93.3334 494.8C93.3334 488.8 91.7334 487.333 78.6667 482.666C17.6 460.666 12 457.6 12 446.666C12 442.533 12.9334 440.8 16.6667 437.6C21.3334 433.466 28.9334 431.066 32.6667 432.533C33.8667 432.933 34.6667 434.933 34.6667 437.2C34.6667 442.4 36.4 443.466 56.6667 451.2C65.4667 454.533 90.4 464.133 112 472.666C133.6 481.066 153.2 488.266 155.333 488.4L159.333 488.666L158.933 418C158.533 321.733 157.733 299.466 154.8 295.733C152.533 293.066 152.4 293.733 152.8 310.8C155.6 427.066 156.267 481.6 154.933 482.933C150.933 486.933 150.667 482 150.667 391.066C150.667 308.933 150.4 299.333 148.533 295.066C145.467 288.666 142.133 286.933 129.333 284.666C123.2 283.6 117.6 282.133 116.933 281.466C116.133 280.666 117.6 280.666 120.8 281.333C123.733 281.866 129.867 282.8 134.667 283.333C139.467 283.866 146.533 285.733 150.533 287.6L157.733 290.933L177.867 288.133C188.933 286.666 207.867 284.133 220 282.666C232 281.2 242.267 279.6 242.8 278.933C244.133 277.733 242.133 275.333 234.933 268.933C230.933 265.466 228.133 264 224.933 264C222.667 264 203.6 266.4 182.667 269.333C143.467 274.8 115.467 278.4 115.2 278.133C115.067 278.133 114.667 260.666 114.267 239.6C113.6 201.2 113.6 201.2 116.4 200.133C118 199.466 127.6 198.266 137.6 197.333C157.333 195.466 160.133 194.666 157.6 191.6C156.267 190 154.267 190 143.733 191.466C121.733 194.533 117.733 194.133 90 186.266C76.1334 182.266 60 177.866 54.2667 176.533C42 173.733 43.2 172.8 60.6667 171.466C67.3334 170.933 86.6667 169.333 103.733 167.866C120.933 166.533 135.6 165.333 136.533 165.333C137.467 165.333 146.4 173.2 156.533 182.933C169.6 195.466 174.267 200.8 173.067 201.466C172 202 164.667 203.2 156.667 204C138.933 205.866 132.533 207.466 131.6 209.866C131.2 210.933 130.667 223.466 130.533 237.6L130.267 263.333L135.2 263.733C138 264 144.8 263.6 150.4 262.933C156 262.133 173.6 260 189.333 258C223.067 253.866 222.533 254 219.6 251.066C217.6 249.066 214.667 249.2 178.667 253.866C157.333 256.666 139.067 258.533 138 258.133C136.4 257.6 136 253.466 136 235.466C136 220.933 136.533 213.2 137.467 212.533C140.133 210.933 179.2 206.8 181.333 208C182.4 208.666 185.733 211.6 188.667 214.666L194 220.4L188.667 219.466C178.133 218 169.467 225.466 172.267 233.466C174.133 239.066 178.267 241.333 186 241.333C194.267 241.333 198.267 238 198.933 230.4L199.333 225.466L268 293.733C319.6 344.933 336 362 334.133 362.4C332.4 362.8 327.867 359.2 319.2 350.533C312.4 343.733 306.533 338.4 306.133 338.8C305.867 339.066 304.667 341.6 303.6 344.266C301.467 349.333 297.867 350.933 296.533 347.466C296.133 346.533 297.2 343.2 298.8 340.133L301.733 334.4L288.533 321.2C281.333 314 274.8 308 274 308C273.2 308 271.6 310.933 270.267 314.666C268.533 319.6 267.2 321.333 265.333 321.333C261.867 321.333 262 319.2 265.867 310.4L269.2 303.066L262.4 296L255.733 288.933L246.133 289.866C226 291.866 212.8 294 212.4 295.466C212.133 296.266 222.933 303.066 236.533 310.533C250 318 261.733 324.933 262.533 325.866C263.733 327.333 262.933 327.866 259.067 328.533C251.2 329.733 249.733 329.466 249.067 326.933C248.267 323.866 234.933 316 232.4 316.933C231.333 317.333 228.667 321.333 226.4 325.866C221.867 335.066 219.067 338.666 216.4 338.666C213.733 338.666 214.267 336.266 219.2 326.8C226.133 313.2 226.133 312.533 221.067 309.866C218.667 308.666 213.2 305.333 209.067 302.533C200.533 296.8 197.467 296.4 182.667 298.8C171.333 300.533 168.8 302.8 169.733 310.533C170.133 313.733 171.467 317.333 172.8 318.666C177.733 323.066 228.267 352 231.333 352C231.6 352 232.8 349.866 233.867 347.333C234.933 344.8 236.4 342.666 236.933 342.666C237.467 342.666 238.133 347.333 238.133 352.933C238.4 372.533 248 390.533 271.067 414.266C285.6 429.2 293.6 435.066 323.333 452.8C352.933 470.4 363.2 481.466 378.4 511.333C391.867 538.133 396.533 553.333 401.333 586C402.667 595.866 405.067 608.133 406.667 613.066C414.133 638.266 435.6 656.4 465.333 662.8C481.867 666.4 505.6 667.466 522.267 665.466C551.733 661.866 587.067 650 599.6 639.466C603.6 636 606.667 635.066 606.667 637.066C606.667 638.8 585.867 650.8 573.733 655.866C553.2 664.8 529.067 671.066 510 672.666C485.2 674.8 454.133 668.266 436.8 657.333C420.667 647.066 404.667 626.4 400.4 610C399.333 606.4 397.467 594.933 396 584.533C390.933 546.533 380.8 517.6 364.133 492.8C353.733 477.466 343.467 469.066 315.333 452.666C308 448.4 297.067 441.333 291.067 437.066C278.8 428.133 275.6 427.733 274.933 434.4C274.4 439.6 271.867 439.466 270.533 434.133C269.2 429.333 270.267 426.666 273.467 426.666C277.2 426.666 276.533 425.2 271.467 421.066C264.533 415.466 246 390 240.267 378.4C234.133 365.6 231.733 365.2 230.533 376.666C228.533 394.666 229.067 400.133 233.467 408.666C247.733 435.733 269.867 457.6 307.2 481.066C357.067 512.533 374.667 540.933 374.667 590.266C374.667 596.933 375.467 606.8 376.533 612.266C380 630.133 390.4 652 401.467 664.4C413.6 678.133 440.133 692.8 464.667 699.466C476.933 702.8 480 703.066 502 703.066C540.533 703.066 561.733 697.866 600.667 678.8C640.933 658.933 660.133 641.733 681.733 606C696.267 582 701.333 560.533 701.333 524C701.2 491.6 698.267 477.866 688.133 462.266C672 437.6 640.267 413.866 613.333 406.266C609.333 405.066 600.933 403.2 594.667 402C576.4 398.666 563.867 394.8 554.667 389.733C529.467 376 502.533 345.6 485.867 312.4C481.867 304.133 475.867 294 472.533 289.733L466.667 282.266V257.866V233.466L459.067 231.333C444.667 227.333 442.667 226.4 441.333 224.133C440.667 222.8 440 208.666 439.733 192.666C439.6 175.2 438.933 163.066 438 161.866C435.2 158 420.667 154.666 387.2 150.266C329.6 142.533 326.8 142.4 298.133 145.066C273.733 147.333 272.8 147.333 267.467 144.933C246.267 135.466 222.267 137.733 207.467 150.8C204.133 153.733 200.8 156 200 155.733C198.8 155.333 154.4 114.266 139.733 99.8664L132 92.3997V82.7997C132 73.4664 131.867 72.933 127.333 68.3997C124.8 65.8664 122.667 63.5997 122.667 63.4664C122.667 63.333 125.6 63.1997 129.2 63.1997C136.533 63.333 143.067 59.733 143.733 55.0664C144.133 52.2664 134.533 42.3997 128.8 39.8664C127.067 39.0664 124.667 36.3997 123.6 33.8664C122.4 31.333 118.933 27.733 115.867 25.733C112.8 23.5997 106.933 18.533 102.8 14.2664C94.8 5.73304 90 2.66637 84.9334 2.66637C81.2 2.66637 74.6667 7.33304 74.6667 9.9997C74.6667 13.9997 71.8667 13.0664 63.8667 6.66637C56 0.399703 51.6 -1.06696 46 0.66637ZM58.6667 10.6664C62 13.4664 66.6667 17.8664 69.0667 20.2664C73.3334 24.7997 73.3334 24.7997 70.6667 27.333C66.1334 31.4664 67.7334 43.4664 74 51.9997C77.0667 56.133 82 69.0664 80.9334 70.133C80.6667 70.3997 74.9334 67.5997 68 63.9997C46.5334 52.7997 37.3334 51.333 37.3334 59.1997C37.3334 64.133 40.4 65.733 47.8667 64.6664C53.6 63.8664 55.6 64.2664 62.9334 67.8664C71.4667 71.9997 80.8 78.6664 75.3334 76.6664C73.8667 76.133 70.2667 74.7997 67.3334 73.733C62 71.733 54.1334 72.2664 52.6667 74.6664C51.0667 77.1997 53.4667 81.0664 57.3334 82.3997C60.4 83.5997 61.7334 83.333 64 81.333C66.8 78.933 67.0667 79.0664 78.2667 84.2664C87.7334 88.533 92.6667 92.133 104.533 103.066C120.933 118 183.867 177.466 212.667 205.333C222.933 215.333 253.867 244.666 281.333 270.666C308.8 296.666 337.867 324.266 346 332C354 339.866 364.8 350 369.733 354.666C378 362.4 378.667 363.466 376.533 364.933C374.4 366.533 372.4 365.066 359.333 352.4C351.333 344.4 336.267 330 326 320.133C315.733 310.266 299.6 294.666 290 285.333C280.533 276.133 265.2 261.333 256 252.666C246.8 243.866 224.267 222.266 206 204.666C97.4667 100.133 89.4667 92.933 83.0667 90.933C75.2 88.533 70.9334 88.933 69.3334 91.9997C68.2667 93.9997 68.5334 95.1997 70.6667 97.333C73.8667 100.533 76.9334 100.8 80.1334 97.8664C84.4 93.9997 77.0667 87.333 202 207.2C217.333 222 253.333 256.533 282 284C310.533 311.466 339.733 339.333 346.667 346.133C353.6 352.8 361.733 360.4 364.667 362.933C369.2 367.066 369.733 368 368.133 369.866C367.067 371.066 365.467 372 364.533 371.733C363.6 371.466 337.733 346.666 307.067 316.666C198.133 209.866 104 118.4 99.2 114.533C94.8 111.066 93.3334 110.666 84.8 110.666H75.2L58.6667 93.5997C27.6 61.8664 13.3334 45.5997 13.3334 41.8664C13.3334 37.8664 22.2667 18.2664 26.1334 13.5997C29.0667 10.2664 46 4.13304 50 5.06637C51.4667 5.46637 55.3334 7.9997 58.6667 10.6664ZM94.4 11.4664C100.667 16.7997 101.333 19.1997 97.2 21.4664C93.8667 23.1997 85.8667 21.9997 85.0667 19.5997C84.2667 17.333 86.5334 6.66637 87.8667 6.66637C88.4 6.66637 91.3334 8.7997 94.4 11.4664ZM115.333 30.7997C118 33.733 119.867 36.533 119.6 36.933C119.2 37.333 116.667 38.133 113.867 38.6664C105.2 40.6664 102.133 37.0664 105.333 28.7997C107.067 23.9997 109.6 24.533 115.333 30.7997ZM98.1334 32.6664C99.3334 37.5997 97.8667 38.2664 94 34.6664C89.7334 30.6664 89.7334 29.333 94 29.333C96.4 29.333 97.4667 30.2664 98.1334 32.6664ZM77.3334 31.9997C77.3334 32.6664 76.8 33.333 76 33.333C75.3334 33.333 74.6667 32.6664 74.6667 31.9997C74.6667 31.1997 75.3334 30.6664 76 30.6664C76.8 30.6664 77.3334 31.1997 77.3334 31.9997ZM92.5334 42.933C93.3334 43.5997 92.6667 45.0664 91.0667 46.533C88.5334 48.933 88.4 49.5997 90 58.2664C91.7334 67.5997 96 79.5997 99.3334 84.533C103.333 89.9997 101.2 89.5997 96.6667 83.8664C91.0667 76.7997 82.5334 60.6664 78 48.6664C74.1334 38.3997 74.1334 38.6664 76.6667 38.6664C77.7334 38.6664 79.3334 37.4664 80.2667 35.9997C81.8667 33.4664 82.1334 33.5997 86.6667 37.733C89.2 39.9997 91.8667 42.3997 92.5334 42.933ZM117.333 48.7997C117.333 53.4664 113.867 54.2664 109.867 50.533C106.4 47.1997 106.8 45.8664 112 45.0664C116.533 44.3997 117.333 44.933 117.333 48.7997ZM132.8 47.333C136.8 51.333 136.533 53.333 131.467 55.8664C124.133 59.333 118.933 53.733 122.667 46.533C124.667 43.0664 128.8 43.333 132.8 47.333ZM114.533 63.733L126.667 74.933V82.3997C126.667 87.4664 127.467 91.333 129.067 93.9997C130.533 96.2664 143.467 109.2 158 122.666C212.667 173.6 245.2 203.866 261.333 218.666C270.533 227.066 282.267 237.866 287.333 242.666C292.533 247.6 300.533 255.066 305.333 259.466C310.133 263.866 323.333 276.133 334.667 286.8C346 297.466 365.2 315.333 377.333 326.533C389.467 337.866 399.867 347.866 400.4 348.8C401.067 350 400.667 350.933 399.333 351.466C397.867 352 395.467 350.8 392.267 347.733C389.6 345.2 378 334.533 366.667 323.866C355.333 313.333 335.867 295.066 323.333 283.333C301.067 262.266 270.933 234 231.333 196.8C220.4 186.4 199.333 166.533 184.667 152.666C169.867 138.666 148.933 118.933 138 108.666C119.467 91.1997 110.667 80.7997 110.667 76.133C110.667 75.0664 111.6 73.0664 112.933 71.733C116.133 68.2664 113.467 62.6664 108.533 62.6664C102 62.6664 101.333 65.8664 105.467 76.133C110.8 89.0664 111.867 90.3997 133.467 110.533C144.133 120.533 181.6 155.6 216.667 188.666C251.733 221.6 286.533 254.4 294.133 261.333C322.533 287.733 387.467 349.066 390.533 352.533C392.4 354.533 393.067 356 392.133 356C390.4 356 380.533 346.933 319.467 289.333C301.867 272.8 272.8 245.6 254.8 228.8C226.267 202.133 206.533 183.466 162.667 141.866C157.2 136.666 142.933 123.466 131.067 112.666C112.533 95.733 108.8 91.5997 104.667 83.8664C99.6 74.133 94.6667 61.0664 94.6667 57.333C94.6667 55.1997 99.4667 51.8664 101.6 52.3997C102.133 52.533 108 57.5997 114.533 63.733ZM45.4667 60.3997C45.3334 61.9997 43.4667 61.5997 42.9334 59.8664C42.5334 59.0664 43.0667 58.533 44 58.7997C44.8 59.1997 45.4667 59.8664 45.4667 60.3997ZM109.333 67.9997C109.333 68.6664 108.8 69.333 108 69.333C107.333 69.333 106.667 68.6664 106.667 67.9997C106.667 67.1997 107.333 66.6664 108 66.6664C108.8 66.6664 109.333 67.1997 109.333 67.9997ZM30.6667 75.1997C30.6667 76.2664 30.1334 77.5997 29.3334 77.9997C28.6667 78.3997 28 80.533 28 82.533C28 84.6664 26.9334 87.733 25.4667 89.4664L23.0667 92.533L17.3334 87.9997L11.6 83.4664L15.2 80.3997C17.2 78.6664 19.8667 77.333 21.0667 77.333C22.2667 77.333 24.5334 76.3997 25.8667 75.333C29.2 72.7997 30.6667 72.7997 30.6667 75.1997ZM46.2667 94.533C45.8667 99.8664 43.4667 104 40.8 104C39.8667 104 37.4667 102.133 35.3334 99.9997C32 96.533 31.7334 95.733 33.3334 94.133C35.0667 92.533 41.8667 89.8664 45.6 89.4664C46.1334 89.333 46.5334 91.5997 46.2667 94.533ZM140.133 127.066C153.6 139.733 174.267 159.066 186.133 170C197.867 181.066 232.667 213.733 263.467 242.666C294.267 271.6 334.533 309.466 353.067 326.666C371.6 343.866 386.667 358.4 386.667 358.933C386.667 362.533 380.133 357.866 364.267 342.933C354.4 333.6 340.8 320.933 334 314.666C319.733 301.6 239.333 225.2 193.333 181.2C176.133 164.666 152.133 141.866 140 130.4C115.733 107.466 112.267 104 114.267 104C115.067 104 126.667 114.4 140.133 127.066ZM64 111.733C64 116.266 58.8 121.733 55.6 120.533C54.4 120.133 52.5334 118.4 51.4667 116.666C49.4667 113.6 49.6 113.2 52.2667 110.666C54 109.066 56.9334 108 59.6 108C63.6 108 64 108.4 64 111.733ZM254 146.8C256.933 147.6 262.533 149.733 266.533 151.6C276.267 156 281.333 156.933 281.333 154.4C281.333 151.866 288.133 150.933 314 149.866C330.533 149.2 336 149.6 362.667 153.333C379.2 155.6 397.733 158.133 404 158.933C410.267 159.6 416.267 160.533 417.333 160.933C418.4 161.333 405.867 163.066 389.333 164.8C372.8 166.533 342.533 169.733 322 172C272.267 177.333 246.533 180 236 180.933L227.333 181.6L222.133 176.133C217.467 171.466 217.067 170.533 218.8 168.533C225.333 160.666 244.667 155.2 258.267 157.333C262.267 158 268.933 160.533 273.2 162.8L281.067 167.2L294.133 164.666C307.733 162.266 313.333 159.6 308.8 157.866C307.467 157.333 300.933 157.866 294.4 159.066L282.4 161.2L275.867 157.866C255.067 147.333 234.4 149.066 217.067 162.8L211.733 167.066L208.933 164.266C206.133 161.466 206.133 161.333 208.8 158.533C218.133 148.266 239.2 142.8 254 146.8ZM432.533 170.933C432.933 173.333 433.6 186.4 434 200C434.533 213.6 435.467 225.6 436.133 226.933C436.8 228.133 439.867 230 442.933 231.066L448.667 232.933L444.667 233.733C440.933 234.533 364.267 245.333 342.667 248C337.2 248.8 326.4 250.266 318.8 251.333L304.8 253.466L300.8 249.466L296.933 245.466L300.133 244.8C307.067 243.333 353.333 237.333 392.667 232.666C408.8 230.666 423.333 228.666 424.933 228C427.6 226.933 427.733 226.266 427.6 202.8C427.6 189.6 427.067 178 426.533 177.066C425.467 175.333 402.8 177.2 363.333 182C354.533 183.2 338.667 184.933 328 186C317.333 187.066 298.533 189.066 286 190.533C244.133 195.333 242.533 195.333 238.4 192C236.267 190.4 234.667 188.666 234.667 188C234.667 186.666 232.933 186.8 296.667 180C324.533 177.066 355.2 173.733 364.667 172.666C374.267 171.6 389.467 170 398.667 169.2C407.867 168.4 415.6 167.466 415.867 167.2C416.133 166.933 419.867 166.666 424.133 166.666C431.867 166.666 431.867 166.666 432.533 170.933ZM422.933 198.266C423.067 218.133 422.933 221.6 421.333 223.2C420.667 223.866 402 226.666 379.733 229.466C357.467 232.266 337.2 234.8 334.667 235.2C307.067 238.933 292.933 240.266 290.667 239.2C287.467 237.733 249.333 202.8 249.333 201.333C249.333 200 253.6 199.466 292 195.333C309.2 193.466 336.267 190.533 352 188.666C367.733 186.8 387.6 184.533 396 183.466C404.4 182.533 413.867 181.6 417.067 181.466L422.667 181.333L422.933 198.266ZM195.467 228.666C196.8 232 193.467 236 189.467 236C184.933 236 182.267 233.2 182.933 229.066C183.6 223.866 193.6 223.466 195.467 228.666ZM462.667 258C462.667 269.333 462.267 278.666 461.733 278.666C460.4 278.666 449.733 271.6 445.733 268.133C443.467 266.266 439.6 265.466 428.4 264.8C405.867 263.333 402.533 265.6 390.533 290.266C383.733 304.533 382.667 307.733 382.667 314.4C382.667 318.666 382.267 322.666 381.733 323.066C380.667 324.266 374.667 318.8 374.667 316.666C374.667 314.933 386.933 285.6 390.8 278.133C392.267 275.333 393.067 272.533 392.4 271.866C391.867 271.333 379.6 272.533 365.333 274.666C332.4 279.6 332.133 279.6 327.333 274.666C325.2 272.533 323.733 270.4 324.133 270.133C324.8 269.466 356.267 265.333 406 259.333C453.333 253.6 455.333 253.333 455.333 250.666C455.333 247.333 449.6 247.6 414.267 252.533C395.733 255.2 379.733 257.333 378.8 257.333C373.867 257.333 380 255.6 397.867 252.133C413.733 248.933 418.4 247.6 422.4 244.4C426.4 241.333 429.467 240.4 439.333 239.2C445.867 238.4 453.867 237.6 457.067 237.466L462.667 237.333V258ZM443.333 274C448.933 276.666 454.667 281.066 462.667 289.2C472.4 298.933 475.067 302.666 480.533 314C490.933 335.466 502.8 352.266 519.2 368.8C535.867 385.333 550.4 395.733 562.933 399.866C567.6 401.333 581.2 404.666 593.333 407.333C622.667 413.733 637.067 420.533 657.467 438C685.733 462 698.133 489.733 694.667 521.066C693.867 528.133 693.067 534.133 692.667 534.4C692.4 534.8 692.4 527.866 692.933 519.2C693.867 499.466 692.267 490.533 685.333 476.533C674.133 453.733 644.267 427.333 618.4 417.333C612.8 415.2 599.2 411.2 588.133 408.666C551.867 400.133 540.8 394.133 516.667 370C498.933 352.266 494.667 346.4 477.067 316C466.533 298 454.8 286.133 441.067 279.6C427.733 273.333 420 271.6 413.2 273.333C405.467 275.466 403.2 281.066 405.333 293.066C407.6 306.266 403.6 321.866 396.133 328.533C394 330.533 392.933 330.8 391.733 329.6C390.533 328.4 390.8 327.333 392.933 325.066C399.733 317.6 403.467 301.733 401.867 287.066C401.067 278.8 401.067 278.666 405.867 273.866L410.8 268.933L423.067 269.6C432.8 270.133 436.933 271.066 443.333 274ZM380 279.066C380 280.8 371.6 302.4 369.2 306.933C367.733 309.6 364.4 308.8 363.333 305.466C362.533 302.8 368.933 287.466 373.467 281.2C376.267 277.2 380 276 380 279.066ZM436.267 283.6C449.467 290.533 461.2 301.866 470.267 316.533C493.333 353.866 509.467 373.866 528.133 388.4C543.467 400.266 556 405.733 584.133 412.8C597.6 416.133 612.533 420.533 617.333 422.533C630.267 427.866 645.867 439.066 659.467 452.533C680.8 473.733 686.667 485.733 687.6 510C688.133 522.133 687.733 526.533 685.333 535.333C681.067 551.466 666.8 577.066 657.333 586C653.333 589.733 652.933 589.866 651.467 587.466C650.667 586.133 640.4 570.266 628.533 552.133C601.733 511.066 603.2 513.733 606.267 510.4C608.533 507.866 609.733 507.866 626.667 508.533C636.533 508.933 647.467 509.6 650.933 510.133C656.533 510.8 657.333 510.666 659.333 507.466C662.667 502.4 663.333 490.133 660.8 479.466C655.333 456 636.4 434 616.133 427.466C612.8 426.266 600.4 424.266 588.533 422.8C559.467 419.2 544.4 413.866 521.867 398.666C505.467 387.6 501.2 382.266 482.667 350.666C472 332.266 462.533 318.933 455.733 312.4C444 301.066 425.333 301.2 417.867 312.666C416.667 314.666 413.867 322.533 411.733 330.4C409.6 338.266 407.333 345.2 406.533 345.866C405.867 346.666 403.867 345.733 401.467 343.466L397.467 339.6L401.333 334.8C409.733 324.4 412.8 310.4 410.533 294.266C409.333 286.4 409.333 282.933 410.533 280.4C412 277.2 412.533 277.066 419.333 277.733C424 278.266 430 280.266 436.267 283.6ZM237.333 297.466C237.333 300.133 234.533 304 232.667 304C230.267 304 230 299.866 232.267 297.6C234.267 295.6 237.333 295.466 237.333 297.466ZM196 307.6C192.4 318.666 186.667 326.8 186.667 320.666C186.667 317.866 193.2 303.6 195.067 302.4C197.467 300.933 197.733 302.133 196 307.6ZM443.467 311.466C449.733 314.4 459.333 325.466 467.333 338.933C479.867 360.133 496 384.133 501.733 390.4L507.6 396.666L506.8 412.133C505.867 428.8 504.4 432.4 499.2 431.733C497.467 431.466 485.733 421.6 471.6 408.4L447.067 385.6L450.8 377.866C454 370.933 454.267 369.866 452.533 367.466C451.067 365.333 450.667 359.733 450.667 343.866C450.667 332.266 450.267 322 449.867 320.8C448.4 316.8 445.467 318.533 444.933 323.6C444.533 327.733 444.4 327.466 444.267 321.6C444 316.4 443.467 314.666 442 314.666C440.4 314.666 440 316.933 440 327.333C440 339.866 441.467 343.333 444 336.933C444.8 334.933 445.2 338 445.2 347.2L445.333 360.533L441.333 356.666L437.467 352.933L437.067 332.933C436.8 318.4 436.267 312.8 435.067 312.266C433.733 311.866 433.333 315.866 433.333 329.2C433.333 348.133 432.533 349.866 426.8 343.2C424.4 340.4 422.933 339.866 419.867 340.533C417.733 340.933 416 341.066 416 340.8C416 337.466 422 318.533 423.867 316C428.667 309.333 435.6 307.733 443.467 311.466ZM275.6 335.866C278.4 337.333 286.133 343.066 292.667 348.533C306.133 360 320.667 367.866 328.667 368.133C331.6 368.266 338.4 367.866 343.733 367.333C352 366.4 353.333 366.666 353.333 368.4C353.333 371.733 344.4 373.733 331.2 373.2C315.6 372.533 306.533 368.266 288.267 352.933C271.6 338.933 269.467 337.333 263.067 336C255.733 334.266 246.267 338.8 248.8 342.8C249.333 343.866 250 343.866 251.067 342.8C253.067 340.8 262.133 340.933 265.733 342.933C267.333 343.733 275.6 349.866 284 356.4C292.4 362.933 301.6 369.733 304.4 371.6C312.8 376.933 324.267 379.066 339.6 378.266L353.2 377.6L351.467 381.2C347.467 388.933 349.067 392.133 363.733 408C371.333 416 378.533 422.666 379.6 422.666C380.8 422.666 385.6 420.533 390.267 418C395.6 414.933 399.333 413.6 400.533 414.266C403.733 416.133 448 460 448 461.333C448 462.133 447.467 462.666 446.8 462.666C446.133 462.666 443.733 464.266 441.467 466.133C438.267 468.8 437.333 470.666 437.333 474.533C437.333 478.933 438.667 480.666 453.067 495.066C462.533 504.533 469.733 510.666 471.333 510.666C472.8 510.666 477.067 508.8 480.667 506.666C488.8 501.866 490.667 501.733 494.667 506C497.733 509.333 497.733 509.333 496.8 534.8L495.867 560.133L499.6 559.733L503.333 559.333L503.733 538.266C503.867 526.8 504.533 517.333 505.067 517.333C505.6 517.333 513.467 524.4 522.667 533.066C533.067 542.933 538.8 549.333 538.133 550.4C536.133 553.6 519.067 562.666 510.667 564.8C500.4 567.333 482.933 566.8 472.4 563.466C454.933 558 433.2 537.866 423.467 518.266C416.133 503.466 414.667 494.933 414.667 466.666C414.533 439.733 413.6 432 410 427.866C406.533 424.133 405.067 426.533 407.2 432.666C408.4 436.266 409.2 448.4 409.6 468.666C410.133 489.6 410 497.2 409.067 492.666C407.867 486.133 404.933 481.333 403.2 483.066C402.8 483.466 403.067 485.733 403.867 488.133C404.667 490.533 405.333 494 405.333 495.866C405.333 506.933 413.467 526.666 423.2 539.6C446.533 570.4 481.467 583.066 517.867 573.866L527.067 571.6L529.2 574.533C530.533 576.133 533.867 578.666 536.8 579.866C548.533 585.333 600.933 628.4 601.2 632.933C601.467 635.6 575.467 647.466 558 652.666C534.267 659.866 519.333 661.733 494.667 660.933C470.933 660 461.467 658 445.6 650.533C428 642.133 415.867 627.6 410.133 608.133C408.933 604.133 406.8 591.866 405.2 580.8C401.867 556 399.2 546.933 389.067 524.266C370.933 483.866 360.933 470.933 335.2 455.333C294.4 430.533 275.6 415.466 260.4 395.333C242.8 372.266 236.533 342.266 247.6 335.066C254.667 330.4 265.733 330.8 275.6 335.866ZM435.467 355.6C442.4 362 448 368.266 448 369.6C448 371.733 441.067 377.333 438.4 377.333C435.733 377.333 437.733 373.466 440.667 372.8C443.867 372 445.467 368 442.533 368C441.733 368 436.4 363.466 430.8 358C425.067 352.533 419.867 348 419.067 348C418.267 348 416.933 348.933 416 350C414.133 352.266 410.667 352.666 410.667 350.666C410.667 349.466 419.467 344.133 421.733 344C422.4 344 428.533 349.2 435.467 355.6ZM342 357.466C343.867 360.4 341.6 359.866 338.533 356.533C335.467 353.2 335.467 353.066 338.267 354.533C339.867 355.333 341.6 356.666 342 357.466ZM406.667 354.533C406.667 356.4 404.267 357.6 402.533 356.533C401.467 356 401.6 355.333 402.8 354.533C405.2 353.066 406.667 353.066 406.667 354.533ZM398 360C398.4 360.666 398.267 361.333 397.467 361.333C396.8 361.333 395.733 360.666 395.333 360C394.933 359.2 395.067 358.666 395.867 358.666C396.533 358.666 397.6 359.2 398 360ZM422 368C426.4 372.533 426.933 373.6 425.333 374.666C422.4 376.533 422.533 376.533 415.333 369.333C410 364 409.067 362.266 410.533 361.333C413.067 359.866 415.467 361.2 422 368ZM391.733 364.133C391.467 364.933 390.667 365.466 390 365.466C389.333 365.466 388.533 364.933 388.267 364.133C388 363.333 388.8 362.666 390 362.666C391.2 362.666 392 363.333 391.733 364.133ZM412.133 372.666C415.6 375.866 418 378.933 417.467 379.2C416.933 379.6 413.2 376.933 409.2 373.333C405.2 369.733 402.8 366.8 403.867 366.666C404.933 366.666 408.533 369.333 412.133 372.666ZM383.333 369.333C382.933 370 381.6 370.666 380.533 370.666C379.467 370.666 378.933 370 379.333 369.333C379.733 368.533 381.067 368 382.133 368C383.2 368 383.733 368.533 383.333 369.333ZM407.333 377.2C410.933 381.066 412.133 383.066 411.067 384.133C409.2 386 395.067 373.2 396.533 370.933C397.867 368.8 400.8 370.533 407.333 377.2ZM374.667 374.533C374.667 375.866 370.667 377.733 369.733 376.8C369.333 376.4 369.467 375.6 370 374.8C371.067 373.066 374.667 372.8 374.667 374.533ZM398 381.333C403.333 386.666 404.267 388.4 402.8 389.333C400.267 390.8 397.867 389.466 391.467 382.933C386.667 377.866 386 374.666 389.733 374.666C390.667 374.666 394.4 377.733 398 381.333ZM365.333 379.866C365.333 380.533 364.667 381.333 363.867 381.6C361.067 382.533 364 387.333 372.667 396C382.667 406 385.867 405.866 376.8 395.866C370.4 388.8 369.467 386.666 372.4 386.666C375.2 386.666 385.333 397.866 385.333 401.066C385.333 403.066 386.133 404 388 404C391.867 404 391.2 406.266 386.667 408.666C382.133 411.066 382.533 411.333 366 393.733C357.067 384.266 356.933 384 359.333 381.333C361.867 378.533 365.333 377.733 365.333 379.866ZM433.333 379.866C433.333 381.733 430.933 382.933 429.333 382C428.533 381.466 428.267 380.533 428.667 379.866C429.733 378.266 433.333 378.266 433.333 379.866ZM389.333 387.2C393.067 390.666 396 393.733 395.733 393.866C395.467 394 394.267 394.933 392.933 395.866C390.8 397.6 389.867 397.066 384 391.333C377.2 384.666 376 382.133 379.067 380.933C381.467 379.866 381.867 380.133 389.333 387.2ZM418.667 388.533C418.667 390 416.133 390.533 415.333 389.333C414.933 388.666 415.467 388 416.533 388C417.733 388 418.667 388.266 418.667 388.533ZM455.067 398.933C472.533 414.666 493.333 434.8 493.333 436.266C493.333 436.933 491.867 437.333 490 437.066C486.133 436.533 436.933 391.2 438.133 389.2C439.733 386.533 443.2 388.533 455.067 398.933ZM410.667 393.333C410.667 395.066 406.933 396.666 405.6 395.466C405.2 394.933 405.6 394 406.667 393.333C409.333 391.6 410.667 391.733 410.667 393.333ZM439.2 398.266C453.733 411.2 484 440.4 483.467 441.066C482.667 441.733 476.533 436.666 464 424.8C459.2 420.266 450.533 412.133 444.667 406.666C438.8 401.2 433.467 396 432.933 395.066C430.933 392 433.6 393.2 439.2 398.266ZM399.333 400.8C398 401.733 396.4 402.266 395.733 401.866C395.067 401.466 395.6 400.266 396.933 399.333C398.267 398.4 399.867 397.866 400.533 398.266C401.2 398.8 400.667 399.866 399.333 400.8ZM438 406.4C443.2 411.333 454.267 421.866 462.533 429.733C473.6 440.133 477.333 444.533 476.267 445.6C475.2 446.666 468.933 441.333 453.333 426.533C441.467 415.2 430 404.666 427.867 402.933C423.467 399.333 422.933 397.333 426.4 397.333C427.6 397.333 432.933 401.466 438 406.4ZM424.533 406.266C427.467 408.933 438.933 419.6 449.733 429.866C467.333 446.533 469.2 448.666 467.333 450.533C465.067 452.8 465.867 453.466 443.333 431.866C436 424.933 426.533 415.866 422.267 412C416.267 406.4 414.933 404.533 416.133 403.2C418.267 400.666 418.267 400.666 424.533 406.266ZM523.467 408C534.267 415.466 547.733 422 558.533 424.8C562.533 425.733 575.333 427.6 587.067 428.8C600.133 430 611.067 431.866 615.333 433.466C623.2 436.4 637.467 448.533 639.867 454.266C640.933 456.8 641.333 465.6 641.067 480L640.667 502L637.333 502.4L634 502.8L634.4 477.733C634.533 463.866 634.133 451.866 633.467 450.8C632.8 449.733 631.333 449.333 630.133 449.733C628.533 450.4 628 452.533 628 458.933C628 469.733 627.067 471.066 620.8 470C613.733 468.666 606.933 470.266 604.533 474C602.8 476.8 602.8 477.6 604.533 481.866C606.8 487.333 610.4 488.666 619.867 487.466C627.2 486.533 627.2 486.533 628.667 496.533L629.6 502.666H619.867C613.067 502.666 608.267 503.466 604.4 505.2C599.6 507.466 598.667 507.466 597.2 505.866C594.933 503.066 591.467 503.6 588 507.333C586.267 509.2 584 510.666 583.067 510.666C580.667 510.666 542.533 474.666 543.467 473.2C543.867 472.533 543.467 470.933 542.667 469.466C541.6 467.333 541.867 466.533 544 465.333C545.467 464.533 546.667 462.666 546.667 461.2C546.667 458.266 520.933 432.533 514.667 429.333C510.933 427.466 510.667 426.8 510.667 419.333C510.667 410.666 511.867 401.333 513.067 401.333C513.467 401.333 518.133 404.4 523.467 408ZM434.8 430.666C458.267 453.6 459.2 454.666 456.667 456.666C455.333 457.733 453.733 458.533 453.2 458.4C452.8 458.133 441.333 447.333 428 434.266C404.933 412 403.733 410.533 406.133 408.666C407.467 407.6 409.067 406.666 409.467 406.666C409.867 406.666 421.2 417.466 434.8 430.666ZM526.267 445.333C533.6 451.866 540 458.133 540.4 459.2C540.933 460.4 540 462.133 538.267 463.333C533.867 466.4 532 465.866 532.667 461.6C533.2 458.533 532 456.533 524.533 448.8C516.8 440.533 515.2 439.466 510.667 439.466C507.867 439.333 505.067 438.8 504.4 438.266C503.067 436.933 507.6 433.333 510.667 433.333C511.867 433.333 518.8 438.666 526.267 445.333ZM499.733 441.2C501.067 442 501.067 442.533 499.333 444C496.933 446 493.733 444 495.2 441.466C496.267 439.733 497.333 439.6 499.733 441.2ZM492 447.466C492 447.733 491.067 448 490 448C488.933 448 488 447.466 488 446.666C488 446 488.933 445.733 490 446.133C491.067 446.666 492 447.2 492 447.466ZM514.8 454.4C521.6 460.666 522.533 464 517.6 464C514.533 464 502.133 451.333 503.2 449.466C504.933 446.8 507.733 448 514.8 454.4ZM484.133 451.333C484 453.333 480.933 452.933 480.267 450.933C479.867 449.733 480.533 449.2 481.867 449.6C483.2 449.733 484.133 450.533 484.133 451.333ZM476 456C476 457.466 472 458.8 470.4 457.866C469.467 457.2 469.867 456.266 471.333 455.2C473.733 453.466 476 453.866 476 456ZM505.2 460C509.2 463.733 512.133 466.933 511.733 467.333C510.933 468.266 501.333 460.4 498.133 456.266C494.4 451.333 497.6 453.066 505.2 460ZM499.867 464.533C505.467 470.266 506.4 471.733 504.667 472.533C503.2 473.066 500.133 471.2 495.2 466.4C491.2 462.666 488 459.066 488 458.533C488 455.333 493.467 458.133 499.867 464.533ZM465.733 459.6C467.2 460.933 464 464 461.2 464C458 464 457.867 461.866 461.067 460.133C463.733 458.533 464.667 458.4 465.733 459.6ZM490.4 468.666C497.733 475.733 497.867 476.133 495.333 478C492.933 479.866 492.267 479.466 485.067 472.4C479.2 466.533 477.733 464.4 478.933 463.066C481.2 460.266 482.4 460.933 490.4 468.666ZM454.667 466.533C454.667 467.2 453.733 468.4 452.667 469.333C451.6 470.266 450.667 471.466 450.667 472.133C450.667 474.266 471.6 494.666 473.867 494.666C475.2 494.666 477.333 494 478.667 493.333C483.2 490.933 483.067 494.533 478.4 497.333C476 498.8 473.6 500 473.067 500C469.2 500 444.933 474.133 445.6 470.666C446.267 467.733 454.667 463.733 454.667 466.533ZM480.133 473.6C484.4 477.466 488 481.333 488 482.133C488 482.933 486.667 484.266 484.933 484.933C482.133 486.266 480.933 485.6 474.267 479.466C470 475.733 466.667 472 466.667 471.066C466.667 469.733 470 466.8 471.733 466.666C472 466.666 475.733 469.866 480.133 473.6ZM528 468C528 469.6 524.267 471.333 523.2 470.266C522 469.066 524 466.666 526.133 466.666C527.2 466.666 528 467.333 528 468ZM518.667 473.333C518.667 474 518.4 474.666 518.133 474.666C517.733 474.666 517.067 474 516.667 473.333C516.267 472.533 516.533 472 517.2 472C518 472 518.667 472.533 518.667 473.333ZM470.4 481.866C476.133 488.133 477.333 490.666 474.267 490.666C471.733 490.666 458.267 476.4 459.2 474.8C460.533 472.666 463.867 474.8 470.4 481.866ZM621.067 476.4C621.333 477.733 620.667 478.666 619.467 478.666C617.067 478.666 615.6 476.533 616.667 474.533C617.867 472.666 620.533 473.733 621.067 476.4ZM512 477.333C512 478 511.067 478.666 510 478.666C508.933 478.666 508 478 508 477.333C508 476.533 508.933 476 510 476C511.067 476 512 476.533 512 477.333ZM547.6 485.2C564 499.333 577.6 513.2 576.667 514.533C574.667 518 570.133 515.066 555.2 501.2C532.533 480 532.933 480.4 533.867 478.8C535.6 476 538.667 477.333 547.6 485.2ZM504 481.333C504 482.933 498.667 485.866 497.733 484.8C496.533 483.733 500 480 502.133 480C503.2 480 504 480.533 504 481.333ZM618 482.4C617.6 482.8 616.533 482.4 615.6 481.466C614.4 480.133 614.533 480 616.4 480.8C617.733 481.2 618.4 482 618 482.4ZM549.733 501.733C560.533 512.133 569.333 521.466 569.333 522.4C569.333 525.333 566.933 524 564.133 519.6C562.667 517.333 553.6 508.133 544 499.466C534.533 490.666 526.667 483.333 526.667 483.066C526.667 480.533 533.2 485.733 549.733 501.733ZM527.467 490.933C542.133 503.333 561.333 523.333 561.333 526.133C561.333 529.733 567.067 534.933 570.4 534.4C572.933 534 578.667 538 578.667 540.266C578.667 542.666 574.533 541.066 566.8 535.333C558.4 529.2 556.4 528.933 553.6 533.333C550.267 538.666 558.267 545.866 563.733 542.533C566.667 540.666 570.667 541.733 570.667 544.266C570.533 546.533 567.067 550.533 561.467 554.933L556.933 558.4L546.8 549.6C541.2 544.666 529.333 533.466 520.4 524.8C505.067 509.866 504 508.4 504 503.733C504 500.933 504.533 498.666 505.2 498.666C505.867 498.666 514.8 506.8 525.2 516.666C542.133 533.066 548.933 537.866 547.733 532.8C547.467 531.866 538.4 522.8 527.6 512.666C516.8 502.666 508.133 493.733 508.4 492.8C509.867 488.533 515.467 492.4 534 509.6C552.267 526.8 557.333 530.4 557.333 526.266C557.333 525.333 548.667 516.4 538.133 506.533C520.8 490.4 516.4 485.333 519.867 485.333C520.4 485.333 523.867 487.866 527.467 490.933ZM493.333 488C493.333 489.866 488.133 492.266 486.4 491.2C485.467 490.533 485.733 489.733 487.333 488.4C490.267 486.4 493.333 486.133 493.333 488ZM498.667 500C498.667 500.666 498.133 501.333 497.333 501.333C496.667 501.333 496 500.666 496 500C496 499.2 496.667 498.666 497.333 498.666C498.133 498.666 498.667 499.2 498.667 500ZM414.133 511.733C413.467 512.4 410.667 503.866 410.8 501.466C410.8 500.266 411.733 502 412.667 505.333C413.733 508.533 414.4 511.466 414.133 511.733ZM596.133 512.133C597.6 513.6 599.867 517.066 600.933 519.733C602.933 524.666 633.067 571.333 644.267 586.8C647.867 591.733 650.667 596.933 650.667 598.266C650.667 601.2 648.133 604 637.867 613.2C634.267 616.533 629.467 620.933 627.067 623.066L622.8 627.066L615.733 621.733C611.867 618.8 601.733 611.866 593.333 606.266C574.267 593.733 550.8 576.266 540.933 567.2C535.467 562.133 533.867 560 535.067 558.8C537.733 556.133 540.933 557.2 548 562.933C576.4 586.133 607.333 602.533 622.533 602.666H629.733L629.067 593.6C627.867 576.533 610 539.6 595.733 524.533C590.933 519.333 589.333 516.8 589.333 513.6C589.333 508.533 592 508 596.133 512.133ZM428 536.266L432.267 542L426.8 536.133C423.867 533.066 419.867 527.2 418 523.333C413.067 512.666 414 511.333 419.2 521.6C421.6 526.533 425.6 533.066 428 536.266ZM582.8 522.933C584.667 521.733 586.133 521.6 588 522.666C591.733 524.666 591.333 528.8 587.333 529.866C585.467 530.4 584 531.6 584 532.666C584 535.6 581.2 535.066 576.667 531.2C573.333 528.4 573.2 528 575.6 528.666C579.467 529.733 580.533 527.466 577.333 524.666C575.867 523.333 574.667 521.6 574.667 520.933C574.667 520.133 575.867 520.666 577.467 522.133C579.733 524.133 580.533 524.266 582.8 522.933ZM94.4 533.333C96.6667 534.8 98.6667 536.533 98.6667 537.333C98.6667 539.466 97.0667 538.933 90.6667 534.666C86.4 531.733 85.4667 530.666 87.3334 530.666C88.8 530.666 92 531.866 94.4 533.333ZM124 537.466C123.067 538.933 122.133 540 121.867 539.6C120.933 538.666 122.8 534.666 124.133 534.666C124.933 534.666 124.8 535.866 124 537.466ZM598.267 541.733C606.667 554 613.867 575.333 612.4 583.2C611.6 586.8 611.333 586.933 605.867 586.133C593.467 584.533 568.667 573.866 563.2 567.866C561.333 565.733 561.2 565.066 562.8 563.2C566.4 558.8 592.133 537.333 593.733 537.333C594.533 537.333 596.667 539.333 598.267 541.733ZM90.6667 541.333C90.6667 542 90.4 542.666 90.1334 542.666C89.7334 542.666 89.0667 542 88.6667 541.333C88.2667 540.533 88.5334 540 89.2 540C90 540 90.6667 540.533 90.6667 541.333ZM173.2 542C175.333 543.066 177.333 544.933 177.867 546C179.333 550 178.667 550 175.467 546.133C173.067 543.066 170.8 542 165.867 541.2C159.733 540.4 159.6 540.4 164.4 540.133C167.2 540.133 171.2 540.933 173.2 542ZM169.467 548.933C171.2 550.933 171.067 550.933 168.667 549.733C167.2 548.933 165.067 548 164 547.6C162.667 547.066 162.933 546.8 164.8 546.8C166.4 546.666 168.533 547.6 169.467 548.933ZM690 569.6C687.2 583.333 681.067 596.933 671.2 611.066C657.067 631.333 649.6 639.733 634.933 650.933C628.267 656.133 627.867 656.266 623.733 654.533C618.933 652.533 598.8 652 592.667 653.733C590.267 654.4 593.467 651.866 600.4 647.466C606.8 643.466 613.733 638.8 615.6 637.333L619.2 634.533L621.733 637.866C623.6 640.533 625.333 641.333 629.333 641.333C633.6 641.333 636.133 640 644.533 633.2C650.133 628.8 655.733 623.733 657.2 621.866C660.4 617.866 662 609.066 660.133 605.733C659.067 603.6 660 601.733 665.6 595.2C673.867 585.6 683.467 571.066 688 561.466C692.133 552.4 692.933 555.2 690 569.6ZM682 562.666C678.8 568.933 670.667 581.333 669.867 581.333C669.467 581.333 670.667 578.8 672.667 575.6C674.533 572.533 677.6 567.2 679.6 563.6C683.467 556.666 685.467 555.866 682 562.666ZM464.667 566.4C464.267 566.8 463.2 566.4 462.267 565.466C461.067 564.133 461.2 564 463.067 564.8C464.4 565.2 465.067 566 464.667 566.4ZM473.333 568.666C475.867 569.6 477.067 570.533 476 570.533C474.933 570.533 472.267 569.733 470 568.666C464.8 566.4 467.2 566.266 473.333 568.666ZM624 589.733C624 593.6 623.867 593.733 621.333 591.333C618.267 588.533 616.8 584.666 618 582.533C619.6 580.133 624 585.466 624 589.733ZM613.333 592.266C616.533 594 619.467 596 619.733 596.933C620.4 599.2 612.667 597.066 604.667 592.933L598 589.466L602.667 589.333C605.333 589.333 610.133 590.666 613.333 592.266ZM656.667 608C657.867 610 656.133 614.666 654.133 614.666C653.333 614.666 651.867 614 650.933 613.066C649.733 611.866 649.867 610.933 651.6 609.066C654 606.4 655.467 606 656.667 608ZM647.867 616.4C649.733 618.8 642.533 626 639.467 624.933C636.267 623.733 636.933 620.533 640.8 617.466C644.933 614.133 645.867 614 647.867 616.4ZM634.667 627.333C636 628.933 636 629.733 634.667 631.333C633.067 633.2 632.667 633.2 630.533 631.2C628.667 629.466 628.4 628.533 629.467 627.066C631.467 624.8 632.667 624.8 634.667 627.333ZM415.333 648.533C414.8 650.133 414.133 652.8 413.733 654.666C412.8 658.933 410.8 661.333 408.533 661.333C405.867 661.333 406.133 650.666 408.8 644.266L410.8 639.333L413.467 642.533C415.2 644.666 415.867 646.8 415.333 648.533Z" fill="white"/>
<path d="M367.333 195.332C361.467 197.466 356.4 202.399 355.2 207.466C353.2 215.599 361.867 223.199 372 222.266C376.8 221.732 378.8 220.532 383.067 216.132C387.467 211.332 388.133 209.866 387.733 205.066C387.467 200.399 386.533 198.932 382.8 196.399C377.6 192.932 374.8 192.666 367.333 195.332ZM375.467 206.266C370.8 210.266 367.333 210.532 369.333 206.532C370.933 203.599 375.867 201.199 377.867 202.399C378.533 202.799 377.467 204.532 375.467 206.266ZM381.333 209.332C381.333 211.732 376 215.999 373.067 215.999C370.267 215.866 370.4 215.599 374.667 211.999C379.6 207.866 381.333 207.199 381.333 209.332Z" fill="white"/>
<path d="M314.133 205.734C307.733 212.134 310 221.6 318.267 223.867C325.6 225.867 332.267 222.4 333.867 215.6C335.067 211.067 334.8 210.134 331.733 207.2C329.733 205.067 326.267 203.467 322.933 203.067C318.4 202.4 317.067 202.934 314.133 205.734ZM326.667 210C328.933 212.667 327.333 216 324 216C322.533 216 320.933 215.067 320.533 214C319.733 212 322 208 324 208C324.533 208 325.733 208.934 326.667 210Z" fill="white"/>
<path d="M279.067 206.666C273.867 208.799 271.6 216.932 274.667 222.666C276.667 226.399 284.533 228.532 289.6 226.799C296.267 224.532 298.667 221.466 298.667 215.866C298.667 211.999 297.867 210.266 295.2 208.132C291.467 205.199 284.267 204.532 279.067 206.666ZM293.467 211.466C295.733 214.266 293.467 217.999 289.2 217.999C286 217.999 284.4 214.932 285.867 211.199C286.8 208.666 291.2 208.799 293.467 211.466Z" fill="white"/>
<path d="M308.667 391.734C306.533 392.801 303.733 394.134 302.667 394.667C299.867 396.001 299.467 404.401 302 409.334C305.067 415.201 314 421.334 319.6 421.334C326.933 421.334 329.333 419.334 329.333 413.201C329.333 407.201 326.667 406.534 325.333 412.134C324.8 414.401 323.467 415.467 320.933 415.734C316.667 416.267 316.267 414.667 320.133 412.267C322.267 410.934 322.667 409.734 322 407.067C321.2 403.867 321.467 403.734 323.333 405.334C324.933 406.667 325.867 406.667 326.933 405.601C328.133 404.401 327.733 403.067 325.2 400.401C323.333 398.267 320.8 395.067 319.6 392.934C317.067 388.934 314.533 388.534 308.667 391.734ZM310.667 401.334C310.667 405.734 312.267 408.001 315.067 408.001C317.733 408.001 317.733 408.134 315.6 410.267C313.467 412.401 313.2 412.267 310 409.334C306.667 406.267 306 403.467 307.467 399.467C308.533 396.801 310.667 398.001 310.667 401.334ZM317.333 399.334C317.333 400.401 316.8 401.334 316 401.334C315.333 401.334 314.667 400.401 314.667 399.334C314.667 398.267 315.333 397.334 316 397.334C316.8 397.334 317.333 398.267 317.333 399.334Z" fill="white"/>
<path d="M478.667 542.001C478.667 552.801 479.2 561.334 479.867 561.334C484.933 561.334 485.333 560.001 485.333 543.334C485.333 530.134 484.933 526.401 483.2 524.801C482.133 523.601 480.533 522.667 479.867 522.667C479.2 522.667 478.667 530.934 478.667 542.001Z" fill="white"/>
<path d="M534.8 425.467C532.267 427.867 531.867 429.334 532.4 433.867C533.333 440.934 538.267 445.334 545.2 445.334C556.667 445.334 561.467 434.534 553.467 426.534C548.4 421.601 539.6 421.067 534.8 425.467ZM547.333 431.867C548.267 433.467 545.733 435.067 544 434.001C542.533 433.067 543.467 430.667 545.333 430.667C546 430.667 546.8 431.201 547.333 431.867ZM546.667 438.401C546.667 440.267 545.2 441.201 543.2 440.401C540.4 439.334 540.933 437.334 544 437.334C545.467 437.334 546.667 437.867 546.667 438.401Z" fill="white"/>
<path d="M596.533 440.667C593.6 445.201 595.067 450.134 600.4 453.334C606.4 457.067 612.667 456.801 616.667 452.667C620.933 448.534 620.8 446.534 616.533 441.467C613.467 437.734 612.267 437.334 605.867 437.334C599.733 437.334 598.4 437.734 596.533 440.667ZM610.667 442.667C610.667 443.334 609.733 444.001 608.533 444.001C607.467 444.001 606.933 443.334 607.333 442.667C607.733 441.867 608.667 441.334 609.467 441.334C610.133 441.334 610.667 441.867 610.667 442.667ZM610.933 449.601C609.867 450.667 608.667 450.667 606.4 449.601C603.467 448.267 603.6 448.134 608 448.134C611.467 448.001 612.133 448.401 610.933 449.601Z" fill="white"/>
<path d="M563.467 461.467C559.067 464.933 559.067 469.333 563.333 474.4C569.6 481.867 581.067 481.2 583.867 473.067C585.333 468.933 584.4 465.733 580.267 460.933C577.333 457.6 568 457.867 563.467 461.467ZM574.8 467.067C574.667 468.667 572.8 468.267 572.267 466.533C571.867 465.733 572.4 465.2 573.333 465.467C574.133 465.867 574.8 466.533 574.8 467.067ZM575.867 472.8C576.133 473.067 575.333 473.733 574.133 474.133C572.667 474.667 570.933 474.133 569.6 472.8C567.467 470.667 567.6 470.533 571.333 471.467C573.6 472 575.6 472.533 575.867 472.8Z" fill="white"/>
<path d="M546 540.001C543.867 542.401 543.867 542.667 546.667 546.534C549.733 551.067 554.533 552.001 557.333 548.667C559.2 546.401 558 544.267 552 540.001C548.4 537.467 548.267 537.467 546 540.001Z" fill="white"/>
<path d="M172 348.133C172 359.467 172.533 369.333 173.067 370C174.533 372.267 221.333 400 223.467 400C225.733 400 225.867 398.533 223.867 394.267C222.667 391.733 223.067 387.733 225.333 376.533C229.467 356.267 229.467 357.2 223.333 355.467C220.4 354.533 208.667 348.267 197.2 341.6C185.6 334.8 175.333 328.933 174.133 328.533C172.267 327.867 172 330 172 348.133ZM182.667 339.333C182.667 342 178.4 350.667 177.067 350.667C175.6 350.667 175.733 346.533 177.467 341.467C178.933 337.333 182.667 335.733 182.667 339.333ZM212.4 353.867C214.133 358.267 203.467 381.733 200 380.933C197.2 380.4 197.733 376.8 202.533 365.467C208.133 352.267 210.667 349.333 212.4 353.867Z" fill="white"/>
<path d="M173.067 395.733C173.333 406.533 174.267 416.133 175.067 417.066C175.733 417.999 187.6 426.266 201.2 435.599C227.867 453.599 232.267 457.066 231.2 458.799C229.733 461.333 224.667 459.733 218.133 454.799C202.8 443.333 174.533 422.666 174 422.666C173.6 422.666 173.333 434.399 173.333 448.666V474.666H176.533C178.4 474.666 186.533 473.199 194.933 471.466C203.2 469.599 222.267 465.733 237.333 462.666C252.4 459.599 265.2 456.666 265.733 456.133C266.267 455.599 265.6 453.599 264.133 451.866C261.733 448.799 261.467 448.799 259.067 451.066C255.6 454.133 251.333 454.133 252.667 450.933C255.2 444.799 254.8 443.866 244.8 431.333C239.2 424.399 233.333 416.666 232 414.133C230.133 411.199 227.733 409.199 224.267 408.266C221.6 407.466 209.467 400.266 197.333 392.266C185.2 384.399 174.667 377.466 173.867 377.066C172.933 376.399 172.667 382.133 173.067 395.733ZM195.467 394.799C196.667 396.799 186.8 415.999 184.533 415.999C181.867 415.999 182.133 414.266 186.8 403.199C190.667 393.999 193.333 391.333 195.467 394.799ZM226.667 416.266C226.667 420.666 222.133 431.733 218.267 436.666C216.8 438.533 215.733 438.933 214.667 437.866C213.6 436.799 214.4 433.599 217.467 425.866C219.733 420.133 222.267 414.533 222.933 413.599C225.333 410.799 226.667 411.866 226.667 416.266ZM211.067 457.066C210 459.999 206.533 463.999 205.067 463.999C203.2 463.999 203.867 456.933 206.267 454.399C208.8 451.599 212.267 453.466 211.067 457.066Z" fill="white"/>
<path d="M228 474.667C203.467 479.734 178.4 484.934 172.267 486.267C161.6 488.667 157.867 490.934 163.333 491.734C164.8 491.867 190.133 487.2 219.467 481.334C248.933 475.467 275.2 470.667 277.867 470.667C281.867 470.667 282.8 470.267 282.4 468.267C281.6 464.267 274.4 465.067 228 474.667Z" fill="white"/>
</svg>
