<svg width="7028" height="3826" viewBox="0 0 7028 3826" fill="none" xmlns="http://www.w3.org/2000/svg">
<path d="M2500.07 17.8329C2428.54 33.9741 2336.86 117.423 2262.14 234.518C2192.11 344.437 2138.61 461.284 2071.89 650.828C2051.38 709.405 1988.22 905.922 1955.24 1014.49C1865.98 1307.85 1809.82 1482.51 1753.6 1641.28C1730.25 1707.21 1715.38 1742.88 1698.64 1771.93C1685.24 1795.38 1684.74 1795.73 1671.27 1797.87C1624.47 1804.85 1583.65 1839.74 1562.77 1890.46C1555.93 1907.43 1548.29 1938.71 1547.17 1955.14C1546.69 1963 1545.7 1969.98 1545.03 1970.34C1544.36 1970.69 1531.73 1972.3 1517.08 1973.93C1486.43 1977.18 1448.88 1981.67 1441.48 1983.1C1426.66 1985.59 1355.43 1992.83 1344.65 1992.86C1337.75 1992.89 1329.33 1993.79 1326.13 1994.67C1320.58 1996.27 1319.23 1995.75 1301.67 1984.8C1249.85 1952.5 1155.29 1888.56 1109.87 1855.19C1083.01 1835.37 1077.78 1830.85 1057.99 1808.39C1018.25 1763.3 932.549 1678.54 877.297 1629.66C843.335 1599.74 822.05 1582.35 795.199 1562.71C683.91 1481.71 573.706 1421.67 477.243 1389.87C424.121 1372.42 381.147 1366.63 314.279 1368.26C276.045 1369.09 267.288 1369.82 247.257 1373.91C151.646 1393.27 89.1624 1444.66 38.1382 1545.96C16.0564 1590.04 5.63564 1645.09 5.88341 1716.34C6.01093 1753.02 8.26874 1772.57 15.9447 1800.14C29.7601 1849.34 63.363 1921.35 96.386 1971.88C155.828 2063.01 229.208 2141.87 320.247 2212.63C376.83 2256.62 471.204 2317.59 556.774 2365.5C640.655 2412.36 876.74 2535.18 955.873 2572.98C1037.71 2612.16 1229.36 2698.99 1319.96 2737.97C1448.51 2793.41 1657.66 2873.54 1699.47 2883.35L1710.76 2886.11L1780.07 2956.77C1884.88 3063.99 1948.6 3123.67 2052.67 3212.55C2096.09 3249.6 2149.81 3292.9 2174.63 3311.15C2186.28 3319.49 2203.34 3332.7 2212.63 3340.35C2221.92 3348.01 2238.98 3360.87 2250.63 3369.04C2262.28 3377.21 2274.27 3386.07 2277.15 3388.68C2284.92 3395.46 2387.58 3465.66 2422.53 3488.07C2544.25 3566.06 2666.76 3629.9 2781.3 3675.26C2819.42 3690.5 2910.83 3721.79 2954.33 3734.56C3050.11 3762.87 3124.28 3779.2 3222.37 3793.71C3320.79 3808.21 3344.04 3810.22 3444.28 3812.67C3522.11 3814.5 3643.72 3812.15 3693.23 3807.96C3764.8 3801.78 3889.21 3781.43 3962.59 3764.24C4051.12 3743.5 4175.3 3703.95 4258.9 3670.12C4373.11 3623.97 4495.18 3559.28 4616.36 3480.44C4651.15 3457.79 4753.32 3386.88 4761.04 3380.04C4763.9 3377.41 4775.83 3368.47 4787.42 3360.22C4799.01 3351.97 4815.98 3338.99 4825.22 3331.27C4834.46 3323.55 4851.42 3310.22 4863.02 3301.8C4887.72 3283.37 4941.13 3239.7 4984.29 3202.35C5087.74 3112.75 5151.04 3052.63 5255.1 2944.69L5323.92 2873.54L5335.19 2870.71C5376.93 2860.61 5585.52 2779.03 5713.69 2722.7C5804 2683.09 5995.05 2594.93 6076.61 2555.17C6155.48 2516.83 6390.71 2392.36 6474.26 2344.92C6559.49 2296.42 6653.44 2234.8 6709.72 2190.41C6800.26 2119.02 6873.09 2039.65 6931.9 1948.11C6964.57 1897.35 6997.67 1825.11 7011.14 1775.81C7018.63 1748.19 7020.75 1728.63 7020.62 1691.95C7020.37 1620.7 7009.57 1565.72 6987.18 1521.79C6953.94 1456.94 6917.58 1414.63 6870.14 1385.98C6841.28 1368.44 6814.63 1358.58 6776.87 1351.2C6756.81 1347.25 6748.05 1346.58 6709.81 1346.02C6642.93 1344.85 6600 1350.94 6547 1368.76C6450.76 1401.23 6340.98 1462.04 6230.26 1543.81C6203.54 1563.64 6182.38 1581.18 6148.63 1611.33C6093.71 1660.6 6008.61 1745.94 5969.18 1791.31C5949.55 1813.91 5944.35 1818.47 5917.63 1838.47C5872.44 1872.16 5778.33 1936.75 5726.73 1969.42C5709.25 1980.48 5707.91 1981.01 5702.34 1979.46C5699.14 1978.6 5690.71 1977.75 5683.81 1977.78C5673.03 1977.81 5601.75 1971.07 5586.92 1968.68C5579.5 1967.31 5541.92 1963.07 5511.25 1960.04C5496.59 1958.52 5483.96 1956.99 5483.28 1956.64C5482.61 1956.3 5481.57 1949.31 5481.04 1941.46C5479.8 1925.04 5471.94 1893.81 5464.98 1876.89C5443.75 1826.32 5402.69 1791.71 5355.84 1785.06C5342.36 1783.01 5341.85 1782.67 5328.3 1759.31C5311.35 1730.38 5296.24 1694.81 5272.42 1629.05C5215.11 1470.67 5157.73 1296.4 5066.43 1003.67C5012.6 830.788 4951.32 648.675 4916.81 557.981C4836.58 347.99 4749.47 196.18 4655.48 102.2C4590.4 37.1099 4531 4.65834 4485.7 9.18191C4464.32 11.352 4448.18 20.4895 4423.83 44.1509C4406.54 60.9766 4386.38 76.4153 4351.76 98.8899C4288.73 139.626 4220.29 171.998 4154.5 191.962C4091.73 211.041 3988.71 230.261 3914.95 236.455C3896.43 238.091 3871.84 240.273 3860.22 241.186C3816.61 245.005 3753.96 250.462 3727.36 253C3712.2 254.45 3667.74 256.525 3628.83 257.709C3589.75 258.718 3546.81 260.613 3533.17 261.709C3514.64 263.17 3501.84 263.215 3483.48 261.881C3469.66 260.882 3426.7 259.285 3387.62 258.547C3348.7 257.635 3304.23 255.868 3289.06 254.524C3262.44 252.172 3199.76 247.15 3156.12 243.635C3144.49 242.802 3119.89 240.792 3101.36 239.284C3027.56 233.603 2924.4 215.1 2861.51 196.458C2795.58 176.952 2726.91 145.057 2663.6 104.76C2628.82 82.5268 2608.56 67.2288 2591.15 50.5236C2574.92 34.8622 2561.08 24.9558 2549.1 20.2821C2536.96 15.7836 2514.89 14.6379 2500.07 17.8329ZM2561.17 100.052C2569.6 102.642 2609.26 124.684 2662.26 156.284C2710.71 185.106 2788.83 223.605 2839.44 243.513C2870.14 255.457 2923.77 273.433 2956.48 282.575C3005.37 296.377 3094.54 314.229 3150.49 321.37C3155.21 322.052 3167.68 323.93 3178.3 325.639C3188.92 327.523 3207.12 329.73 3218.75 330.738C3230.37 331.92 3253.46 334.459 3270.14 336.672C3308.23 341.778 3329.46 344.324 3404.12 352.797C3436.98 356.525 3467.98 360.434 3473.04 361.289C3478.1 362.32 3494.1 362.962 3508.59 362.912C3523.07 362.862 3539.07 362.107 3544.12 361.042C3549.17 360.151 3580.15 356.027 3612.99 352.07C3692.13 342.539 3711.99 340.025 3740.11 335.911C3753.07 333.945 3775.8 331.246 3790.62 329.623C3840.46 324.385 3938.95 307.8 3992.81 295.563C4084.71 274.635 4158.4 249.405 4239.96 210.7C4282.51 190.469 4321.18 169.901 4353.46 150.403C4406.24 118.435 4445.74 96.1181 4454.16 93.4692C4466.27 89.7596 4494.4 89.6617 4506.71 93.2864C4542.8 103.989 4601.09 154.258 4649.14 215.914C4722.91 310.663 4790.76 444.552 4857.93 627.169C4917.96 790.95 4936.51 845.548 5015.86 1092.04C5049.41 1196.01 5079.02 1283.58 5142.15 1465.34C5211.06 1663.49 5231.45 1715.29 5264.17 1775.6C5270.45 1787.11 5275.03 1797.04 5274.36 1797.75C5273.52 1798.45 5267.13 1801.44 5259.9 1804.43C5240.89 1812.36 5222.73 1822.2 5197.69 1838.35C5176.85 1851.87 5120.19 1883.68 5117.33 1883.69C5115.31 1883.7 5116.47 1880.73 5128.51 1853.96C5142.05 1823.7 5147.52 1798.54 5148.57 1762.21C5148.86 1748.76 5148.48 1734.26 5147.79 1729.9L5146.41 1722.22L5142.73 1728.52C5136.87 1738.85 5126.95 1744.64 5113.65 1745.39C5100.68 1746.31 5091.23 1742.32 5082.44 1732.75L5077.37 1727L5043.68 1728.52C5013.2 1729.67 5008.15 1730.39 4991.32 1735.33C4980.88 1738.34 4968.27 1742.75 4963.22 1745.21C4947.25 1752.6 4908.6 1781.03 4883.41 1803.82C4876.7 1809.96 4870.65 1814.52 4869.97 1813.82C4868.79 1812.6 4890.27 1790.35 4929.89 1751.62C4943.32 1738.65 4959.27 1721.82 4965.47 1714.12C4978.22 1698.53 5013.82 1666.1 5028.27 1657.14C5040.71 1649.24 5051.81 1645.36 5068.99 1642.85C5092.73 1639.45 5113.8 1645.49 5129.18 1660.11C5133.41 1664.29 5136.95 1666.37 5136.95 1665.15C5136.94 1660.95 5123.78 1607.73 5116.44 1581.21C5093.93 1500.96 5061.4 1399.08 5045.6 1359.32C5042.37 1350.94 5041.51 1345.88 5041.46 1332.61C5041.32 1292.79 5025.67 1246.92 5000.62 1212.77C4991.82 1200.75 4989.95 1196.39 4980.24 1166.74C4974.29 1148.77 4963.05 1115.63 4955.23 1093.13C4947.4 1070.62 4940.25 1048.12 4939.22 1043.41C4938.36 1038.52 4935.13 1029.1 4931.9 1022.48C4928.85 1015.68 4924.43 1005.04 4922.22 998.759C4918.31 987.421 4918.3 986.897 4921.31 980.25C4926.66 967.657 4922.07 956.845 4906.71 946.246C4902.32 943.117 4892.64 921.321 4894.48 918.52C4894.99 917.645 4897.01 916.939 4898.86 916.933C4905.09 916.911 4910.29 910.257 4910.26 902.223C4910.22 889.824 4900.41 878.856 4880.5 868.446C4874.25 865.15 4873.07 863.408 4868.82 851.721L4864.22 838.814L4867.75 835.134C4876.48 826.022 4872.9 813.81 4858.88 804.602C4850.44 799.043 4849.26 797.301 4844.33 784.918C4838.21 769.397 4838.21 769.047 4841.39 762.574C4845.4 754.527 4841.15 744.238 4829.83 734.672C4824.77 730.498 4821.21 725.446 4818.66 718.818C4815.09 710.099 4814.59 709.576 4812.58 712.552C4806.21 722.18 4785.83 724.521 4769.3 717.593C4764.07 715.341 4754.29 710.135 4747.7 706.141C4734.87 698.327 4718.51 692.097 4702.83 688.833C4697.44 687.804 4684.8 684.53 4674.51 681.597L4655.96 676.247L4640.98 679.268C4620.95 683.355 4600.59 690.062 4590 696.386C4585.13 699.197 4581.09 700.783 4581.09 699.91C4581.08 696.941 4594.68 685.716 4619.21 668.516C4635.68 656.933 4646.77 647.813 4651.97 641.333C4656.33 636.078 4664.56 628.54 4670.27 624.503C4676.32 620.291 4679.68 616.961 4678.33 616.442C4669.05 613.331 4645.28 608.174 4635.51 607.509C4625.23 606.672 4592.4 610.803 4572.37 615.239C4564.8 617.011 4529.65 634.598 4513.68 644.608C4504.94 650.052 4497.04 654.62 4496.03 654.624C4493.84 654.457 4494.51 653.756 4532.13 621.84C4548.26 608.162 4565.38 592.21 4570.25 586.43C4581.65 572.768 4596.1 562.065 4617.96 551.161C4641.84 539.202 4658 534.955 4679.05 534.707C4711.06 534.246 4739.57 547.071 4749.74 566.595C4753.98 574.265 4754.5 576.883 4753.86 587.189C4753.39 596.621 4752.39 600.641 4748.7 606.417C4744.51 613.068 4744.35 613.767 4747.05 614.806C4757.17 618.438 4767.12 622.77 4773.03 625.893C4776.91 627.8 4780.28 629.186 4780.62 628.66C4781.79 627.434 4736.45 522.981 4720 489.332L4711.68 472.421L4692.77 459.388C4647.52 428.459 4612.45 417.579 4558.21 417.942C4525.36 418.056 4504.32 421.797 4469.83 433.618C4412.46 453.552 4363.21 483.762 4290.81 543.566C4195.58 622.137 4085.2 705.826 4051.41 725.154C4045.02 728.843 4030.56 737.102 4019.47 743.602C3955.92 780.847 3912.36 799.162 3844.54 817.735C3806.67 827.996 3786.98 831.732 3772.15 831.609L3762.05 831.644L3786.78 823.874C3878.99 795.436 3948.95 762.01 4040.38 702.838C4061.39 689.143 4123.05 643.521 4146.9 623.878C4162.19 611.426 4292.17 498.329 4320.89 472.732C4398.8 402.953 4481.14 344.162 4528.07 324.439C4567.26 308.061 4600.61 307.945 4627.62 324.092L4638.93 330.864L4640.43 326.493C4642.6 320.547 4638.86 311.654 4632.11 306.787C4629.24 304.701 4620.63 299.841 4612.87 296.201C4600.04 290.133 4597.51 288.046 4585.5 273.767C4574.17 260.185 4570.96 257.576 4562.02 253.765C4556.28 251.515 4542.95 244.925 4531.98 239.374C4521.18 233.649 4505.16 226.719 4496.39 224.129L4480.37 219.12L4486.08 213.687C4490.78 209.13 4491.78 206.681 4491.76 201.093C4491.71 187.471 4481.92 180.519 4464.23 181.803C4450.43 182.724 4437.31 189.406 4423.88 202.377C4418.17 207.81 4411.96 213.595 4409.94 215.174C4408.1 216.927 4396.66 221.158 4384.71 224.518C4341.12 237.069 4266.09 264.923 4271.32 266.477C4272.67 266.996 4280.76 268.714 4289.02 270.257C4297.45 271.8 4307.23 274.735 4310.77 276.469C4314.48 278.202 4318.53 279.76 4319.71 279.756C4320.89 279.752 4321.9 280.971 4321.91 282.368C4321.91 283.765 4321.08 284.991 4320.07 284.994C4317.88 285.002 4306.95 292.025 4269.31 318.178C4253.35 329.061 4237.38 339.595 4233.68 341.355C4227.96 343.994 4159.81 363.442 4144.15 366.814C4141.29 367.348 4128.49 368.266 4115.52 368.486C4087.73 369.281 4059.79 374.443 4014.02 387.351C3976.83 397.959 3931.21 406.326 3898.7 408.884C3885.74 409.802 3859.97 411.813 3841.45 413.274C3822.92 414.736 3792.95 416.412 3774.92 417.173C3738.04 418.349 3716.32 420.87 3663.79 429.784C3643.93 433.172 3624.57 436.382 3620.86 436.919C3616.32 437.808 3614.63 437.465 3615.81 436.238C3616.82 435.362 3634.82 430.409 3656.03 425.271C3705.51 413.572 3732.94 405.618 3752.96 397.515C3761.7 393.991 3782.23 386.41 3798.38 380.94C3814.53 375.296 3826.81 370.712 3825.63 370.542C3821.93 370.555 3764.51 377.74 3724.27 383.294C3702.55 386.338 3666.86 391.178 3645.14 393.873C3611.63 398.006 3603.89 399.605 3594.64 403.828L3583.71 408.931L3508.75 409.192L3433.79 409.452L3422.82 404.426C3413.55 400.267 3405.79 398.722 3372.26 394.822C3350.52 392.278 3314.79 387.687 3293.05 384.793C3252.77 379.519 3195.31 372.734 3191.6 372.746C3190.43 372.925 3202.74 377.423 3218.93 382.955C3235.12 388.313 3255.69 395.751 3264.47 399.213C3284.54 407.177 3312.02 414.94 3361.59 426.294C3382.83 431.285 3401.04 436.112 3401.88 436.982C3403.07 438.201 3401.38 438.556 3396.83 437.698C3393.12 437.187 3373.74 434.111 3353.85 430.862C3301.27 422.313 3279.53 419.943 3242.64 419.024C3224.61 418.388 3194.62 416.92 3176.09 415.588C3157.55 414.255 3131.78 412.424 3118.8 411.596C3086.28 409.264 3040.61 401.214 3003.34 390.865C2957.48 378.276 2929.5 373.309 2901.71 372.707C2888.74 372.577 2875.93 371.748 2873.07 371.234C2857.39 367.971 2789.1 348.998 2783.37 346.398C2779.65 344.664 2763.61 334.242 2747.57 323.47C2709.75 297.579 2698.78 290.632 2696.59 290.639C2695.58 290.643 2694.73 289.423 2694.73 288.026C2694.72 286.629 2695.73 285.403 2696.91 285.399C2698.09 285.395 2702.12 283.809 2705.82 282.05C2709.36 280.291 2719.28 277.288 2727.53 275.687C2735.95 274.086 2743.86 272.312 2745.21 271.784C2750.42 270.194 2675.2 242.862 2631.53 230.614C2619.56 227.337 2608.09 223.186 2606.23 221.446C2604.2 219.881 2597.95 214.14 2592.2 208.746C2578.68 195.869 2565.52 189.279 2551.71 188.454C2534.02 187.293 2524.27 194.312 2524.32 207.934C2524.34 213.523 2525.36 215.964 2530.09 220.488L2535.83 225.882L2519.85 231.002C2511.1 233.652 2495.12 240.694 2484.36 246.494C2473.43 252.121 2460.15 258.803 2454.43 261.094C2445.51 264.967 2442.32 267.598 2431.08 281.259C2419.17 295.621 2416.65 297.725 2403.87 303.882C2396.14 307.577 2387.56 312.496 2384.71 314.602C2377.99 319.515 2374.31 328.435 2376.52 334.365L2378.05 338.726L2389.32 331.876C2416.21 315.54 2449.56 315.424 2488.87 331.529C2535.93 350.926 2618.67 409.143 2697.07 478.378C2725.97 503.776 2856.73 615.965 2872.11 628.311C2896.09 647.788 2958.07 692.979 2979.17 706.528C3071.01 765.063 3141.2 798.001 3233.61 825.797L3258.4 833.395L3248.29 833.43C3233.47 833.657 3213.75 830.058 3175.81 820.06C3098.76 799.72 3050 777.885 2959.02 723.364C2926.27 703.743 2810.58 616.475 2727.64 549.002C2655 489.702 2605.37 459.836 2547.87 440.301C2513.29 428.72 2492.22 425.126 2459.38 425.24C2405.14 425.254 2370.14 436.378 2325.1 467.621L2306.28 480.785L2298.09 497.754C2281.87 531.516 2237.26 636.282 2238.44 637.5C2238.78 638.023 2242.14 636.614 2246.01 634.68C2251.89 631.516 2261.82 627.115 2271.91 623.413C2274.6 622.355 2274.43 621.657 2270.2 615.036C2266.47 609.285 2265.45 605.272 2264.91 595.843C2264.2 585.542 2264.7 582.921 2268.88 575.222C2278.92 555.627 2307.34 542.605 2339.35 542.843C2360.4 542.944 2376.59 547.079 2400.55 558.872C2422.48 569.623 2437.01 580.226 2448.51 593.808C2453.41 599.554 2470.65 615.387 2486.87 628.952C2503.09 642.518 2518.29 655.389 2520.66 657.476C2527.75 663.739 2521.35 662.189 2510.88 655.065C2498.55 646.55 2470.37 631.979 2455.7 626.266C2440.18 620.382 2397.88 613.893 2382.89 615.342C2373.46 616.248 2349.56 621.396 2340.64 624.571C2339.3 625.099 2342.68 628.406 2348.76 632.576C2354.5 636.573 2362.78 644.054 2367.17 649.278C2372.42 655.721 2383.57 664.764 2400.12 676.233C2424.77 693.262 2438.45 704.391 2438.46 707.36C2438.46 708.234 2434.42 706.676 2429.69 703.898C2419.06 697.822 2398.31 691.084 2378.42 686.961L2364.1 684.217L2345.25 689.696C2334.81 692.701 2322.02 696.064 2316.64 697.131C2300.82 700.504 2284.67 706.847 2271.89 714.751C2265.34 718.79 2255.59 724.063 2250.37 726.352C2233.89 733.395 2213.5 731.195 2207.06 721.612C2205.03 718.651 2204.53 719.176 2201.02 727.921C2198.52 734.566 2195 739.643 2189.96 743.851C2178.71 753.496 2174.53 763.814 2178.6 771.834C2181.83 778.284 2181.83 778.634 2175.82 794.198C2170.97 806.614 2169.8 808.365 2161.4 813.982C2147.45 823.287 2143.96 835.524 2152.75 844.575L2156.3 848.23L2151.79 861.169C2147.62 872.885 2146.45 874.635 2140.23 877.975C2120.56 888.347 2110.66 899.734 2110.7 911.609C2110.73 919.642 2115.97 926.61 2121.87 926.589C2124.06 926.582 2126.08 927.273 2126.59 928.145C2128.45 930.933 2118.93 952.796 2114.56 955.955C2099.27 966.661 2094.76 977.505 2100.19 990.06C2103.25 996.686 2103.25 997.21 2099.41 1008.57C2097.25 1014.87 2092.9 1025.54 2089.89 1032.36C2086.72 1039.01 2083.55 1048.45 2082.72 1053.34C2081.73 1058.06 2074.73 1080.61 2067.06 1103.17C2059.39 1125.72 2048.39 1158.94 2042.56 1176.95C2033.06 1206.68 2031.22 1211.05 2022.5 1223.13C1997.69 1257.44 1982.36 1303.43 1982.5 1343.25C1982.54 1356.52 1981.72 1361.59 1978.55 1369.98C1963.02 1409.85 1931.2 1511.95 1909.24 1592.37C1902.09 1618.94 1889.31 1672.25 1889.32 1676.44C1889.33 1677.66 1892.86 1675.55 1897.05 1671.35C1912.33 1656.62 1933.37 1650.44 1957.13 1653.67C1974.32 1656.06 1985.45 1659.86 1997.94 1667.68C2012.12 1676.36 2048.62 1709.07 2061.48 1724.57C2067.56 1731.88 2083.46 1748.59 2096.98 1761.47C2136.87 1799.92 2158.5 1822.03 2157.33 1823.25C2156.66 1823.96 2150.58 1819.44 2143.82 1813.35C2118.47 1790.73 2079.63 1762.57 2063.6 1755.3C2058.54 1752.87 2045.89 1748.55 2035.44 1745.61C2018.58 1740.78 2013.52 1740.1 1983.03 1739.16L1949.34 1737.88L1944.3 1743.66C1935.58 1753.3 1926.16 1757.34 1913.18 1756.52C1899.87 1755.86 1889.92 1750.14 1883.99 1739.85L1880.26 1733.58L1878.94 1741.27C1878.28 1745.64 1877.99 1760.13 1878.38 1773.58C1879.68 1809.9 1885.33 1835.03 1899.08 1865.19C1911.3 1891.87 1912.49 1894.84 1910.46 1894.84C1907.6 1894.85 1850.73 1863.44 1829.79 1850.07C1804.64 1834.09 1786.41 1824.37 1767.35 1816.58C1760.1 1813.63 1753.68 1810.69 1752.84 1809.99C1752.16 1809.29 1756.68 1799.32 1762.87 1787.78C1795.17 1727.24 1815.2 1675.3 1882.73 1476.67C1944.59 1294.48 1973.6 1206.71 2006.42 1102.51C2084.06 855.467 2102.23 800.741 2161.12 636.547C2218.18 478.122 2273.69 360.919 2337.37 265.168C2390.66 184.997 2461.84 115.94 2506.76 100.765C2519.38 96.5295 2548.35 96.2541 2561.17 100.052ZM3166 421.735C3192.97 424.96 3223.15 434.809 3252.51 450.076C3263.99 455.974 3322.33 473.934 3348.63 479.605C3364.14 483.044 3367.69 486.874 3353.7 485.002C3332.13 482.282 3258.69 482.014 3239.33 484.526C3228.72 485.786 3205.82 487.088 3188.13 487.149C3155.11 487.089 3136.74 484.883 3099.99 476.104C3060.04 466.463 3031.84 447.001 3039.21 434.401C3042.22 429.326 3053.82 423.872 3067.96 421.028C3081.77 418.186 3140.05 418.682 3166 421.735ZM3948.93 418.14C3963.6 420.708 3975.24 425.907 3978.46 431.135C3985.91 443.683 3957.85 463.341 3917.96 473.26C3881.27 482.294 3862.92 484.628 3829.91 484.918C3812.39 484.978 3789.31 483.836 3778.69 482.651C3759.31 480.273 3685.87 481.052 3664.49 483.921C3650.34 485.891 3653.87 482.037 3669.52 478.49C3695.61 472.636 3753.83 454.27 3765.26 448.293C3782.08 439.502 3808.32 428.932 3823.46 424.863C3853.08 416.901 3921.8 413.169 3948.93 418.14ZM2473.96 500.984C2491 507.561 2509.91 520.07 2519.71 531.388C2549.48 565.514 2592.8 621.773 2599.92 635.37C2605.86 646.701 2604.18 650.549 2597.75 640.442C2586.91 623.714 2527.48 585.325 2501.85 578.603C2488.53 574.982 2440.29 555.59 2424.6 547.611C2410.42 540.15 2404.17 533.012 2404.13 524.28C2404.09 512.23 2414 501.891 2430.15 497.469C2439.24 494.818 2463 496.831 2473.96 500.984ZM4598.56 494.295C4608.86 499.673 4614.11 507.165 4614.14 516.595C4614.17 525.327 4607.96 532.509 4593.84 540.068C4578.2 548.156 4530.09 567.883 4516.8 571.597C4491.22 578.497 4432.06 617.298 4421.34 634.101C4414.97 644.253 4413.27 640.416 4419.13 629.044C4425.82 615.748 4462.21 567.77 4497.6 525.558C4509.51 511.196 4531.87 497.147 4552.06 491.139C4566.03 487.073 4587.43 488.396 4598.56 494.295ZM2102.93 1196.3C2119.47 1205.15 2130.2 1238.3 2120.98 1252.13C2118.3 1256.15 2118.13 1255.63 2115.55 1239.57C2113.31 1226.65 2106.53 1213.75 2100.62 1210.98C2091.68 1206.82 2074.69 1214.56 2055.21 1231.92C2042.28 1243.32 2034.74 1255.05 2027.73 1273.93C2019.72 1295.61 2018.74 1303.65 2020.69 1330.71C2022.81 1358.48 2026.04 1367.72 2037.02 1375.89C2044.62 1381.63 2051.02 1382.3 2059.43 1378.08C2062.62 1376.5 2065.65 1375.62 2066.16 1375.96C2067.34 1377.36 2043.83 1396.47 2039.28 1397.71C2032.72 1399.48 2022.6 1395.5 2016.01 1388.54C2006.71 1378.61 2004.15 1369.89 2003.22 1343.52C2002.47 1323.27 2002.79 1318.9 2006.61 1303.34C2014.92 1269.43 2040.2 1224.29 2059.01 1209.38C2076.14 1195.87 2092.8 1190.92 2102.93 1196.3ZM4945.96 1188.34C4951.36 1190.76 4959.29 1195.63 4964.02 1199.28C4982.94 1214.06 5008.53 1259.03 5017.07 1292.88C5021 1308.41 5021.35 1312.77 5020.75 1333.03C5019.99 1359.4 5017.5 1368.15 5008.27 1378.13C5001.72 1385.14 4991.63 1389.19 4985.06 1387.47C4980.5 1386.26 4956.85 1367.31 4958.03 1365.91C4958.53 1365.56 4961.57 1366.42 4964.77 1367.98C4973.21 1372.14 4979.61 1371.42 4987.17 1365.63C4998.09 1357.39 5001.26 1348.12 5003.18 1320.34C5004.94 1293.27 5003.9 1285.24 4995.74 1263.61C4988.6 1244.77 4980.98 1233.1 4967.97 1221.79C4948.37 1204.57 4931.33 1196.95 4922.42 1201.17C4916.53 1203.98 4909.84 1216.93 4907.7 1229.86C4905.22 1245.94 4905.06 1246.46 4902.35 1242.45C4896.59 1233.92 4897.72 1219.42 4905.41 1203.32C4914.44 1184.61 4927.23 1179.85 4945.96 1188.34ZM2106.15 1298.63C2107.67 1301.25 2103.48 1306.15 2101.62 1304.24C2099.93 1302.5 2101.59 1296.9 2103.62 1296.89C2104.46 1296.89 2105.64 1297.76 2106.15 1298.63ZM4922.39 1290.06C4923.07 1291.63 4922.91 1293.55 4922.07 1294.43C4920.22 1296.36 4915.99 1291.48 4917.5 1288.86C4919.01 1286.23 4921.2 1286.75 4922.39 1290.06ZM2098.99 1322.58C2102.88 1326.24 2102.89 1328.86 2098.69 1332.71C2095.66 1335.52 2095.16 1335.52 2091.45 1333.09C2087.56 1330.48 2084.5 1322.63 2086.52 1320.53C2088.36 1318.6 2095.95 1319.8 2098.99 1322.58ZM4937.29 1310.62C4939.31 1312.71 4936.31 1320.58 4932.44 1323.21C4928.75 1325.67 4928.24 1325.67 4925.2 1322.88C4921.14 1319.06 4920.97 1317.14 4924.66 1312.93C4927.18 1309.95 4935.26 1308.53 4937.29 1310.62ZM2090.64 1344.27C2093.35 1347.93 2093.52 1349.32 2091.85 1353.17C2089.68 1358.24 2084.47 1360.53 2080.25 1358.1C2076.2 1355.84 2071.6 1343.29 2074.12 1340.66C2077.31 1337.33 2087.09 1339.39 2090.64 1344.27ZM4949.99 1330.83C4952.36 1333.27 4947.85 1345.86 4943.82 1348.14C4939.61 1350.43 4934.38 1348.35 4932.18 1343.47C4930.14 1339.11 4930.64 1337.36 4935 1331.93C4937.85 1328.6 4947.12 1327.87 4949.99 1330.83ZM369.109 1440.89C442.916 1448.67 547.644 1483.93 622.077 1526.29C667.142 1551.98 701.421 1576.31 757.845 1622.92C828.796 1681.35 876.952 1724.14 936.616 1782.27C968.729 1813.24 1093.84 1944.66 1140 1995.32C1183.63 2043.37 1246.18 2110.57 1294.71 2161.57C1343.23 2212.39 1393.45 2266.71 1432.51 2310.41C1450.1 2330.08 1478.67 2361.42 1496.09 2380.04C1513.33 2398.67 1537.01 2424.61 1548.51 2437.67C1622.92 2522.11 1706.09 2606.52 1814.24 2707.79C1847.88 2739.28 1860.55 2751.99 1885.58 2780.02C1909.42 2806.65 1914.51 2815.02 1916.93 2832.47C1917.79 2839.28 1920.19 2849.75 1922.06 2855.34C1925.97 2867.2 1930.59 2886.04 1930.6 2890.58C1930.62 2894.77 1927.75 2894.61 1926.39 2890.42C1925.88 2888.5 1919.28 2880.67 1911.68 2873.01C1901.36 2862.39 1894.78 2857.35 1885.67 2853.02C1875.54 2847.99 1869.8 2843.29 1850.86 2823.8C1838.52 2811.09 1813.17 2786.56 1794.58 2769.33C1775.99 2752.11 1748.61 2725.83 1733.57 2711.04C1702.81 2680.41 1652.44 2631.16 1632.32 2611.67C1613.73 2593.92 1623.54 2605.06 1676.3 2662.34C1726.51 2716.48 1738.52 2730.23 1781.15 2781.6C1840.35 2852.83 1870.12 2886.43 1995.24 3023.09C2024.66 3055.29 2061.19 3095.51 2076.24 3112.57C2102.45 3142.17 2160.13 3210.6 2163.35 3215.83C2165.55 3219.67 2156.26 3212.54 2121.12 3183.15C1988.84 3072.36 1899.78 2987.62 1717.2 2798.24C1605.79 2682.67 1539.17 2610.77 1453.43 2512.92C1440.4 2498.12 1411.82 2465.56 1390.01 2440.66C1339.61 2383.56 1279.06 2312.16 1176.04 2188.18C1071.68 2062.8 1006.05 1985.83 968.682 1945.27C900.035 1871.11 853.213 1824.47 793.057 1770.37C781.398 1759.93 762.808 1742.35 751.652 1731.22C718.86 1698.67 697.577 1681.98 642.706 1645.67C586.314 1608.32 555.775 1593.93 473.98 1565.57C401.798 1540.68 362.192 1534.87 306.122 1541.36C252.409 1547.48 220.449 1560.52 189.385 1588.92C161.176 1614.86 145.924 1636.92 134.914 1667.87C131.41 1677.49 128.071 1686.06 127.232 1686.93C123.038 1691.84 106.147 1678.8 99.5314 1665.37C95.6292 1657.35 95.6274 1656.83 97.951 1646.87C99.4476 1641.27 100.778 1636.38 101.114 1636.03C101.449 1635.68 105.669 1638.11 110.735 1641.58C119.516 1647.84 129.293 1649.9 131.469 1646.05C131.971 1645.18 129.427 1639.95 125.702 1634.54C121.977 1629.14 117.397 1619.9 115.355 1613.8L111.779 1602.81L117.63 1589.86C120.974 1582.87 125.824 1572.9 128.67 1567.82L133.859 1558.37L140.454 1565.68C145.866 1571.78 147.722 1572.82 152.605 1572.28C158.836 1571.73 158.675 1573.83 156.21 1543.1L155.148 1528.43L171.598 1511.61C180.83 1502.32 193.929 1490.93 200.818 1486.01C216.278 1475.31 246.878 1458.61 261.681 1452.79C288.427 1442.22 333.722 1437.17 369.109 1440.89ZM6729.11 1421.57C6749.67 1424.64 6766.37 1430.52 6790.16 1443.02C6818.34 1457.76 6834.56 1469.41 6853.49 1488.38L6870.05 1505.08L6869.09 1519.76C6866.84 1550.5 6866.67 1548.41 6872.9 1548.91C6877.79 1549.42 6879.64 1548.36 6885.01 1542.23L6891.55 1534.87L6896.8 1544.29C6899.69 1549.34 6904.61 1559.28 6908 1566.25L6913.94 1579.16L6910.44 1590.17C6908.44 1596.29 6903.92 1605.56 6900.24 1610.99C6896.55 1616.41 6894.04 1621.66 6894.55 1622.53C6896.75 1626.37 6906.52 1624.24 6915.25 1617.92C6920.29 1614.41 6924.5 1611.95 6924.83 1612.3C6925.17 1612.65 6926.54 1617.53 6928.07 1623.12C6930.47 1633.06 6930.47 1633.59 6926.62 1641.63C6920.1 1655.1 6903.3 1668.26 6899.07 1663.38C6898.23 1662.51 6894.83 1653.97 6891.26 1644.38C6880.03 1613.5 6864.63 1591.55 6836.24 1565.8C6804.98 1537.62 6772.93 1524.81 6719.17 1519.06C6663.06 1512.97 6623.5 1519.04 6551.49 1544.44C6469.89 1573.36 6439.45 1587.97 6383.32 1625.71C6328.71 1662.4 6307.54 1679.24 6274.97 1712.01C6263.9 1723.23 6245.43 1740.93 6233.84 1751.45C6174.06 1805.97 6127.57 1852.93 6059.44 1927.57C6022.35 1968.39 5957.26 2045.81 5853.77 2171.91C5751.62 2296.61 5691.57 2368.42 5641.57 2425.88C5619.93 2450.93 5591.57 2483.69 5578.65 2498.57C5493.42 2597.02 5427.64 2669.2 5317.71 2784.85C5135.45 2976.54 5047.47 3061.55 4915.63 3173.43C4880.7 3203.06 4871.46 3210.26 4873.64 3206.41C4876.82 3201.16 4934.02 3132.32 4960.02 3102.54C4974.96 3085.38 5011.2 3044.91 5040.4 3012.5C5164.57 2874.97 5194.1 2841.16 5252.81 2769.53C5295.08 2717.86 5306.99 2704.03 5356.83 2649.54C5409.18 2591.9 5418.91 2580.69 5400.45 2598.57C5380.47 2618.2 5330.44 2667.79 5299.89 2698.64C5284.95 2713.53 5257.76 2740 5239.29 2757.35C5220.82 2774.71 5195.64 2799.42 5183.39 2812.21C5164.59 2831.84 5158.88 2836.57 5148.79 2841.67C5139.71 2846.07 5133.16 2851.15 5122.92 2861.84C5115.37 2869.55 5108.82 2877.44 5108.32 2879.36C5106.99 2883.55 5104.13 2883.74 5104.11 2879.55C5104.1 2875.01 5108.58 2856.13 5112.41 2844.24C5114.25 2838.65 5116.57 2828.16 5117.39 2821.35C5118.37 2814.01 5120.87 2805.27 5123.55 2800.37C5131.75 2784.45 5170.18 2742.92 5228.77 2686.66C5350.82 2569.22 5408.39 2509.82 5483.05 2423.99C5494.46 2410.85 5517.95 2384.74 5535.07 2366C5552.35 2347.25 5580.71 2315.72 5598.16 2295.92C5636.92 2251.95 5686.76 2197.29 5734.93 2146.13C5783.09 2094.79 5845.18 2027.16 5888.47 1978.81C5934.28 1927.83 6058.47 1795.54 6090.37 1764.35C6149.63 1705.81 6197.49 1662.68 6268.03 1603.76C6352.85 1532.91 6408.31 1497.78 6486.03 1466.08C6543.05 1442.65 6607.16 1424.62 6653.13 1419.04C6669.63 1417.06 6708.21 1418.33 6729.11 1421.57ZM2072.65 1594.94C2089 1598.03 2112.95 1606.5 2121.39 1612.06C2128.65 1616.75 2133.89 1622.67 2142.69 1635.56C2146.25 1640.79 2151.83 1647.41 2155.21 1650.37C2158.59 1653.15 2166.36 1660.28 2172.45 1666.02C2178.53 1671.77 2190.02 1681.33 2197.96 1687.24C2205.89 1693.15 2223.81 1709.33 2237.67 1722.9C2267.08 1751.97 2297.83 1779.63 2310.49 1788.32C2315.22 1791.62 2319.28 1794.92 2319.28 1795.8C2319.29 1798.42 2305.12 1792.18 2275.41 1776.21C2259.21 1767.54 2232.55 1753.49 2216.35 1744.98C2200.15 1736.48 2179.05 1724.16 2169.59 1717.55C2159.97 1710.78 2144.61 1701.57 2135.33 1696.72C2120.31 1688.91 2117.27 1688.05 2107.67 1688.08C2100.6 1688.1 2091.83 1686.56 2083.06 1683.8C2075.64 1681.38 2062.66 1677.76 2054.23 1675.87C2035.35 1671.74 2027.76 1667.92 2020.14 1658.52C2005.43 1640.93 2008.88 1616.99 2028.2 1601.73C2034.25 1596.82 2046.19 1592.59 2054.28 1592.39C2056.8 1592.2 2065.06 1593.4 2072.65 1594.94ZM4991.31 1587.41C4995.19 1589.32 5001.44 1594.54 5005.16 1598.72C5017.85 1613.52 5018.25 1633.42 5006.01 1648.14C4998.46 1657.59 4990.89 1661.46 4972.04 1665.72C4963.63 1667.67 4950.67 1671.38 4943.27 1673.85C4934.52 1676.68 4925.76 1678.28 4918.69 1678.3C4909.09 1678.34 4906.06 1679.22 4891.09 1687.13C4881.85 1692.05 4866.55 1701.36 4856.97 1708.21C4847.56 1714.88 4826.55 1727.35 4810.41 1735.96C4794.27 1744.58 4767.7 1758.82 4751.56 1767.6C4721.97 1783.77 4707.84 1790.11 4707.83 1787.49C4707.83 1786.62 4711.86 1783.29 4716.74 1779.95C4729.17 1771.17 4759.73 1743.3 4788.94 1714.03C4802.7 1700.36 4820.5 1684.06 4828.4 1678.09C4836.3 1672.13 4847.72 1662.48 4853.76 1656.7C4859.8 1650.92 4867.53 1643.73 4870.89 1640.92C4874.25 1637.94 4879.78 1631.29 4883.3 1626.03C4896.37 1606.6 4902.59 1601.34 4922.77 1593.59C4953.05 1582.13 4976.29 1579.96 4991.31 1587.41ZM2245.41 1623.51C2279.85 1647.66 2285.09 1651.66 2285.1 1653.58C2285.1 1656.03 2279.72 1657.79 2270.79 1657.82C2262.87 1657.85 2234.72 1650.26 2226.11 1645.75C2214.13 1639.51 2210.39 1630.96 2215.75 1621.86C2221.45 1612.41 2230.21 1612.91 2245.41 1623.51ZM4804.23 1607.1C4808.11 1607.09 4813.53 1617.72 4812.37 1622.79C4810.22 1632.4 4801.98 1637.67 4778.09 1644.56C4762.27 1649.16 4752.33 1650.24 4744.91 1648.17C4739.18 1646.62 4740.18 1643.3 4748.25 1637.86C4752.11 1635.22 4762.7 1627.5 4771.6 1620.83C4787.73 1608.73 4795.13 1605.04 4799.51 1606.42C4800.86 1606.76 4802.89 1607.1 4804.23 1607.1ZM104.534 1699.24C109.091 1701.67 114.488 1703.74 116.509 1703.74C118.531 1703.73 120.553 1704.07 121.061 1704.59C122.751 1706.33 118.591 1721.02 116.068 1722.07C111.694 1723.84 96.3458 1718.13 89.7558 1712.21C83.5039 1706.64 83.5027 1706.29 84.6502 1697.21L85.7978 1688.12L91.0311 1691.42C93.9014 1693.34 99.9776 1696.81 104.534 1699.24ZM6936.72 1688.4C6930.01 1694.36 6914.87 1700.18 6910.31 1698.27C6908.12 1697.58 6905.22 1687.81 6905.54 1682.4C6905.54 1681.7 6908.73 1680.29 6912.77 1679.23C6916.81 1678.17 6924.55 1674.3 6930.09 1670.96L6940.18 1664.64L6941.72 1673.54C6943.1 1682.44 6943.1 1682.62 6936.72 1688.4ZM114.35 1761.03C112.257 1788.63 114.365 1813.77 120.517 1838.89C122.908 1848.32 124.452 1856.52 123.949 1857.05C123.11 1857.92 117.849 1846.76 106.81 1820.78C95.7684 1794.27 85.7044 1758.16 85.488 1744.36L85.4679 1738.6L93.557 1739.62C97.939 1740.3 104.507 1739.93 108.21 1739.04C111.913 1738.16 115.111 1737.62 115.449 1737.97C115.787 1738.14 115.318 1748.62 114.35 1761.03ZM6933.28 1715.83L6941.19 1714.76L6941.21 1720.17C6941.26 1735.19 6929.28 1777.32 6917.08 1805.13C6913.57 1812.65 6909.39 1822.45 6907.72 1826.65C6902.71 1838.71 6902.36 1834 6906.84 1815.3C6912.65 1791.18 6914.59 1765.85 6912.65 1740.35C6911.76 1728.83 6910.88 1718.18 6910.88 1716.61C6910.87 1713.99 6911.88 1713.81 6918.12 1715.36C6922 1716.22 6928.73 1716.55 6933.28 1715.83ZM1742.94 1869.23C1767.55 1874.56 1804.84 1891.02 1836.4 1910.64C1914.06 1958.75 2020.03 2012.69 2141.16 2065.71C2165.45 2076.28 2185.19 2085.3 2184.85 2085.47C2184.35 2086 2147.58 2072.5 2097.82 2053.47C2077.92 2045.85 2047.9 2034.78 2031.2 2028.9C2014.51 2023.02 1980.6 2010.04 1955.81 2000.17C1899.97 1978.01 1902.5 1978.7 1903.54 1985.51C1905.26 1997.38 1894.7 2010.69 1881.73 2012.83C1873.32 2014.25 1868.61 2017.94 1868.63 2023.18C1868.64 2026.32 1868.31 2026.5 1866.11 2024.06C1862.9 2020.93 1858.09 1993.87 1859.58 1987.75C1861.07 1981.11 1864.76 1975.86 1870.47 1972.17L1875.52 1968.66L1859.83 1963.48C1851.06 1960.54 1833.86 1955.01 1821.55 1951.04L1799.29 1943.95L1790.39 1950.8C1778.96 1959.74 1769.07 1971.3 1769.08 1975.84C1769.09 1977.94 1768.42 1978.99 1767.24 1978.12C1764.37 1976.38 1766.51 1962.23 1771.35 1949.29C1773.85 1943.34 1775.18 1937.75 1774.51 1937.06C1773.66 1936.18 1770.12 1935.15 1766.41 1934.64C1760.01 1933.61 1759.5 1933.79 1757.16 1938.86C1755.83 1941.84 1750.96 1947.27 1746.26 1950.95C1741.72 1954.63 1736.35 1960.42 1734.51 1964.09C1732.67 1967.59 1730.49 1970.56 1729.65 1970.57C1728.13 1970.57 1729.37 1939.66 1731.2 1932.84C1732.03 1929.69 1731.19 1929 1725.79 1928.14C1721.07 1927.29 1718.89 1927.64 1717.88 1929.57C1717.21 1930.97 1712.51 1935 1707.47 1938.34C1702.43 1941.67 1697.22 1946.75 1695.72 1949.73C1689.69 1961.8 1688.65 1951.85 1694.15 1935.06C1695.48 1931.39 1696.48 1928.07 1696.48 1927.72C1696.48 1925.63 1681.66 1927.6 1673.58 1930.77C1660.13 1936.06 1648.04 1946.93 1641.85 1959.52C1637.5 1968.62 1636.16 1970.02 1632.11 1969.86C1613.08 1969.58 1606.17 1969.08 1604.31 1967.69C1602.62 1966.64 1603.62 1961.23 1609.45 1942.87C1625.61 1891.47 1637.86 1877.8 1675.73 1869.46C1695.76 1865.03 1723.05 1864.93 1742.94 1869.23ZM5351.04 1856.51C5389.81 1864.76 5401.98 1877.99 5418.67 1929.62C5424.63 1947.94 5425.66 1953.35 5423.98 1954.4C5422.13 1955.81 5415.23 1956.35 5396.19 1956.77C5392.15 1956.96 5390.8 1955.57 5386.39 1946.5C5380.11 1933.95 5367.95 1923.16 5354.45 1917.97C5346.36 1914.85 5331.53 1912.99 5331.53 1915.08C5331.53 1915.43 5332.56 1918.74 5333.92 1922.41C5339.53 1939.15 5338.56 1949.11 5332.45 1937.08C5330.93 1934.12 5325.69 1929.07 5320.62 1925.77C5315.56 1922.47 5310.83 1918.47 5310.15 1917.08C5309.13 1915.16 5306.94 1914.82 5302.23 1915.71C5296.84 1916.6 5296 1917.3 5296.85 1920.44C5298.73 1927.25 5300.18 1958.15 5298.67 1958.16C5297.83 1958.16 5295.62 1955.2 5293.76 1951.71C5291.89 1948.05 5286.65 1942.31 5281.92 1938.66C5277.36 1935 5272.29 1929.61 5270.93 1926.64C5268.56 1921.59 5268.05 1921.41 5261.65 1922.48C5257.95 1923.02 5254.42 1924.08 5253.58 1924.96C5252.91 1925.66 5254.27 1931.24 5256.82 1937.17C5261.75 1950.08 5263.99 1964.22 5261.13 1965.97C5259.95 1966.85 5259.28 1965.8 5259.27 1963.71C5259.25 1959.17 5249.28 1947.68 5237.79 1938.81L5228.84 1932.03L5206.63 1939.27C5194.35 1943.33 5177.18 1948.97 5168.44 1951.97L5152.79 1957.27L5157.85 1960.74C5163.59 1964.39 5167.32 1969.62 5168.86 1976.25C5170.39 1982.35 5165.77 2009.44 5162.58 2012.59C5160.4 2015.05 5160.06 2014.87 5160.05 2011.73C5160.03 2006.49 5155.31 2002.84 5146.88 2001.47C5133.9 1999.42 5123.24 1986.19 5124.89 1974.3C5125.87 1967.49 5128.4 1966.78 5072.72 1989.33C5047.99 1999.37 5014.18 2012.59 4997.53 2018.58C4980.87 2024.58 4950.93 2035.86 4931.08 2043.61C4881.45 2063 4844.78 2076.75 4844.27 2076.22C4843.93 2076.05 4863.61 2066.9 4887.83 2056.16C5008.59 2002.3 5114.18 1947.62 5191.5 1898.98C5222.42 1879.48 5259.93 1862.41 5283.83 1856.92C5303.52 1852.48 5330.98 1852.39 5351.04 1856.51ZM1842.82 1964.24C1848.23 1968.06 1847.4 1973.3 1840.52 1979.96C1833.64 1986.8 1832.29 1987.15 1829.75 1982.62C1826.52 1976.34 1827.68 1969 1832.38 1965.15C1837.76 1960.76 1837.92 1960.76 1842.82 1964.24ZM5195.9 1953.45C5200.63 1957.28 5201.83 1964.61 5198.65 1970.9C5196.14 1975.45 5194.79 1975.11 5187.86 1968.32C5180.93 1961.71 5180.07 1956.47 5185.45 1952.61C5190.32 1949.1 5190.49 1949.1 5195.9 1953.45ZM1937.62 2001.28C1941.84 2005.63 1942.04 2013.84 1937.84 2017.7C1936.16 2019.27 1930.62 2022.26 1925.74 2024.2C1914.97 2028.43 1906.4 2034.92 1904.9 2039.82C1903.24 2045.06 1900.2 2041.93 1901.35 2036.16C1901.85 2033.36 1904.69 2025.15 1907.52 2017.8C1911.36 2008.01 1914.21 2003.63 1918.08 2001.17C1924.97 1996.78 1933.39 1996.93 1937.62 2001.28ZM5109.61 1989.55C5113.32 1991.46 5116.2 1995.47 5119.6 2002.96C5126.22 2018.14 5128.6 2026.51 5127.27 2029.83C5126.43 2032.28 5125.76 2031.76 5123.22 2027.4C5119.66 2021.65 5111.89 2016.26 5102.45 2013.15C5093.01 2010.04 5087.6 2004.82 5087.58 1998.88C5087.54 1988.41 5098.64 1983.65 5109.61 1989.55ZM1656.48 2049.06C1713.96 2061.26 1743.3 2070.77 1804.04 2096.92C1825.46 2106.11 1876.57 2127.76 1917.9 2144.9C1959.23 2162.05 1997.7 2178.16 2003.43 2180.58C2009.33 2183.01 2013.72 2185.26 2013.39 2185.61C2013.05 2185.96 1990.11 2178.01 1962.45 2167.8C1853.5 2128.19 1804.43 2112.64 1769.03 2106.65L1748.3 2103.06L1736.55 2114.97C1723.96 2127.59 1713.23 2141.43 1710.22 2148.77L1708.38 2153.14L1707.7 2148.95C1707.01 2144.59 1712.64 2116.45 1716.47 2104.91L1718.64 2098.44L1711.22 2097.77C1703.98 2097.27 1703.47 2097.62 1686.18 2113.75C1672.41 2126.55 1667.38 2132.68 1663.53 2140.72C1660.69 2146.5 1658.52 2152.62 1658.53 2154.54C1658.53 2156.29 1657.7 2157.69 1656.69 2157.69C1655.17 2157.69 1654.98 2152.46 1655.78 2138.83C1657.38 2114.2 1659.36 2103.72 1663.39 2099.16C1665.23 2097.06 1666.74 2094.96 1666.74 2094.26C1666.74 2093.56 1661.01 2093.06 1653.94 2093.08C1641.3 2093.12 1640.96 2093.13 1626.85 2102.95C1617.77 2109.1 1611.23 2115.06 1609.05 2119.08C1605.7 2125.03 1605.37 2125.21 1604.85 2121.54C1604.33 2118.23 1606.66 2108.79 1610.83 2097.07C1611.33 2095.5 1608.8 2094.98 1601.72 2095.01C1586.73 2095.06 1553.22 2098.5 1537.9 2101.52C1508.95 2107.38 1514.01 2108.59 1470.63 2083.94C1445.32 2069.53 1432.82 2061.54 1434.34 2060.66C1438.87 2058.2 1487.36 2049.82 1516.66 2046.4C1539.56 2043.88 1555.72 2043.13 1589.08 2043.36C1629.17 2043.74 1633.55 2044.25 1656.48 2049.06ZM5509.82 2032.52C5541.67 2035.9 5586.84 2043.08 5593.92 2046.02C5596.45 2047.06 5589.4 2051.8 5558.63 2069.72C5515.26 2094.67 5520.31 2093.43 5491.32 2087.77C5475.14 2084.86 5443.29 2081.65 5428.3 2081.7C5420.55 2081.73 5417.85 2082.26 5418.37 2083.83C5422.62 2095.52 5425.01 2104.94 5424.51 2108.26C5424.02 2111.93 5423.68 2111.76 5420.29 2105.83C5418.09 2101.82 5411.5 2095.91 5402.38 2089.83C5388.2 2080.1 5387.86 2080.1 5375.23 2080.14C5368.15 2080.17 5362.43 2080.71 5362.43 2081.41C5362.43 2082.11 5363.96 2084.2 5365.82 2086.29C5369.88 2090.81 5371.93 2101.28 5373.7 2125.9C5374.59 2139.52 5374.44 2144.76 5372.93 2144.77C5371.92 2144.77 5371.07 2143.38 5371.06 2141.63C5371.06 2139.71 5368.85 2133.6 5365.96 2127.85C5362.06 2119.83 5356.99 2113.74 5343.13 2101.03C5325.72 2085.03 5325.22 2084.68 5317.98 2085.23L5310.57 2085.95L5312.78 2092.41C5316.69 2103.92 5322.52 2132.02 5321.86 2136.39L5321.2 2140.58L5319.33 2136.22C5316.27 2128.9 5305.45 2115.14 5292.77 2102.61L5280.94 2090.77L5260.23 2094.51C5224.88 2100.75 5175.91 2116.64 5067.24 2157.01C5039.65 2167.41 5016.77 2175.52 5016.43 2175.17C5016.09 2174.82 5020.46 2172.54 5026.35 2170.07C5032.07 2167.61 5070.42 2151.23 5111.63 2133.8C5152.84 2116.37 5203.97 2094.36 5225.16 2085.03C5271.08 2064.79 5299.51 2054.38 5330.3 2046.24C5349.15 2041.29 5384.16 2033.65 5402.68 2030.62C5416.32 2028.3 5478.99 2029.48 5509.82 2032.52ZM2022.93 2072.41C2044.19 2081.77 2078.43 2095.97 2098.84 2103.76C2119.25 2111.55 2153.83 2125.05 2175.59 2133.53C2241.04 2159.32 2312.37 2182.48 2368.68 2196.43C2454.66 2217.79 2530.37 2238.13 2560.89 2247.98C2579.44 2254.03 2606.42 2262.49 2620.75 2266.98C2635.09 2271.47 2660.22 2280.12 2676.41 2286.35C2720.77 2303.13 2793.29 2329.08 2810.49 2334.08C2920.6 2366.36 3052.74 2388.43 3170.34 2394.3C3197.63 2395.78 3230.99 2398.29 3244.47 2400.16C3273.46 2404.25 3288.96 2404.37 3302.59 2400.66C3333.72 2391.99 3697.56 2390.73 3728.76 2399.17C3742.41 2402.79 3757.91 2402.57 3786.87 2398.27C3800.34 2396.31 3833.68 2393.57 3860.96 2391.9C3978.51 2385.21 4110.5 2362.22 4220.38 2329.18C4237.54 2324.06 4309.88 2297.61 4354.12 2280.51C4370.27 2274.17 4395.34 2265.35 4409.64 2260.76C4423.95 2256.17 4450.87 2247.52 4469.37 2241.34C4499.83 2231.28 4575.39 2210.41 4661.22 2188.46C4717.43 2174.12 4788.6 2150.47 4853.87 2124.22C4875.57 2115.58 4910.05 2101.84 4930.41 2093.91C4950.76 2085.98 4983.73 2072.07 5003.58 2063.1C5043.1 2045.32 5051.34 2042.15 5054.55 2043.36C5056.57 2044.05 5018.57 2064.62 4992.34 2076.93C4984.77 2080.45 4957.52 2092.07 4931.62 2102.64C4905.71 2113.21 4868.71 2128.88 4849.37 2137.68C4830.2 2146.3 4801.1 2158.63 4784.95 2164.8C4743.06 2181.01 4711.44 2194.22 4689.07 2204.78C4678.48 2209.88 4650.9 2222.55 4627.69 2232.93C4604.64 2243.32 4568.32 2260.56 4546.96 2271.29C4464.9 2312.09 4436.81 2321.62 4373.84 2329.87C4358.85 2331.84 4333.09 2335.42 4316.42 2337.93C4299.76 2340.26 4276.52 2343.48 4264.74 2345.09C4252.95 2346.53 4227.87 2350.98 4209.18 2354.72C4190.33 2358.62 4170.8 2362.18 4165.75 2362.9C4160.7 2363.62 4133.93 2368.08 4106.15 2372.89C4078.55 2377.7 4040.33 2383.25 4021.13 2385.23C3983.58 2389.21 3950.92 2393.69 3909.84 2400.47C3883.58 2404.75 3818.93 2414.75 3798.72 2417.62C3792.66 2418.34 3778.69 2420.31 3767.58 2421.92C3756.46 2423.35 3740.14 2426.2 3731.38 2428.16C3722.63 2430.11 3703.6 2432.79 3689.29 2434.41C3674.98 2435.86 3639.28 2439.48 3610.15 2442.55C3536.73 2450.14 3494.96 2450.28 3421.49 2443.2C3392.34 2440.34 3356.62 2436.97 3342.3 2435.62C3327.97 2434.1 3308.93 2431.55 3300.16 2429.66C3291.4 2427.76 3275.05 2425.03 3263.93 2423.67C3252.8 2422.14 3238.82 2420.26 3232.75 2419.59C3212.53 2416.86 3147.81 2407.31 3121.52 2403.21C3080.39 2396.71 3047.7 2392.46 3010.12 2388.75C2990.91 2386.9 2952.66 2381.61 2925.02 2377C2897.21 2372.38 2870.41 2368.1 2865.35 2367.42C2860.3 2366.74 2840.74 2363.32 2821.87 2359.54C2803.15 2355.94 2778.04 2351.66 2766.25 2350.3C2754.45 2348.77 2731.19 2345.71 2714.51 2343.5C2697.82 2341.11 2672.04 2337.71 2657.04 2335.84C2594.01 2328.02 2565.85 2318.69 2483.51 2278.46C2462.25 2267.88 2425.8 2250.89 2402.52 2240.67C2379.41 2230.45 2351.57 2217.97 2340.94 2212.94C2318.5 2202.54 2286.79 2189.55 2244.79 2173.63C2228.6 2167.58 2199.42 2155.45 2180.18 2146.96C2160.78 2138.3 2123.67 2122.88 2097.69 2112.49C2071.72 2102.11 2044.39 2090.68 2036.8 2087.21C2015.71 2077.5 1973.18 2055.47 1973.18 2054.25C1973.17 2051.45 1986.83 2056.47 2022.93 2072.41ZM1788.94 2164.74C1791.48 2168.75 1791 2176.43 1787.97 2176.44C1784.27 2176.46 1778.18 2170.54 1778.17 2166.87C1778.15 2160.06 1785.22 2158.64 1788.94 2164.74ZM5248.8 2149.74C5253.02 2151.3 5252.03 2158.46 5247.32 2161.62C5245.14 2163.2 5242.62 2164.43 5241.78 2164.43C5238.74 2164.44 5238.21 2156.76 5240.72 2152.74C5243.24 2148.54 5244.58 2148.01 5248.8 2149.74ZM1816.97 2184.2C1827.76 2187.66 1831.99 2191.13 1829.3 2193.94C1827.96 2195.34 1824.25 2193.96 1815.47 2189.1C1808.89 2185.45 1803.49 2181.8 1803.48 2180.93C1803.48 2180.23 1804.49 2179.88 1805.67 2180.22C1806.68 2180.74 1811.91 2182.47 1816.97 2184.2ZM5226.29 2169.2C5226.3 2170.08 5220.92 2173.59 5214.36 2177.28C5205.79 2182.2 5201.92 2183.61 5200.57 2182.22C5197.69 2179.26 5201.39 2176.45 5213.33 2172.04C5225.28 2167.63 5226.29 2167.46 5226.29 2169.2ZM2020.81 2187.86C2022.16 2188.73 2022.67 2189.6 2021.65 2189.6C2020.81 2189.6 2018.79 2188.74 2017.44 2187.87C2016.09 2187 2015.75 2186.13 2016.59 2186.13C2017.6 2186.12 2019.46 2186.99 2020.81 2187.86ZM5012.4 2177.46C5011.05 2178.33 5009.2 2179.21 5008.19 2179.22C5007.35 2179.22 5007.68 2178.35 5009.03 2177.47C5010.37 2176.59 5012.39 2175.71 5013.23 2175.71C5014.24 2175.7 5013.74 2176.58 5012.4 2177.46ZM1889.26 2190.94C1897.53 2195.27 1898.74 2205.22 1891.86 2210.84C1885.98 2215.57 1880.92 2215.41 1871.3 2210.21C1866.91 2207.78 1861.69 2205.88 1859.66 2205.88C1853.94 2205.9 1854.94 2203.8 1863.85 2197.66C1877.29 2188.18 1881.83 2186.94 1889.26 2190.94ZM5153.39 2178.71C5159.29 2180.96 5174.15 2191.21 5174.16 2192.96C5174.16 2193.83 5172.48 2194.36 5170.29 2194.37C5168.27 2194.38 5163.05 2196.32 5158.68 2198.78C5149.1 2204.05 5144.05 2204.24 5138.13 2199.55C5131.04 2193.81 5132.52 2184.02 5141.26 2179.1C5145.47 2176.64 5147.49 2176.64 5153.39 2178.71ZM1961.72 2199.07C1974.05 2207.41 1975.1 2221.02 1964.19 2232.41C1952.11 2245.03 1930.74 2252.09 1917.92 2247.77C1913.2 2246.21 1910.68 2246.4 1904.79 2248.51C1900.75 2250.1 1896.04 2252.56 1894.36 2254.14C1889.5 2258.7 1890.49 2253.28 1897.17 2238.76C1900.35 2231.59 1903.02 2224.42 1903.01 2222.67C1902.98 2212.89 1915.57 2199.93 1929.87 2194.99C1937.94 2192.16 1954.8 2194.37 1961.72 2199.07ZM5106.76 2186.73C5117.73 2192.46 5127.03 2203.78 5127.06 2211.46C5127.06 2213.21 5129.78 2220.36 5133.01 2227.51C5139.8 2241.98 5140.83 2247.39 5135.93 2242.87C5134.24 2241.3 5129.51 2238.87 5125.46 2237.31C5119.56 2235.24 5117.03 2235.07 5112.32 2236.66C5094.49 2242.84 5061.75 2226.18 5058.66 2209.25C5056.6 2198.61 5063.81 2188.28 5076.09 2184.05C5082.82 2181.75 5100.18 2183.26 5106.76 2186.73ZM2025.33 2230.46C2035.12 2235.14 2039.52 2240.36 2039.54 2247.7C2039.57 2254.51 2037.22 2258.53 2031.67 2260.82C2023.6 2264.34 1985.39 2271.81 1975.95 2271.84C1971.07 2271.86 1963.66 2272.76 1959.45 2273.82C1955.25 2274.88 1951.54 2275.42 1951.03 2274.9C1950.53 2274.38 1953.37 2268.95 1957.39 2262.65C1961.41 2256.35 1966.61 2247.77 1968.95 2243.57C1975.31 2232.2 1987.08 2226.4 2003.93 2226.34C2013.87 2226.3 2018.75 2227.33 2025.33 2230.46ZM5047.75 2220.47C5054.5 2223.76 5058.05 2227.07 5061.27 2232.82C5063.64 2237.01 5068.89 2245.54 5072.96 2251.82C5077.02 2258.09 5079.91 2263.49 5079.4 2264.02C5078.9 2264.55 5075.19 2264.03 5070.98 2263C5066.76 2261.97 5059.35 2261.12 5054.46 2261.14C5045.03 2261.17 5006.77 2253.97 4998.67 2250.5C4993.1 2248.25 4990.73 2244.24 4990.71 2237.43C4990.64 2219.27 5025.31 2208.85 5047.75 2220.47ZM2080.99 2299.59C2093.98 2304.09 2134.62 2316.52 2171.21 2327.05C2207.8 2337.58 2255.69 2352.43 2277.44 2359.86C2336.3 2380.09 2338.66 2380.61 2369.33 2382.25C2407.57 2384.21 2419.2 2386.96 2444.35 2399.62L2465.61 2410.2L2471.32 2406.69C2480.4 2401.24 2486.8 2400.52 2494.73 2403.81C2505.69 2408.32 2509.95 2420.88 2504.43 2432.25C2498.07 2444.84 2477.73 2456.79 2465.59 2454.74C2462.56 2454.22 2454.8 2451.46 2448.39 2448.68C2441.98 2445.74 2431.02 2442.63 2423.77 2441.61C2402.54 2438.54 2378.75 2427.97 2358.99 2412.49C2347.5 2403.45 2343.62 2401.72 2291.51 2383.04C2217.8 2356.75 2142.75 2328.72 2100.41 2311.75C2056.55 2294.27 2053.68 2293.05 2052.16 2290.44C2051.31 2289.04 2051.81 2288.87 2054.18 2289.91C2055.86 2290.78 2068.01 2295.1 2080.99 2299.59ZM4977.38 2281.31C4972.52 2286.4 4857.29 2331.51 4739.69 2374.53C4687.71 2393.57 4683.84 2395.33 4672.42 2404.45C4652.76 2420.06 4629.05 2430.8 4607.83 2434.01C4600.6 2435.09 4589.66 2438.27 4583.27 2441.26C4576.88 2444.08 4569.14 2446.9 4566.11 2447.43C4553.99 2449.57 4533.56 2437.77 4527.12 2425.21C4521.52 2413.88 4525.69 2401.29 4536.62 2396.71C4544.53 2393.37 4550.93 2394.04 4560.04 2399.43L4565.78 2402.9L4586.97 2392.17C4612.02 2379.34 4623.64 2376.5 4661.87 2374.27C4692.52 2372.42 4694.87 2371.89 4753.59 2351.25C4775.29 2343.67 4820.39 2329.36 4853.71 2319.47C4914.12 2301.62 4961.9 2286.26 4971.49 2281.68C4978.21 2278.34 4980.4 2278.34 4977.38 2281.31ZM2558.63 2422.63C2567.6 2433.43 2561.09 2450.21 2544.77 2457.61C2540.06 2459.89 2534.02 2464.28 2531.5 2467.26C2528.98 2470.41 2526.63 2472.69 2526.3 2472.34C2525.96 2471.99 2525.42 2462.91 2525.05 2452.09C2524.48 2434.62 2524.81 2432.18 2527.99 2427.62C2536.04 2416.25 2551.02 2413.75 2558.63 2422.63ZM4497.77 2414.66C4506.05 2420.92 4507.92 2427.55 4506.81 2447.11C4506.34 2456.9 4505.7 2465.11 4505.36 2465.46C4505.02 2465.81 4502.83 2463.55 4500.29 2460.41C4497.75 2457.45 4491.67 2453.11 4486.95 2450.85C4475.81 2445.83 4469.21 2437.29 4469.18 2428.04C4469.16 2420.35 4472.67 2413.88 4478.22 2411.41C4483.1 2409.3 4492.7 2410.84 4497.77 2414.66ZM2615.41 2425.75C2622.16 2428.69 2628.09 2437.58 2628.11 2444.74C2628.15 2456.09 2620.44 2466.6 2607.49 2473.1C2602.95 2475.39 2598.42 2479.6 2595.07 2485.2C2589.2 2494.3 2588.7 2493.95 2586.96 2480.16C2586.27 2475.27 2584.56 2466.9 2583.19 2461.49C2580.97 2453.29 2580.8 2450.14 2582.46 2444.55C2584.79 2436.16 2592.68 2427.57 2599.91 2425.28C2607.48 2422.98 2608.83 2422.98 2615.41 2425.75ZM4438.34 2422.38C4441.37 2424.29 4445.27 2429.34 4447.47 2433.87C4450.87 2441.2 4451.04 2442.77 4449.38 2450.81C4448.22 2455.7 4446.57 2464.79 4445.58 2471.08C4442.94 2488.03 4442.94 2488.03 4436.85 2478.79C4433.46 2473.22 4428.9 2469.04 4424.34 2466.79C4406.12 2457.77 4398.99 2441.55 4406.86 2427.9C4413.22 2417.05 4426.18 2414.74 4438.34 2422.38ZM2673.61 2450.17C2683.23 2455.2 2684.61 2464.28 2677.39 2471.99C2674.37 2475.14 2670 2477.43 2665.96 2477.97C2647.44 2481 2640.88 2482.77 2637.18 2486.45C2627.78 2495.56 2631.6 2480.71 2642.67 2465.12C2654.07 2448.84 2662.98 2444.62 2673.61 2450.17ZM4376.09 2445.12C4379.13 2447.04 4385.05 2453.3 4389.11 2459.05C4400.28 2474.55 4404.04 2489.04 4394.74 2480.51C4389.84 2475.99 4386.64 2474.95 4372.82 2473.08C4366.58 2472.4 4359.5 2470.33 4357.14 2468.77C4347.85 2462.51 4347.64 2450.99 4356.89 2445.19C4363.78 2440.8 4369.17 2440.78 4376.09 2445.12ZM2835.58 2525.4C2843.5 2527.12 2859.01 2530.74 2870.14 2533.14C2906.55 2541.4 2989.81 2554.91 3041.21 2560.66C3093.11 2566.6 3209 2566.54 3274.51 2560.55C3285.62 2559.64 3324.36 2557.93 3360.4 2556.76C3396.62 2555.76 3446.3 2554.19 3471.23 2553.41C3495.99 2552.45 3536.42 2552.31 3561.35 2553.09C3586.11 2553.7 3635.98 2554.93 3672.03 2555.68C3708.25 2556.6 3746.83 2558.04 3757.95 2558.87C3823.49 2564.41 3939.38 2563.65 3991.24 2557.36C4042.6 2551.24 4125.76 2537.16 4162.12 2528.65C4173.22 2526.17 4188.71 2522.44 4196.62 2520.67C4211.43 2517.13 4219.85 2516.92 4218.68 2519.89C4217.01 2524.09 4159.29 2539.49 4089.27 2554.4C4055.94 2561.68 4013.85 2568.28 3971.08 2573.15C3957.61 2574.59 3937.91 2577.11 3927.3 2578.54C3916.7 2579.97 3877.97 2584.13 3841.43 2587.57C3804.89 2591.02 3768.85 2594.81 3761.44 2595.71C3748.65 2597.32 3708.73 2599.73 3651.13 2602.2C3636.82 2602.95 3618.63 2604.06 3610.72 2604.96C3564.41 2610.36 3536.62 2612.56 3516.41 2612.63C3496.2 2612.7 3468.4 2610.7 3422.06 2605.62C3414.14 2604.77 3395.94 2603.79 3381.62 2603.14C3324 2601.07 3284.07 2598.94 3271.27 2597.41C3263.85 2596.56 3227.79 2593.02 3191.23 2589.83C3154.66 2586.64 3115.91 2582.76 3105.29 2581.4C3094.67 2580.04 3074.96 2577.66 3061.48 2576.31C3022.05 2572.08 2978.23 2565.6 2950.25 2559.93C2893.78 2548.6 2838.98 2535.17 2814.02 2526.53C2810.65 2525.31 2813.33 2522.16 2817.55 2522.15C2819.57 2522.14 2827.66 2523.68 2835.58 2525.4ZM1973.58 2848C1988.76 2855.1 2000.95 2870.95 2005.73 2889.97C2009.32 2904.8 2007.17 2915.99 1998.28 2927.9C1994.93 2932.45 1989.9 2940.15 1987.22 2945.05C1982.37 2953.8 1975.83 2961.68 1973.47 2961.69C1972.79 2961.69 1972.11 2958.03 1972.09 2953.31C1972.05 2942.31 1968.83 2935.68 1960.72 2929.42C1951.94 2922.82 1945.16 2910.27 1940.72 2892.64C1932.52 2860.36 1938.36 2844.97 1959.08 2844.9C1963.29 2844.89 1969.7 2846.26 1973.58 2848ZM5086.95 2836.3C5098.26 2842.37 5100.5 2856.86 5094.02 2882.03C5089.53 2899.86 5082.33 2912.98 5073.93 2919.12C5066.03 2924.74 5063.02 2931.39 5063.06 2942.56C5063.08 2947.28 5062.42 2950.95 5061.75 2950.95C5059.39 2950.96 5052.79 2943.12 5047.87 2934.41C5045.16 2929.53 5040.08 2921.86 5036.7 2917.33C5027.73 2905.49 5025.5 2894.32 5028.99 2879.46C5036.79 2847.82 5066.53 2825.54 5086.95 2836.3ZM2046.98 2933.32C2052.72 2937.49 2056.62 2944.98 2058 2954.06C2059.04 2960.87 2058.87 2961.74 2055.67 2962.62C2051.63 2963.69 2051.3 2965.09 2054.01 2967.87C2057.22 2971.18 2051.68 2978.01 2040.09 2985.03C2034.2 2988.55 2027.48 2993.46 2024.96 2995.91L2020.6 3000.29L2019.22 2992.09C2018.53 2986.85 2016.32 2981.8 2013.28 2978.14C2004.15 2967.52 2002.59 2955.65 2008.27 2943.06C2015.46 2927.66 2033.64 2923.06 2046.98 2933.32ZM5018.69 2922.11C5024.43 2925.93 5030.2 2937.96 5030.23 2946.34C5030.26 2954.55 5027.92 2960.85 5022.05 2967.68C5019.03 2971.36 5016.86 2976.43 5016.2 2981.67L5014.88 2989.88L5010.49 2985.53C5007.95 2983.1 5001.2 2978.23 4995.29 2974.76C4983.64 2967.81 4978.06 2961.02 4981.25 2957.69C4983.94 2954.89 4983.59 2953.49 4979.55 2952.46C4976.34 2951.6 4976.17 2950.72 4977.16 2943.91C4977.82 2939.71 4979.32 2934.47 4980.49 2932.02C4987.35 2918.03 5005.69 2913.25 5018.69 2922.11ZM2076.04 3006.74C2083.13 3010.73 2086.54 3023.99 2082.02 3030.29C2080.01 3033.27 2079.17 3033.27 2074.27 3031.19C2064.49 3027.04 2059.08 3021.12 2059.06 3014.66C2059.03 3006.1 2067.6 3002.23 2076.04 3006.74ZM4973.3 2996.66C4975.49 2997.88 4976.51 3000.32 4976.53 3004.34C4976.55 3010.97 4971.18 3016.93 4961.43 3021.16C4956.55 3023.27 4955.71 3023.27 4953.67 3020.31C4950.63 3016.13 4950.61 3010.02 4953.79 3003.72C4957.8 2995.5 4965.88 2992.67 4973.3 2996.66ZM2142.57 3100.12C2145.6 3101.33 2146.13 3106.91 2143.44 3108.84C2142.43 3109.37 2140.07 3108.33 2138.21 3106.42C2133.31 3101.37 2135.99 3097.52 2142.57 3100.12ZM4900.36 3091.4C4901.71 3093.84 4895.17 3100.67 4892.8 3099.28C4890.27 3097.55 4890.42 3091.78 4893.11 3090.73C4896.64 3089.14 4899.17 3089.48 4900.36 3091.4ZM2422.39 3353.07C2455.49 3375.14 2511.53 3408.47 2546.46 3427.04C2580.21 3444.91 2644.83 3475.42 2672.16 3486.33C2705.22 3499.49 2824.63 3541.68 2856.84 3551.53C2874.54 3556.88 2902.2 3565.52 2918.39 3570.7C2955.15 3582.62 2972.01 3586.75 3017.86 3595.5C3037.75 3599.45 3076.18 3607.87 3102.99 3614.42C3202.12 3638.52 3240.04 3645.9 3310.32 3654.74C3493.5 3677.85 3696.45 3668.41 3865.26 3629.05C3877.72 3626.04 3910.03 3618.25 3936.79 3611.52C3963.72 3604.79 4001.93 3596.1 4021.79 3592.01C4067.58 3582.94 4084.41 3578.69 4121.09 3566.52C4137.24 3561.22 4165 3552.39 4182.5 3546.92C4214.64 3536.85 4333.75 3493.82 4366.72 3480.44C4393.97 3469.34 4458.38 3438.38 4492 3420.27C4526.81 3401.47 4582.61 3367.74 4615.55 3345.45C4642.61 3327.36 4677.75 3307.68 4677.76 3310.65C4677.76 3311.87 4674.74 3314.68 4671.21 3316.79C4667.51 3319.07 4655.92 3329.41 4645.35 3339.93C4626.21 3358.86 4596.81 3381.49 4555.97 3408.7C4513.46 3437.14 4412.91 3491.98 4313.87 3541.05C4148.74 3623 4153.62 3620.72 4081.28 3648.04C3990.1 3682.41 3966.88 3689.65 3909.82 3701.55C3807.81 3723.04 3734.23 3732.55 3618.37 3739.24C3529.78 3744.26 3435.44 3742.67 3333.33 3734.12C3266.61 3728.41 3205.43 3719.54 3130.08 3704.26C3073.44 3692.76 3050.01 3685.68 2958.76 3651.94C2886.23 3625.12 2891.13 3627.38 2725.43 3546.57C2548.94 3460.74 2444.11 3398.05 2392.56 3347.76C2381.91 3337.32 2370.25 3327.06 2366.54 3324.8C2362.99 3322.72 2359.95 3319.93 2359.95 3318.71C2359.94 3315.74 2395.21 3335.18 2422.39 3353.07Z" fill="white"/>
</svg>
