<svg width="254" height="222" viewBox="0 0 254 222" fill="none" xmlns="http://www.w3.org/2000/svg">
<path fill-rule="evenodd" clip-rule="evenodd" d="M8.218 1.66308C6.413 2.55308 3.938 4.68008 2.718 6.39008L0.5 9.50008L0.235001 101.76C-0.0269994 192.75 -0.00299883 194.074 1.998 197.996C3.309 200.566 5.423 202.685 7.974 203.987C11.861 205.97 13.637 206 127 206C240.363 206 242.139 205.97 246.026 203.987C248.567 202.691 250.691 200.567 251.987 198.026C253.961 194.156 254 192.309 254 103C254 13.6911 253.961 11.8441 251.987 7.97408C250.691 5.43308 248.567 3.30908 246.026 2.01308C242.138 0.0300806 240.386 8.08835e-05 126.79 0.0230809C22.635 0.0430809 11.183 0.20208 8.218 1.66308ZM87.5 17.4151C27.655 29.1431 -2.306 94.4941 28.091 147C39.601 166.884 59.003 181.35 82.5 187.569C92.198 190.136 113.692 190.152 123.5 187.601C138.962 183.578 154.043 174.785 165.113 163.338C179.491 148.471 187.75 130.581 189.62 110.254L190.287 103.007L206.143 93.8871L222 84.7661V69.3971V54.0271L225.736 52.4661C232.918 49.4651 237.933 42.2951 237.978 34.9621C238.008 30.1281 234.289 23.2441 229.657 19.5581C226.22 16.8221 225.096 16.5001 219 16.5001C212.904 16.5001 211.78 16.8221 208.343 19.5581C203.711 23.2441 199.992 30.1281 200.022 34.9621C200.067 42.2951 205.082 49.4651 212.264 52.4661L216 54.0271L215.969 67.7631L215.937 81.5001L203.25 88.7051C190.131 96.1541 189.048 96.3341 189.015 91.0641C188.98 85.4951 185.516 74.7971 180.251 64.0001C175.08 53.3951 173.82 51.6741 164.068 41.8851C154.225 32.0051 152.696 30.8851 141.996 25.7181C135.673 22.6651 127.575 19.4301 124 18.5301C115.016 16.2691 96.27 15.6961 87.5 17.4151ZM86.895 23.4401C71.063 26.7481 57.811 34.0141 45.912 45.9121C35.881 55.9421 30.434 64.6411 25.822 78.0001C22.665 87.1441 22.542 88.0811 22.542 103C22.542 117.892 22.669 118.867 25.786 127.851C33.312 149.547 47.407 165.702 67.671 175.857C110.191 197.164 163.946 174.73 179.427 129.215C181.598 122.83 184.505 108.172 183.75 107.416C183.579 107.246 180.691 108.655 177.332 110.548C172.188 113.446 171.125 114.52 170.593 117.357C169.824 121.454 168.442 122.74 159.643 127.552C153.578 130.868 152.367 131.197 149.143 130.4C146.352 129.711 145.08 128.641 143.704 125.827C142.089 122.523 142.054 121.807 143.35 118.705C144.473 116.017 146.443 114.344 152.269 111.128C159.977 106.873 162.736 106.253 166.058 108.031C167.616 108.865 169.535 108.168 176.068 104.4L184.152 99.7381L183.507 94.6191C179.259 60.8701 156.746 34.1391 124.821 24.9361C115.393 22.2181 96.342 21.4671 86.895 23.4401ZM212.299 23.9601C206.182 27.6891 204.245 35.6091 207.96 41.7011C213.016 49.9951 224.984 49.9951 230.04 41.7011C237.012 30.2681 223.732 16.9881 212.299 23.9601ZM93.286 69.3911C82.951 72.7681 75.69 79.1701 71.101 88.9541C68.937 93.5681 68.5 95.9321 68.5 103.021C68.5 110.619 68.853 112.259 71.76 118.163C75.553 125.87 80.975 131.158 88.88 134.865C93.571 137.064 95.906 137.5 103 137.5C110.094 137.5 112.429 137.064 117.12 134.865C125.025 131.158 130.447 125.87 134.24 118.163C137.147 112.259 137.5 110.619 137.5 103.021C137.5 95.9041 137.066 93.5741 134.865 88.8801C129.059 76.4991 118.021 68.9831 104.72 68.3551C100.369 68.1491 95.826 68.5611 93.286 69.3911ZM93.653 75.6281C86.484 77.8301 77.701 86.7311 75.591 93.9321C73.583 100.787 73.583 105.213 75.591 112.068C77.781 119.543 86.464 128.17 94.071 130.429C105.545 133.836 114.624 131.536 123.08 123.08C131.552 114.608 133.837 105.548 130.411 94.0131C128.179 86.4971 119.503 77.8211 111.987 75.5891C105.463 73.6511 100.051 73.6631 93.653 75.6281ZM95.5 85.8901C80.095 93.0001 80.537 113.895 96.232 120.452C100.929 122.415 105.071 122.415 109.768 120.452C125.779 113.763 125.779 92.2371 109.768 85.5481C104.903 83.5151 100.413 83.6231 95.5 85.8901ZM96.299 91.9601C90.182 95.6891 88.245 103.609 91.96 109.701C97.016 117.995 108.984 117.995 114.04 109.701C121.012 98.2681 107.732 84.9881 96.299 91.9601ZM221.42 105.885C214.66 110.008 214.44 119.361 221 123.802C230.757 130.409 242.315 119.215 236.052 109.225C232.719 103.909 226.856 102.571 221.42 105.885ZM223.571 111.571C220.539 114.604 222.734 120 227 120C229.386 120 232 117.386 232 115C232 112.614 229.386 110 227 110C225.979 110 224.436 110.707 223.571 111.571ZM154.75 116.607C150.929 118.969 149 120.815 149 122.112C149 125.357 151.645 125.35 157.348 122.087C164.27 118.126 165.678 116.521 164 114.5C162.236 112.375 161.225 112.605 154.75 116.607ZM221.42 137.885C214.66 142.008 214.44 151.361 221 155.802C230.757 162.409 242.315 151.215 236.052 141.225C232.719 135.909 226.856 134.571 221.42 137.885ZM223.571 143.571C220.539 146.604 222.734 152 227 152C229.386 152 232 149.386 232 147C232 144.614 229.386 142 227 142C225.979 142 224.436 142.707 223.571 143.571ZM221.42 169.885C214.66 174.008 214.44 183.361 221 187.802C230.757 194.409 242.315 183.215 236.052 173.225C232.719 167.909 226.856 166.571 221.42 169.885ZM223.571 175.571C220.539 178.604 222.734 184 227 184C229.386 184 232 181.386 232 179C232 176.614 229.386 174 227 174C225.979 174 224.436 174.707 223.571 175.571ZM0 207.885C0 212.036 3.854 217.885 7.974 219.987C11.861 221.97 13.637 222 127 222C240.363 222 242.139 221.97 246.026 219.987C250.146 217.885 254 212.036 254 207.885C254 205.778 253.922 205.76 252.066 207.44C247.042 211.987 249.13 211.912 127 211.912C4.87 211.912 6.958 211.987 1.934 207.44C0.0779982 205.76 0 205.778 0 207.885Z" fill="white"/>
</svg>
