<?xml version="1.0" encoding="utf-8"?>
<!-- Svg Vector Icons : http://www.onlinewebfonts.com/icon -->
<!DOCTYPE svg PUBLIC "-//W3C//DTD SVG 1.1//EN" "http://www.w3.org/Graphics/SVG/1.1/DTD/svg11.dtd">
<svg version="1.1" xmlns="http://www.w3.org/2000/svg" xmlns:xlink="http://www.w3.org/1999/xlink" x="0px" y="0px" viewBox="0 0 1000 1000" enable-background="new 0 0 1000 1000" xml:space="preserve">
<metadata> Svg Vector Icons : http://www.onlinewebfonts.com/icon </metadata>
<g><path d="M931,44.9H415.4c-16.9,0-30.6,13.7-30.6,30.6c0,16.9,13.7,30.6,30.6,30.6H931c16.9,0,30.6-13.7,30.6-30.6C961.6,58.6,947.9,44.9,931,44.9L931,44.9z M900.3,75.4v514.5c0,16.9,13.7,30.6,30.6,30.6s30.6-13.7,30.6-30.6V75.4c0-16.9-13.7-30.6-30.6-30.6S900.3,58.5,900.3,75.4L900.3,75.4z M936,797.9c-31.2,4.6-63,7-95.2,7c-355,0-642.8-287.8-642.8-642.9c0-31.9,2.3-63.5,6.9-94.6c2.5-16.7-9.1-32.3-25.8-34.8c-16.7-2.5-32.3,9.1-34.8,25.8c-5,34-7.5,68.6-7.5,103.5c0,388.9,315.2,704.1,704.1,704.1c35.2,0,70-2.6,104.2-7.7c16.7-2.5,28.3-18.1,25.8-34.8C968.3,807,952.7,795.5,936,797.9L936,797.9z M909.2,53.9L526.5,439.8c-11.9,12-11.8,31.4,0.2,43.3c12,11.9,31.4,11.8,43.3-0.2L952.7,97.1c11.9-12,11.8-31.4-0.2-43.3C940.5,41.9,921.1,41.9,909.2,53.9L909.2,53.9z M981,815.2L858.5,692.7c-12-12-31.4-12-43.3,0s-12,31.4,0,43.3l122.5,122.5c12,12,31.3,12,43.3,0C993,846.6,993,827.2,981,815.2L981,815.2z M937.7,815.2L815.2,937.7c-12,12-12,31.3,0,43.3s31.4,12,43.3,0L981,858.5c12-12,12-31.4,0-43.3C969.1,803.3,949.7,803.3,937.7,815.2L937.7,815.2z M141.5,19L19,141.5c-12,12-12,31.4,0,43.3c12,12,31.4,12,43.3,0L184.8,62.3c12-12,12-31.4,0-43.3C172.8,7,153.4,7,141.5,19L141.5,19z M141.5,62.3L264,184.8c12,12,31.4,12,43.3,0c12-12,12-31.4,0-43.3L184.8,19c-12-12-31.4-12-43.3,0C129.5,30.9,129.5,50.3,141.5,62.3L141.5,62.3z"/></g>
</svg>